<svg width="41" height="50" viewBox="0 0 41 50" fill="none" xmlns="http://www.w3.org/2000/svg">
<path d="M20.4829 6.01275C20.6057 6.13324 20.6955 6.27927 20.7991 6.41097C21.2301 6.95881 21.6851 7.48155 22.1539 7.98952C22.6542 8.53154 23.1627 9.06504 23.6577 9.61332C24.1144 10.119 24.5494 10.6476 24.9379 11.2196C25.4488 11.9726 25.885 12.774 26.2343 13.6323C26.46 14.1873 26.6644 14.7512 26.8318 15.33C26.9374 15.6955 27.0199 16.0677 27.0888 16.4449C27.1811 16.9511 27.2105 17.4626 27.2492 17.9746C27.2794 18.3688 27.2235 18.755 27.2109 19.1451C27.2031 19.3883 27.1623 19.6262 27.1256 19.8645C27.0582 20.3021 26.9587 20.7317 26.8256 21.1506C26.6408 21.7329 26.4033 22.2897 26.0988 22.8093C25.7536 23.3988 25.3476 23.9296 24.8615 24.3892C24.3466 24.8761 23.7781 25.2613 23.1529 25.5471C22.7134 25.7483 22.2576 25.8929 21.7871 25.9821C21.3243 26.0694 20.8587 26.1196 20.3894 26.1115C19.9617 26.1044 19.5369 26.0591 19.1154 25.9736C18.5139 25.8513 17.9377 25.6475 17.3908 25.3478C16.6816 24.9585 16.0589 24.4438 15.5276 23.7948C15.2105 23.4073 14.9334 22.9894 14.6947 22.541C14.4735 22.1253 14.2964 21.6867 14.1466 21.2334C14.0107 20.8227 13.9116 20.4011 13.8332 19.9747C13.7749 19.6576 13.7328 19.3359 13.7218 19.0121C13.7136 18.7662 13.6716 18.5229 13.683 18.2761C13.7047 17.8004 13.7296 17.3256 13.7928 16.8525C13.8605 16.3459 13.963 15.8496 14.103 15.3627C14.3001 14.676 14.5429 14.0085 14.8244 13.3577C15.0215 12.9021 15.2456 12.4631 15.4896 12.0376C15.7426 11.5955 16.0262 11.1762 16.3286 10.7726C16.7808 10.1697 17.2786 9.61466 17.7838 9.06728C18.1825 8.63501 18.5877 8.21036 18.9848 7.7763C19.4541 7.26296 19.9058 6.7317 20.3266 6.16998C20.3633 6.12115 20.4041 6.07591 20.4441 6.03022C20.4502 6.02305 20.462 6.02171 20.482 6.0132L20.4829 6.01275ZM20.4735 6.94313C19.5937 8.04372 18.6237 9.01621 17.6973 10.0371C17.7255 10.0671 17.7446 10.0496 17.763 10.0465C18.0307 10.0021 18.2964 9.98735 18.5584 10.0868C18.9048 10.2185 19.1746 10.4577 19.3757 10.7914C19.6455 11.2385 19.7573 11.7204 19.6149 12.2472C19.5337 12.5465 19.3876 12.8058 19.1566 12.9953C19.0023 13.1221 18.7828 13.0307 18.7322 12.8273C18.7 12.6988 18.7379 12.5975 18.8236 12.5052C19.0627 12.2486 19.1546 11.9386 19.0803 11.5776C19.037 11.367 18.9468 11.1816 18.8248 11.0118C18.4874 10.541 17.8479 10.5562 17.5031 10.8479C17.2243 11.0835 17.0958 11.4046 17.0558 11.7688C17.0093 12.1971 17.0803 12.6154 17.208 13.0208C17.3407 13.4419 17.5639 13.8065 17.8116 14.1546C17.8324 14.1841 17.8532 14.2141 17.8916 14.2191C18.1837 14.1196 18.4616 13.9852 18.7261 13.8132C18.9962 13.6372 19.137 13.3299 19.3553 13.0629C19.6332 13.8764 19.9005 14.6599 20.1678 15.4429C20.1744 15.4411 20.1813 15.4388 20.1878 15.437C20.1878 15.3963 20.1878 15.356 20.1878 15.3152C20.1878 14.0547 20.1878 12.7937 20.1878 11.5332C20.1878 11.466 20.1874 11.3993 20.2025 11.333C20.2498 11.1301 20.4657 11.0427 20.6269 11.1574C20.7444 11.2411 20.7571 11.3666 20.7571 11.5005C20.7571 12.7686 20.7571 14.0368 20.7571 15.3049V15.4178C20.7648 15.4182 20.7726 15.4187 20.7803 15.4191C21.0464 14.6424 21.3125 13.8652 21.5863 13.0652C21.8112 13.3348 21.9511 13.6426 22.2245 13.8195C22.4898 13.9906 22.7681 14.1223 23.0554 14.2195C23.0868 14.2128 23.104 14.194 23.1186 14.1738C23.4684 13.6892 23.7467 13.1669 23.8503 12.5473C23.9181 12.1411 23.9303 11.7424 23.7854 11.3504C23.5875 10.8152 23.1509 10.5607 22.6375 10.662C22.185 10.7511 21.8703 11.2801 21.8422 11.7442C21.8238 12.0474 21.9271 12.2978 22.1213 12.5066C22.1968 12.5877 22.2364 12.6808 22.2205 12.7973C22.2041 12.9169 22.1372 12.9948 22.038 13.0311C21.9185 13.075 21.8099 13.0387 21.7197 12.9429C21.439 12.6441 21.2815 12.2804 21.2692 11.8508C21.2574 11.4248 21.3863 11.0423 21.6206 10.7076C21.9413 10.2498 22.3563 9.98959 22.8987 10.0142C23.0134 10.0196 23.1252 10.0438 23.2443 10.046C22.3204 9.02069 21.3496 8.0491 20.4722 6.94357L20.4735 6.94313ZM14.3094 18.7944C14.3237 18.7854 14.3315 18.7832 14.3347 18.7782C14.3441 18.763 14.3523 18.7464 14.3604 18.7303C14.6996 18.0503 15.2403 17.6857 15.9177 17.5406C16.1788 17.4846 16.4425 17.4837 16.7085 17.5128C17.1423 17.5598 17.5459 17.7045 17.9152 17.9527C18.3025 18.2129 18.6367 18.5444 18.944 18.9122C19.3615 19.4112 19.7161 19.9599 20.0434 20.5319C20.0854 20.6059 20.1274 20.6798 20.1801 20.7729C20.1854 20.7331 20.1886 20.7187 20.1886 20.7048C20.1886 19.6011 20.1886 18.4969 20.1895 17.3932C20.1895 17.3193 20.1654 17.27 20.1087 17.2261C19.732 16.9327 19.3615 16.6299 19.006 16.306C18.5465 15.8863 18.1013 15.4491 17.7014 14.9591C17.3349 14.5102 16.9958 14.0403 16.7702 13.4862C16.5771 13.0123 16.4665 12.516 16.4747 11.9923C16.4767 11.8459 16.467 11.698 16.5074 11.5516C16.4021 11.6891 16.3103 11.8306 16.2184 11.9717C15.8646 12.5164 15.5643 13.0961 15.3056 13.7004C15.0081 14.3956 14.7551 15.1096 14.5694 15.8523C14.4625 16.281 14.3906 16.7159 14.3417 17.1553C14.2878 17.6369 14.2845 18.1216 14.2956 18.6062C14.2968 18.6676 14.3045 18.7285 14.3094 18.7944ZM24.438 11.539C24.438 11.5708 24.4359 11.5847 24.438 11.5977C24.511 11.9744 24.471 12.3485 24.4033 12.7185C24.2813 13.3832 23.9883 13.9588 23.6075 14.4856C23.2329 15.0039 22.811 15.472 22.3592 15.9087C21.9744 16.281 21.5773 16.6366 21.1615 16.9663C21.0244 17.0747 20.8885 17.1849 20.7661 17.2835V20.7286C20.8958 20.5396 21.0064 20.3438 21.124 20.1539C21.5614 19.4452 22.0393 18.7756 22.6567 18.2389C23.0529 17.8945 23.492 17.6521 23.9883 17.55C24.4131 17.4626 24.8387 17.4671 25.2586 17.6006C25.7259 17.7489 26.1188 18.0163 26.4188 18.4418C26.4943 18.5493 26.5441 18.6748 26.6314 18.8024C26.6808 18.2116 26.6546 17.6467 26.5951 17.0846C26.5485 16.6447 26.4682 16.2106 26.3588 15.7833C26.2294 15.2767 26.0572 14.7871 25.8777 14.2997C25.6043 13.5575 25.2639 12.8551 24.8615 12.1885C24.731 11.9722 24.5975 11.7572 24.4376 11.5399L24.438 11.539ZM18.1833 22.1714C18.1825 22.0733 18.2127 22.0182 18.2364 21.9613C18.3759 21.6227 18.4751 21.2706 18.4927 20.8979C18.52 20.3214 18.4771 19.7516 18.3364 19.1926C18.3143 19.1061 18.2817 19.0345 18.2205 18.9758C18.0352 18.8006 17.8463 18.6318 17.6365 18.4911C17.2578 18.2367 16.8403 18.1198 16.4057 18.1126C16.0438 18.1068 15.69 18.2 15.377 18.4181C14.9436 18.72 14.7089 19.1541 14.7049 19.7198C14.7024 20.0311 14.7649 20.3335 14.8889 20.6175C15.057 21.0032 15.308 21.2934 15.6818 21.4377C16.0691 21.5873 16.4555 21.5689 16.8371 21.4126C17.0709 21.3167 17.2439 21.1488 17.3337 20.8858C17.3664 20.7904 17.3888 20.6919 17.3982 20.5933C17.4304 20.26 17.3606 19.9563 17.148 19.7055C17.0827 19.6284 16.9942 19.585 16.9109 19.5335C16.7857 19.4564 16.7318 19.2929 16.7799 19.1594C16.8354 19.0058 16.9713 18.922 17.1166 18.97C17.3864 19.0591 17.5843 19.2589 17.7291 19.5138C18.0095 20.007 18.043 20.536 17.8707 21.0802C17.7977 21.3118 17.681 21.5174 17.5104 21.6805C17.2158 21.9622 16.8644 22.1042 16.4816 22.1463C16.063 22.1925 15.6553 22.1445 15.2729 21.9264C15.1644 21.8646 15.0685 21.7817 14.9448 21.697C15.5406 23.0946 16.4127 24.1603 17.6741 24.8188C17.1909 24.0859 16.9811 23.2801 17.0938 22.3752C18.4559 22.4415 19.428 23.2026 20.176 24.3968V22.3166C19.5055 22.2673 18.8473 22.2194 18.1837 22.1705L18.1833 22.1714ZM25.9817 21.7159C25.8079 21.8534 25.6255 21.9689 25.4243 22.0402C24.9003 22.2256 24.38 22.2081 23.8703 21.9788C23.5704 21.8435 23.317 21.6357 23.1688 21.3118C22.893 20.7089 22.895 20.1055 23.2137 19.52C23.3549 19.2607 23.5541 19.0631 23.8226 18.9722C23.9813 18.9185 24.1123 19.0045 24.1674 19.1765C24.2127 19.3189 24.1511 19.4775 24.0119 19.5465C23.8026 19.6499 23.6691 19.8255 23.6006 20.0594C23.5386 20.2703 23.5202 20.4822 23.5655 20.708C23.6406 21.0802 23.8385 21.3123 24.1588 21.4354C24.4139 21.5335 24.6751 21.5573 24.9411 21.5241C25.2929 21.4802 25.5932 21.3172 25.8201 21.0171C26.1139 20.6287 26.2405 20.1781 26.2294 19.671C26.2192 19.2051 26.0482 18.836 25.7271 18.5467C25.4545 18.3007 25.1346 18.1883 24.7856 18.1354C24.4237 18.0803 24.0805 18.1507 23.7446 18.268C23.3427 18.4082 23.0117 18.6846 22.7065 18.9982C22.6689 19.0367 22.6343 19.077 22.6212 19.1344C22.498 19.667 22.4261 20.2041 22.4465 20.7577C22.4625 21.1945 22.5588 21.6025 22.7216 21.9967C22.742 22.0455 22.7738 22.0953 22.7355 22.1746C22.0878 22.222 21.43 22.2704 20.7661 22.3192V24.4062C21.5182 23.1986 22.4922 22.4433 23.8516 22.377C23.9642 23.2837 23.7512 24.0886 23.2709 24.821C24.5351 24.1621 25.4043 23.0924 25.9813 21.7172L25.9817 21.7159ZM20.0491 25.4459C19.6643 24.3193 18.38 23.066 17.652 23.1005C17.7471 24.6468 19.2264 25.5449 20.0491 25.4459ZM20.9007 25.4445C21.4961 25.4808 21.9952 25.2156 22.4392 24.8273C22.9424 24.3874 23.2309 23.8037 23.3002 23.0763C22.1046 23.4001 21.401 24.2942 20.9007 25.4445ZM18.278 14.7356C18.7534 15.2829 19.2652 15.7542 19.794 16.2039C19.8022 16.1985 19.8099 16.1936 19.8181 16.1882C19.5981 15.5454 19.3782 14.9022 19.1525 14.2437C18.8734 14.452 18.5902 14.6012 18.278 14.7356ZM21.7916 14.2424C21.5643 14.9067 21.3451 15.5459 21.1264 16.1851C21.135 16.19 21.1431 16.1954 21.1517 16.2003C21.6814 15.7515 22.1923 15.2789 22.6702 14.7351C22.3568 14.6057 22.0715 14.4551 21.7916 14.2424ZM19.9899 21.6702C19.7144 21.0901 19.4043 20.5534 19.0562 20.0401C19.0803 20.2999 19.0697 20.5561 19.0668 20.8119C19.0644 21.0681 19.0105 21.3185 18.973 21.5797C19.31 21.6509 19.6418 21.6473 19.9899 21.6697V21.6702ZM21.9777 21.5801C21.8634 21.0677 21.8589 20.5557 21.8867 20.0388C21.5398 20.5543 21.228 21.0901 20.9579 21.6675C21.3039 21.6505 21.6349 21.6496 21.9777 21.5801Z" fill="#EFDD9C"/>
<path d="M18.2531 26.2737C18.1442 26.3754 18.0303 26.4242 17.9222 26.4802C17.5749 26.6598 17.2162 26.8099 16.8505 26.9366C16.4592 27.0724 16.063 27.1888 15.659 27.2748C15.1758 27.3779 14.6902 27.4558 14.2001 27.5114C13.6924 27.5687 13.1844 27.5839 12.6759 27.5857C12.3164 27.5866 11.9552 27.5777 11.5978 27.5387C11.0175 27.4755 10.4425 27.368 9.87892 27.1938C9.25579 27.0016 8.6555 26.7463 8.0797 26.4237C7.51574 26.1084 6.98564 25.7348 6.48411 25.3093C5.72917 24.6683 5.07297 23.9238 4.50901 23.0807C4.12174 22.502 3.78997 21.8861 3.53248 21.2263C3.34272 20.7402 3.17826 20.2421 3.01585 19.744C2.91179 19.4251 2.80079 19.1088 2.6951 18.7908C2.59553 18.4898 2.50289 18.1861 2.40006 17.8864C2.15317 17.1688 1.90669 16.4512 1.58349 15.7681C1.3313 15.235 1.03789 14.7373 0.631033 14.3293C0.57431 14.2724 0.514323 14.2191 0.458008 14.1658C0.476371 14.1156 0.503713 14.1304 0.529014 14.1389C1.09706 14.3288 1.65898 14.5376 2.21846 14.7562C2.67551 14.9349 3.12889 15.1248 3.57941 15.3219C4.04258 15.5248 4.50085 15.7407 4.95504 15.9678C5.35373 16.1672 5.75161 16.367 6.13969 16.5891C6.55512 16.827 6.97054 17.0649 7.38352 17.3076C7.99727 17.6682 8.60368 18.0432 9.19947 18.4383C9.83036 18.8566 10.4457 19.3005 11.0411 19.7776C11.6092 20.2327 12.156 20.7165 12.6926 21.2142C13.1101 21.6016 13.5194 22.0003 13.9018 22.4294C14.2486 22.8183 14.5784 23.2245 14.9073 23.6322C15.4064 24.2503 15.9467 24.8183 16.5824 25.2716C17.0681 25.6179 17.5741 25.918 18.0993 26.1832C18.145 26.2065 18.1882 26.2352 18.2527 26.2737H18.2531ZM16.2046 26.4802C15.9805 26.4399 15.7679 26.3978 15.5541 26.3637C15.235 26.3131 14.9199 26.2405 14.6049 26.1671C14.2303 26.0793 13.8585 25.9785 13.4876 25.8741C13.1232 25.7715 12.7596 25.6636 12.3984 25.548C12.0307 25.4302 11.6659 25.3021 11.3011 25.174C11.104 25.1046 10.9081 25.0306 10.7151 24.9487C10.5351 24.8725 10.4694 24.6795 10.5641 24.5016C10.7094 24.2284 10.7596 23.9292 10.7616 23.6219C10.7645 23.1757 10.6796 22.7466 10.4686 22.3596C10.3343 22.1132 10.1638 21.9022 9.89933 21.8135C9.42188 21.6527 8.93504 21.5676 8.43432 21.594C8.17723 21.6075 7.92831 21.6652 7.69611 21.7853C6.92688 22.1822 6.45351 23.1529 6.72529 24.0904C6.92198 24.7699 7.3827 25.0839 7.93647 25.1453C8.15642 25.1695 8.37066 25.1261 8.56899 25.0163C8.91667 24.8232 9.14193 24.5343 9.15662 24.0859C9.16152 23.9377 9.13418 23.7997 9.07868 23.6635C9.01135 23.4973 9.07256 23.3217 9.20845 23.2554C9.36107 23.1811 9.51247 23.2478 9.59327 23.4131C9.72957 23.6913 9.76833 23.9923 9.71773 24.2924C9.60469 24.9643 9.22763 25.4029 8.65673 25.6537C8.50696 25.7196 8.34781 25.7388 8.16417 25.7742C8.35393 25.8755 8.51676 25.9664 8.68284 26.0506C9.14887 26.2867 9.6304 26.4771 10.127 26.6195C10.3727 26.6898 10.6204 26.7521 10.8718 26.7987C11.257 26.8699 11.6443 26.9254 12.034 26.9375C12.4135 26.9492 12.793 26.9577 13.1729 26.9443C13.346 26.9384 13.5202 26.951 13.6924 26.9353C14.0944 26.8986 14.4959 26.86 14.8954 26.7906C15.2105 26.736 15.5239 26.6755 15.834 26.5962C15.9544 26.5657 16.0805 26.5501 16.2041 26.4806L16.2046 26.4802ZM14.4359 23.9793C14.229 23.728 14.025 23.474 13.8144 23.2263C13.5088 22.8662 13.1917 22.519 12.8534 22.1952C12.5388 21.8941 12.2242 21.5922 11.9026 21.3006C11.6202 21.0444 11.3333 20.7931 11.0395 20.5521C10.8269 20.3779 10.6196 20.2103 10.3592 20.1185C9.78874 19.9169 9.20396 19.8224 8.6098 19.7848C8.2462 19.7615 7.88423 19.7973 7.52267 19.8444C6.87628 19.9286 6.25681 20.1113 5.68305 20.4553C5.16561 20.7662 4.75304 21.1895 4.52697 21.8041C4.50085 21.8753 4.49799 21.9331 4.53635 22.003C4.71305 22.3264 4.91015 22.6341 5.11786 22.9343C5.41495 23.3625 5.74427 23.7585 6.09848 24.1303C6.11072 24.1428 6.12092 24.1715 6.15112 24.1482C6.13398 24.0703 6.1095 23.9923 6.0997 23.9117C6.05073 23.5067 6.07644 23.1072 6.21152 22.7246C6.55961 21.7405 7.21661 21.1631 8.16173 20.9938C8.6151 20.9122 9.07011 20.9633 9.51818 21.0628C9.89076 21.1452 10.2544 21.2661 10.6106 21.4139C11.0848 21.6106 11.5435 21.8422 11.9858 22.1136C12.5408 22.4545 13.0726 22.8344 13.5745 23.2635C13.8585 23.5058 14.1323 23.7621 14.4355 23.9793H14.4359ZM15.6659 25.7518C15.6704 25.7433 15.6745 25.7344 15.679 25.7259C15.5786 25.6515 15.4794 25.5753 15.3782 25.5028C14.7902 25.0799 14.2213 24.6262 13.6757 24.141C12.9583 23.5036 12.2062 22.9271 11.3835 22.4657C11.2954 22.4164 11.2101 22.3551 11.0979 22.334C11.3549 23.0368 11.399 23.7433 11.2064 24.4833C12.6681 25.0163 14.1462 25.4714 15.6659 25.7523V25.7518ZM3.1248 16.4431C3.89812 17.597 4.67632 18.7415 5.4933 19.8614C5.91035 19.6222 6.34332 19.4654 6.81425 19.3386C5.65775 18.2273 4.39883 17.3247 3.1244 16.4436L3.1248 16.4431ZM9.22477 19.211C9.22763 19.2024 9.23048 19.1939 9.23334 19.1854C7.43086 18.0029 5.5945 16.8928 3.6398 16.0346C3.81568 16.1757 3.99483 16.3096 4.17806 16.4373C4.73427 16.8248 5.27661 17.236 5.80711 17.6642C6.38454 18.1301 6.95259 18.6098 7.46432 19.163C7.49166 19.1926 7.519 19.2168 7.56185 19.2123C7.66305 19.2007 7.76426 19.1899 7.86587 19.1823C8.12296 19.1626 8.37964 19.1362 8.63836 19.1666C8.83302 19.1895 9.0293 19.1971 9.22518 19.211H9.22477ZM2.64613 16.8154C3.16398 18.2671 3.58389 19.7579 4.15316 21.1936C4.37802 20.7944 4.6649 20.4719 4.9987 20.1973C4.2103 19.0645 3.42842 17.9397 2.64613 16.8154Z" fill="#EFDD9C"/>
<path d="M22.7077 26.2782C22.8008 26.1881 22.9138 26.1527 23.0162 26.099C23.754 25.712 24.4567 25.2622 25.084 24.6821C25.4875 24.3086 25.8405 23.879 26.189 23.4454C26.6702 22.8469 27.1668 22.265 27.7112 21.7347C28.4457 21.0193 29.2019 20.3331 29.9976 19.701C30.4849 19.314 30.9876 18.9529 31.4986 18.6053C32.2376 18.1019 32.9978 17.6391 33.763 17.1854C34.5036 16.7459 35.2537 16.3253 36.0229 15.9481C36.6926 15.6198 37.3696 15.3116 38.0552 15.0263C38.642 14.7817 39.2349 14.5546 39.8307 14.3378C40.0237 14.2675 40.2196 14.2061 40.4139 14.1402C40.4392 14.1317 40.464 14.1169 40.4947 14.151C40.4265 14.2191 40.3612 14.2858 40.2947 14.3517C39.8699 14.7696 39.581 15.2937 39.3247 15.8438C39.0643 16.4019 38.8525 16.9833 38.6518 17.5688C38.4473 18.165 38.2559 18.7666 38.056 19.3646C37.8842 19.8784 37.712 20.3917 37.5308 20.9019C37.35 21.4104 37.1321 21.8982 36.8738 22.3631C36.6012 22.8536 36.2923 23.3168 35.9523 23.7545C35.5345 24.2929 35.0721 24.7802 34.5685 25.2201C33.9499 25.7603 33.2831 26.219 32.564 26.5841C31.9736 26.8838 31.3651 27.1221 30.7314 27.2856C30.3347 27.3882 29.9344 27.4594 29.53 27.5109C29.2023 27.5526 28.8734 27.5544 28.5453 27.5768C28.1674 27.6027 27.7916 27.5741 27.4153 27.5669C27.1207 27.5615 26.8269 27.5252 26.5335 27.4894C26.1927 27.4478 25.8536 27.3953 25.5165 27.3255C25.006 27.2193 24.5033 27.0818 24.0091 26.9026C23.6312 26.7655 23.2627 26.6065 22.9048 26.4161C22.8371 26.3799 22.7616 26.3534 22.7081 26.2782H22.7077ZM32.7534 25.7635C32.7399 25.7621 32.7265 25.7608 32.7134 25.759C32.0776 25.6672 31.5981 25.3294 31.3321 24.6763C31.1578 24.2485 31.1607 23.8172 31.3623 23.3952C31.4533 23.2048 31.6691 23.1663 31.8079 23.3182C31.9074 23.427 31.9234 23.5368 31.8519 23.7079C31.7667 23.9121 31.7634 24.1262 31.8201 24.3305C31.9385 24.7565 32.2217 24.997 32.6073 25.1059C32.802 25.161 32.9933 25.152 33.1913 25.1113C33.5059 25.0468 33.7695 24.8913 33.965 24.6163C34.2923 24.1563 34.3702 23.6371 34.2376 23.0758C34.0372 22.2261 33.3304 21.6272 32.509 21.5931C32.1576 21.5788 31.8099 21.6097 31.4671 21.6917C31.2855 21.7351 31.0982 21.7687 30.9309 21.8632C30.6852 22.0021 30.5269 22.2328 30.4073 22.4989C30.2723 22.8008 30.2029 23.1229 30.1866 23.4566C30.1694 23.8104 30.2058 24.1567 30.369 24.473C30.4763 24.6808 30.4155 24.8757 30.2107 24.9581C30.0229 25.0338 29.834 25.1068 29.6434 25.1744C29.1464 25.3505 28.6473 25.5185 28.1441 25.6739C27.4451 25.8898 26.7403 26.0784 26.0299 26.2401C25.6022 26.3377 25.1701 26.4117 24.7224 26.4788C24.8669 26.5434 25.0064 26.5693 25.1431 26.6034C25.4508 26.68 25.7601 26.744 26.0727 26.7955C26.4959 26.865 26.9207 26.9201 27.3476 26.9362C27.7336 26.951 28.1205 26.955 28.5069 26.9447C28.8191 26.9362 29.1309 26.9326 29.4422 26.895C29.834 26.8475 30.2229 26.7826 30.6053 26.68C31.0966 26.5483 31.5781 26.379 32.0433 26.1577C32.2861 26.0425 32.5241 25.9171 32.7534 25.763V25.7635ZM26.5245 23.9972C26.7346 23.8154 26.9464 23.6357 27.1541 23.4507C27.6087 23.0463 28.0854 22.6754 28.5877 22.347C29.2366 21.9228 29.9128 21.56 30.6314 21.2979C31.0191 21.1564 31.4149 21.0507 31.8189 20.9947C32.2 20.9418 32.5836 20.9409 32.9636 21.0314C33.2113 21.0905 33.4488 21.1788 33.665 21.323C34.1947 21.6764 34.5787 22.1634 34.7632 22.8205C34.844 23.1094 34.8872 23.4051 34.8599 23.7123C34.8464 23.862 34.8187 24.0089 34.7942 24.1818C34.8342 24.1419 34.857 24.1209 34.8783 24.0985C35.126 23.8373 35.3553 23.5583 35.5785 23.2716C35.8838 22.8792 36.1502 22.4572 36.3996 22.0214C36.4339 21.9609 36.4514 21.9027 36.4269 21.8319C36.3331 21.56 36.1951 21.3167 36.0197 21.1013C35.7438 20.7626 35.4051 20.5145 35.0317 20.325C34.3339 19.9707 33.5908 19.8224 32.8293 19.787C32.1123 19.7539 31.4063 19.852 30.7167 20.0755C30.482 20.1516 30.2584 20.2484 30.0593 20.4164C29.3855 20.9844 28.7281 21.5734 28.0927 22.192C27.5251 22.7448 27.0113 23.3535 26.5245 23.9968V23.9972ZM29.8548 22.3188C29.8018 22.3425 29.7703 22.3546 29.741 22.3703C29.2692 22.6194 28.8191 22.9101 28.3816 23.2254C27.9442 23.5412 27.543 23.9099 27.1305 24.2615C26.7016 24.6275 26.2658 24.9832 25.8165 25.3182C25.6222 25.4629 25.4271 25.6071 25.219 25.7621C26.0046 25.6255 26.7608 25.4356 27.5108 25.2183C28.2604 25.0015 29.0027 24.7574 29.7401 24.481C29.5434 23.7419 29.5871 23.0328 29.8548 22.3188ZM35.452 19.8641C36.2698 18.7308 37.0619 17.5818 37.8438 16.4239C36.6901 17.1652 34.4636 18.9256 34.1445 19.3436C34.5955 19.464 35.0325 19.6195 35.4524 19.8641H35.452ZM37.3133 16.0431C35.3467 16.8937 33.5071 18.01 31.7038 19.2074C31.8217 19.1984 31.9376 19.2047 32.0511 19.1881C32.4857 19.1236 32.9183 19.1644 33.3508 19.2078C33.4128 19.2141 33.4537 19.1993 33.4945 19.1523C33.7275 18.8853 33.987 18.6506 34.2478 18.4181C35.0317 17.7202 35.8577 17.0864 36.702 16.4803C36.9056 16.3343 37.1096 16.1882 37.3133 16.0427V16.0431ZM36.7958 21.2231C37.359 19.7575 37.7842 18.2658 38.302 16.8113C37.5206 17.9419 36.7428 19.0734 35.9352 20.1946C36.2886 20.4683 36.5608 20.8061 36.7954 21.2231H36.7958Z" fill="#EFDD9C"/>
<path d="M30.5808 2.16984C30.6191 2.17656 30.633 2.21419 30.6502 2.24465C30.9778 2.81981 31.3076 3.39317 31.6124 3.98356C31.9662 4.66802 32.2853 5.37129 32.5461 6.10502C32.6942 6.52161 32.8195 6.94626 32.9276 7.37763C33.0313 7.79153 33.1101 8.21081 33.168 8.63367C33.2157 8.98261 33.2521 9.33425 33.2663 9.68902C33.2827 10.0989 33.2904 10.5088 33.2798 10.9186C33.268 11.3764 33.2374 11.8329 33.1864 12.288C33.1451 12.6575 33.0994 13.0266 33.0346 13.3917C32.9395 13.9252 32.8195 14.452 32.6628 14.9689C32.5318 15.4008 32.3837 15.8245 32.2135 16.2389C31.9662 16.8413 31.6695 17.4143 31.3651 17.984C31.2398 18.2192 31.0297 18.3142 30.8436 18.4486C30.4147 18.7576 29.9915 19.0743 29.5761 19.404C29.0007 19.8609 28.4526 20.3559 27.9099 20.8576C27.6944 21.0569 27.4859 21.2652 27.2745 21.4699C27.2545 21.4892 27.2382 21.5152 27.1909 21.5067C27.2003 21.3969 27.2484 21.2984 27.2774 21.1967C27.3945 20.7837 27.4855 20.3653 27.5557 19.9393C27.6638 19.2804 27.7075 18.6165 27.6883 17.9491C27.6785 17.6114 27.6634 17.2736 27.6198 16.9363C27.5741 16.586 27.5222 16.2375 27.4524 15.8926C27.3443 15.3573 27.1823 14.8395 27.0048 14.3275C26.8322 13.8289 26.6387 13.3402 26.4192 12.8645C26.2164 12.4255 25.9907 12.0004 25.7442 11.5887C25.4773 11.1426 25.1803 10.7215 24.8738 10.3081C24.8587 10.2879 24.8465 10.2628 24.8277 10.249C24.7008 10.154 24.7155 10.0312 24.7595 9.89463C24.9105 9.42608 25.1088 8.98082 25.3239 8.54542C25.6434 7.89859 26.0217 7.29297 26.4294 6.7102C26.8273 6.14131 27.2635 5.61005 27.7434 5.12313C27.943 4.92066 28.1641 4.74596 28.3763 4.56007C28.9023 4.09868 29.3961 3.59923 29.8548 3.05766C30.0862 2.78442 30.3143 2.50893 30.5245 2.21553C30.5392 2.19492 30.553 2.17342 30.5808 2.17073V2.16984ZM28.2502 18.6712C28.2784 18.6658 28.2804 18.6497 28.2845 18.6367C28.4131 18.2129 28.5371 17.7869 28.6449 17.356C28.7522 16.9251 28.8526 16.4924 28.9476 16.0579C29.088 15.4173 29.2137 14.7732 29.3198 14.125C29.3863 13.7187 29.4435 13.3102 29.4957 12.9008C29.5667 12.3471 29.6169 11.7917 29.6495 11.2344C29.6753 10.799 29.6769 10.365 29.6373 9.92822C29.6014 9.52866 29.5406 9.13984 29.4092 8.76536C29.2786 8.39357 29.0737 8.08314 28.7648 7.86768C28.529 7.70329 28.2666 7.62803 27.9874 7.59399C27.5647 7.54248 27.1696 7.61997 26.8016 7.84932C26.3449 8.13376 26.0429 8.5602 25.9075 9.11341C25.7834 9.61959 25.8267 10.119 26.0397 10.593C26.2062 10.9634 26.4527 11.2573 26.7803 11.4615C27.0272 11.6152 27.2986 11.6291 27.5724 11.5856C27.9776 11.5211 28.2927 11.3083 28.4731 10.8918C28.5359 10.7466 28.5632 10.5885 28.5885 10.4299C28.6167 10.2543 28.7412 10.1486 28.8897 10.1652C29.0415 10.1818 29.139 10.3099 29.1452 10.4846C29.1488 10.5916 29.1227 10.6911 29.1015 10.7923C29.0231 11.1619 28.862 11.4848 28.6012 11.7321C28.1466 12.163 27.6116 12.292 27.0231 12.2029C26.9252 12.1881 26.8338 12.1312 26.7134 12.1406C27.7112 14.1904 28.3645 16.3231 28.2511 18.6712H28.2502ZM29.3406 18.823C29.3541 18.8123 29.368 18.8015 29.3814 18.7903C29.7863 18.4629 30.2045 18.1565 30.6285 17.8613C30.7603 17.7695 30.8754 17.6732 30.9554 17.5218C31.2386 16.9865 31.5055 16.4427 31.7352 15.8765C32.1115 14.9492 32.3682 13.983 32.5212 12.9832C32.5787 12.6056 32.6191 12.2244 32.6604 11.8436C32.673 11.7272 32.6824 11.6089 32.6383 11.4911C32.2608 10.4752 31.7903 9.51746 31.1733 8.65024C30.8224 8.15705 30.4314 7.71001 29.9703 7.33866C29.5398 6.9924 29.0693 6.74424 28.5428 6.63494C28.1658 6.55655 27.7863 6.56641 27.4084 6.63225C27.319 6.64793 27.2149 6.65241 27.1509 6.72184C27.0464 6.83562 26.9546 6.96552 26.8701 7.10394C26.9085 7.11917 26.9358 7.10125 26.9636 7.0896C27.0652 7.0466 27.1709 7.01749 27.2774 6.99778C27.7046 6.92028 28.1295 6.93282 28.5473 7.06721C28.9003 7.18054 29.2113 7.37808 29.4586 7.67641C29.823 8.11629 30.0164 8.64845 30.1225 9.22495C30.1743 9.50671 30.2094 9.7907 30.2192 10.0769C30.2278 10.3372 30.2629 10.5975 30.2286 10.8582C30.22 10.9222 30.2433 10.9746 30.2731 11.0257C30.5314 11.4696 30.7501 11.9355 30.9362 12.421C31.1154 12.8891 31.2582 13.3702 31.3671 13.863C31.4198 14.1013 31.4639 14.3432 31.4981 14.5855C31.5169 14.7185 31.5594 14.8561 31.501 14.9927C31.4475 15.1172 31.399 15.2444 31.3439 15.3685C30.9378 16.2828 30.4469 17.1401 29.9074 17.9652C29.7197 18.2524 29.5279 18.5359 29.3406 18.8226V18.823ZM27.7928 5.95496C28.9395 5.88777 29.8748 6.40604 30.7224 7.20786C30.7795 5.9245 30.6469 4.68683 30.3143 3.47425C30.2592 3.48724 30.2413 3.52128 30.2172 3.54637C30.0797 3.69016 29.9511 3.8438 29.8169 3.99118C29.3308 4.52423 28.7922 4.9892 28.2572 5.45909C28.0907 5.60557 27.9434 5.7731 27.7932 5.95451L27.7928 5.95496ZM30.1841 12.1061C30.1752 12.1088 30.1662 12.1119 30.1576 12.1146C29.9576 14.1922 29.5479 16.2227 29.0174 18.2277C29.0774 18.1578 29.1264 18.083 29.177 18.0096C29.8177 17.081 30.3882 16.1049 30.8526 15.0554C30.9121 14.9206 30.9689 14.7893 30.9309 14.6307C30.9007 14.5049 30.8881 14.3745 30.8632 14.2473C30.7485 13.656 30.5812 13.0826 30.3629 12.5276C30.307 12.3856 30.2441 12.2463 30.1845 12.1061H30.1841ZM31.1154 4.32221C31.1023 4.43912 31.1366 4.54797 31.1554 4.65951C31.2288 5.09939 31.2741 5.54465 31.2949 5.98901C31.3214 6.56103 31.3304 7.13664 31.2533 7.70732C31.2455 7.766 31.2594 7.80587 31.2933 7.84797C31.803 8.47823 32.2241 9.17568 32.5873 9.91658C32.6208 9.98466 32.644 10.0617 32.7105 10.1307C32.6857 8.01371 32.067 6.11354 31.1154 4.32176V4.32221Z" fill="#EFDD9C"/>
<path d="M16.2319 10.0949C16.1152 10.2534 15.9989 10.4124 15.881 10.5706C15.4517 11.1462 15.0774 11.7626 14.7469 12.4116C14.3617 13.1682 14.0495 13.9611 13.7883 14.7781C13.6141 15.3237 13.4835 15.8809 13.3913 16.4512C13.277 17.1589 13.2382 17.8712 13.2582 18.5874C13.2721 19.0784 13.3215 19.5666 13.4055 20.0504C13.4876 20.5234 13.5961 20.988 13.7422 21.4417C13.7487 21.4619 13.7602 21.4829 13.7438 21.5112C13.7006 21.5277 13.6818 21.4825 13.6573 21.4578C13.1089 20.9114 12.5408 20.3908 11.9573 19.8909C11.3333 19.3565 10.6886 18.8531 10.0164 18.393C9.93565 18.3379 9.85852 18.2761 9.77486 18.2268C9.65122 18.1543 9.60388 18.0172 9.53777 17.8985C9.16683 17.2293 8.83342 16.5381 8.56205 15.8124C8.35312 15.2534 8.18254 14.68 8.05155 14.0936C7.9434 13.6094 7.86424 13.1189 7.79894 12.6248C7.68264 11.7442 7.64755 10.8599 7.66713 9.97257C7.67611 9.57076 7.70713 9.1703 7.75936 8.77163C7.80139 8.45091 7.8524 8.13152 7.91606 7.81617C8.01155 7.34359 8.14132 6.88086 8.28986 6.42486C8.50859 5.75339 8.77956 5.10745 9.08399 4.47854C9.37291 3.88278 9.68835 3.30403 10.016 2.7329C10.1099 2.56896 10.2038 2.40456 10.2988 2.24151C10.3148 2.21419 10.3274 2.18104 10.3686 2.17029C10.4466 2.22001 10.4886 2.31273 10.5461 2.38799C11.0073 2.99226 11.5088 3.55219 12.0438 4.07763C12.4037 4.43106 12.8004 4.73432 13.1595 5.0873C13.499 5.42057 13.8132 5.78161 14.1091 6.16236C14.451 6.60224 14.7698 7.06228 15.0623 7.54248C15.3305 7.98236 15.5782 8.43568 15.794 8.91005C15.952 9.2572 16.0956 9.61018 16.2046 9.97974C16.2148 10.0147 16.2217 10.0514 16.2319 10.0953V10.0949ZM14.2258 12.15C14.1854 12.1254 14.1638 12.1402 14.1413 12.1469C13.7589 12.2638 13.379 12.2553 12.9979 12.1339C12.3376 11.9234 11.8524 11.2694 11.7993 10.5079C11.7863 10.3229 11.885 10.1889 12.0515 10.1665C12.2005 10.1464 12.3335 10.2619 12.3592 10.4375C12.3817 10.5925 12.4115 10.7462 12.4715 10.8886C12.6355 11.277 12.924 11.4902 13.2994 11.5713C13.55 11.6255 13.8034 11.6335 14.0409 11.5229C14.5053 11.3065 14.8028 10.9056 14.9811 10.403C15.1411 9.95286 15.148 9.48521 15.0093 9.02383C14.8061 8.34743 14.3911 7.89546 13.7744 7.67596C13.4978 7.57742 13.2137 7.56263 12.9212 7.59847C12.2462 7.68089 11.7965 8.07284 11.5398 8.75013C11.3721 9.1927 11.3174 9.66349 11.2856 10.1347C11.2501 10.6633 11.279 11.1932 11.3239 11.72C11.3717 12.2754 11.4333 12.8296 11.5137 13.3814C11.5973 13.9548 11.6937 14.525 11.801 15.0935C11.881 15.5163 11.9703 15.9365 12.0626 16.3562C12.2148 17.0478 12.3931 17.731 12.5906 18.4087C12.6167 18.4987 12.6477 18.587 12.6767 18.6757C12.6894 18.6018 12.6828 18.5328 12.6824 18.4638C12.68 17.9384 12.6979 17.4147 12.7555 16.8915C12.8077 16.4171 12.8881 15.9495 12.9942 15.4877C13.0966 15.0397 13.2362 14.6043 13.3855 14.172C13.5676 13.6457 13.7691 13.1288 14.0017 12.6271C14.0752 12.469 14.1495 12.3113 14.2246 12.1509L14.2258 12.15ZM11.5835 18.8011C11.5896 18.7541 11.5659 18.7348 11.5504 18.7128C11.2101 18.238 10.8861 17.7502 10.5845 17.2449C10.1821 16.5708 9.81404 15.876 9.50471 15.1441C9.44065 14.9922 9.39739 14.8422 9.43534 14.6697C9.45166 14.5949 9.46432 14.517 9.47533 14.4399C9.5243 14.0896 9.5998 13.7465 9.69121 13.407C9.92014 12.5585 10.2429 11.7572 10.6804 11.0127C10.6992 10.9809 10.7114 10.9491 10.7106 10.9088C10.7065 10.6776 10.7106 10.4469 10.7196 10.2158C10.7445 9.54702 10.8367 8.89571 11.1068 8.28785C11.2941 7.86634 11.5618 7.52142 11.9369 7.28491C12.2833 7.06631 12.6604 6.97 13.0558 6.95388C13.3072 6.94358 13.5573 6.95925 13.803 7.03227C13.8907 7.05825 13.9777 7.09319 14.0703 7.10976C13.985 6.97359 13.8948 6.84861 13.8042 6.72408C13.7838 6.69586 13.7528 6.69138 13.723 6.68287C13.2888 6.557 12.8497 6.54849 12.4111 6.63405C11.8871 6.73618 11.4182 6.98523 10.9897 7.32657C10.5474 7.6791 10.1691 8.1033 9.8271 8.57095C9.54348 8.95887 9.29455 9.37143 9.06399 9.79742C8.76364 10.3529 8.51186 10.9348 8.29068 11.5332C8.27803 11.5677 8.26987 11.6026 8.27272 11.6416C8.30374 12.0833 8.35352 12.5232 8.42127 12.9595C8.48452 13.3666 8.5645 13.7702 8.66122 14.1702C8.78527 14.6827 8.94442 15.1817 9.12847 15.6704C9.35862 16.281 9.63938 16.8642 9.94503 17.4326C10.0222 17.5764 10.096 17.7175 10.2368 17.8102C10.5894 18.0423 10.9289 18.2963 11.2644 18.557C11.3684 18.638 11.4741 18.7164 11.5843 18.7997L11.5835 18.8011ZM10.6335 3.4532C10.3054 4.68683 10.1597 5.92406 10.2254 7.20876C11.0721 6.39977 12.0107 5.89046 13.1558 5.95631C12.9624 5.71755 12.76 5.50836 12.5392 5.32336C11.9695 4.84541 11.4296 4.33072 10.9244 3.77169C10.8322 3.66955 10.7526 3.55264 10.6331 3.4532H10.6335ZM11.9234 18.2344C11.3929 16.225 10.9905 14.1913 10.7853 12.0976C10.7114 12.18 10.693 12.2701 10.6584 12.3494C10.5098 12.6893 10.3911 13.0423 10.285 13.4002C10.1691 13.7899 10.0911 14.1904 10.0234 14.5927C10.0067 14.6917 9.97931 14.7956 10.0242 14.8995C10.2184 15.3515 10.4311 15.7931 10.6645 16.2218C10.9554 16.7562 11.2705 17.2741 11.6063 17.7762C11.7096 17.9307 11.8177 18.0817 11.9234 18.2344ZM9.69611 7.79019C9.57572 6.59418 9.64673 5.42415 9.85566 4.26129C8.88525 6.08621 8.24946 8.01954 8.23396 10.1706C8.64408 9.30961 9.10929 8.50242 9.69611 7.78974V7.79019Z" fill="#EFDD9C"/>
<path d="M20.4739 28.9936C20.491 28.9806 20.5065 28.9721 20.518 28.9596C20.8448 28.6097 21.2452 28.439 21.6896 28.3656C22.3731 28.2531 23.0297 28.3642 23.6634 28.6478C24.1601 28.87 24.6469 29.1177 25.1423 29.3434C25.6846 29.5907 26.2347 29.8151 26.7967 30.0042C27.2125 30.1439 27.6316 30.2676 28.0601 30.3486C28.3543 30.4046 28.651 30.444 28.9501 30.4521C29.3378 30.4624 29.7116 30.3688 30.0821 30.2586C30.3637 30.1748 30.6448 30.0897 30.9199 29.9818C31.288 29.8375 31.6544 29.6884 31.9633 29.4129C31.9658 29.4106 31.9687 29.4084 31.9715 29.4062C32.2453 29.1629 32.2417 28.8848 31.9601 28.6491C31.7671 28.4879 31.5561 28.3616 31.3349 28.2536C31.217 28.1958 31.1456 28.0552 31.1615 27.9284C31.179 27.7931 31.2863 27.6802 31.4157 27.6605C31.4867 27.6498 31.5508 27.6771 31.612 27.7089C31.8923 27.8536 32.167 28.0108 32.3939 28.2469C32.5987 28.4597 32.755 28.7024 32.7497 29.0326C32.746 29.2745 32.6457 29.4693 32.5024 29.6409C32.2523 29.9406 31.9397 30.1417 31.6079 30.3106C31.0668 30.586 30.5008 30.7787 29.9234 30.9381C29.4198 31.077 28.9125 31.1935 28.4012 31.2889C27.823 31.3964 27.2423 31.4882 26.6591 31.5603C26.1772 31.6199 25.6944 31.6723 25.2113 31.7198C24.782 31.7619 24.3527 31.7964 23.9226 31.8215C23.4957 31.8466 23.068 31.8586 22.6416 31.8922C22.4208 31.9097 22.2005 31.9057 21.9801 31.9115C21.2329 31.9321 20.4857 31.9469 19.7385 31.9294C19.3109 31.9196 18.882 31.929 18.4551 31.9039C18.0283 31.8788 17.601 31.8604 17.1737 31.8394C16.7604 31.8192 16.347 31.7847 15.9352 31.7453C15.4929 31.7028 15.0493 31.6678 14.6086 31.6029C14.1952 31.542 13.7793 31.4994 13.3664 31.4353C12.9905 31.3767 12.6167 31.3023 12.2429 31.2293C11.8022 31.1428 11.3639 31.0425 10.931 30.9175C10.287 30.7312 9.65203 30.5148 9.06481 30.1596C8.79547 29.9965 8.54532 29.8044 8.35924 29.5289C8.13398 29.1947 8.14132 28.7956 8.37148 28.4619C8.55226 28.2003 8.79221 28.0198 9.05012 27.8657C9.17213 27.7927 9.29904 27.7291 9.42596 27.6663C9.56144 27.5996 9.70386 27.6583 9.78139 27.807C9.84628 27.9315 9.80996 28.1103 9.701 28.1985C9.63734 28.25 9.56266 28.2778 9.49247 28.3145C9.2766 28.427 9.06889 28.5537 8.89749 28.7392C8.72243 28.9282 8.7212 29.1347 8.89464 29.3278C9.11174 29.5697 9.38719 29.7081 9.66795 29.833C10.2576 30.096 10.8685 30.2846 11.4929 30.4136C11.7279 30.4624 11.9703 30.4597 12.2131 30.4391C12.5527 30.4104 12.8877 30.3571 13.2195 30.2774C13.6704 30.1686 14.1119 30.0216 14.5502 29.8617C15.1856 29.6297 15.8018 29.3448 16.418 29.0599C16.6775 28.9398 16.9305 28.8032 17.1905 28.6845C17.7324 28.4364 18.2947 28.3029 18.8856 28.3275C19.4692 28.3521 20.0046 28.5116 20.438 28.9703C20.4449 28.9779 20.4551 28.982 20.4731 28.9941L20.4739 28.9936ZM17.2815 31.2055C17.1546 31.0685 17.0452 30.9256 16.984 30.7486C16.8901 30.4758 16.8873 30.2008 17.0158 29.9388C17.0872 29.7936 17.2199 29.7533 17.3574 29.816C17.5116 29.8864 17.5688 30.0351 17.5071 30.2438C17.4582 30.4095 17.4998 30.543 17.599 30.6653C17.6565 30.7361 17.7283 30.7849 17.8063 30.8248C17.987 30.9175 18.1797 30.9534 18.3768 30.9744C18.7706 31.017 19.1574 30.9923 19.528 30.8297C19.8483 30.6891 20.0772 30.449 20.1572 30.0669C20.2135 29.7972 20.1968 29.5464 19.9866 29.3524C19.9058 29.2776 19.8193 29.2113 19.723 29.1634C19.3598 28.9833 18.9799 28.9228 18.5824 28.9524C18.2025 28.9806 17.8389 29.0778 17.4855 29.2252C17.2158 29.3376 16.9599 29.4868 16.6938 29.6082C16.2645 29.8044 15.8381 30.0082 15.4027 30.1874C14.9322 30.3809 14.458 30.5614 13.974 30.7101C13.8512 30.7477 13.7263 30.7804 13.6043 30.8239C14.824 31.0308 16.0511 31.1276 17.2819 31.2051L17.2815 31.2055ZM27.348 30.8185C27.3227 30.8114 27.2974 30.8024 27.2717 30.7966C27.0452 30.746 26.8252 30.668 26.6053 30.5937C26.1645 30.4445 25.7316 30.2698 25.3015 30.0857C24.773 29.8595 24.2539 29.6104 23.7373 29.3546C23.1733 29.076 22.591 28.9 21.9642 28.9564C21.6871 28.9815 21.4178 29.042 21.1746 29.1907C20.7612 29.4433 20.6547 29.7318 20.8485 30.2595C20.9811 30.6201 21.2676 30.7952 21.592 30.8974C21.8446 30.9771 22.105 30.9986 22.3682 30.9919C22.5837 30.9865 22.7938 30.9498 23.0003 30.8871C23.1084 30.8544 23.2101 30.7961 23.297 30.7173C23.4553 30.5735 23.4786 30.3916 23.4223 30.1811C23.3778 30.0149 23.4504 29.872 23.592 29.8098C23.7312 29.7488 23.8711 29.803 23.9421 29.9634C24.0568 30.2219 24.0552 30.4897 23.9593 30.7545C23.8964 30.9287 23.7863 31.0689 23.6647 31.2064C24.8983 31.1285 26.1266 31.0286 27.3484 30.8181L27.348 30.8185ZM20.9913 31.3001C20.7832 31.1549 20.6118 31.0022 20.4682 30.7948C20.3384 31.0116 20.1552 31.1478 19.9642 31.3001H20.9913Z" fill="#EFDD9C"/>
<path d="M2.97953 3.59744C3.08645 3.70494 3.19336 3.8008 3.28763 3.90965C3.52595 4.18559 3.7557 4.46958 3.96055 4.77732C4.4278 5.48014 4.79018 6.24254 5.06645 7.0578C5.33496 7.84976 5.59287 8.64666 5.86995 9.43504C6.05808 9.97033 6.24783 10.5047 6.45106 11.0329C6.73875 11.7814 7.04481 12.5205 7.38352 13.2435C7.43453 13.3528 7.45493 13.4701 7.47452 13.5852C7.55246 14.0359 7.65367 14.4793 7.77813 14.9165C7.90464 15.3609 8.04787 15.799 8.21886 16.2259C8.38984 16.6523 8.57348 17.0716 8.77874 17.4797C8.78854 17.4989 8.80119 17.5177 8.79303 17.5446C8.75752 17.5746 8.731 17.5406 8.70406 17.524C7.74385 16.9269 6.77507 16.3473 5.78181 15.8191C5.41862 15.6261 5.04767 15.4496 4.67877 15.2691C4.61348 15.2373 4.57961 15.1911 4.5592 15.1168C4.36496 14.4095 4.24009 13.6856 4.11113 12.9617C4.04666 12.5998 3.99361 12.236 3.94382 11.8723C3.89934 11.5457 3.86792 11.2161 3.84466 10.885C3.80875 10.3784 3.80548 9.87178 3.81568 9.36516C3.82425 8.94096 3.85935 8.5172 3.8671 8.093C3.87608 7.61639 3.88383 7.13933 3.85894 6.66227C3.83935 6.28823 3.78181 5.92226 3.70591 5.55943C3.6349 5.22168 3.53044 4.89468 3.40679 4.57485C3.28559 4.26218 3.13623 3.96609 2.97749 3.67493C2.96851 3.6588 2.95953 3.64313 2.97912 3.59744H2.97953ZM4.45678 7.08557C4.44984 7.72703 4.42494 8.36669 4.39679 9.00635C4.37883 9.41443 4.35924 9.8234 4.37924 10.2342C4.39312 10.5204 4.40903 10.8071 4.4327 11.092C4.49065 11.789 4.60328 12.4779 4.72488 13.1651C4.78691 13.5158 4.85588 13.8648 4.92811 14.2128C4.96728 14.4009 5.00809 14.5891 5.07338 14.7803C5.58511 15.0213 6.09154 15.2879 6.59674 15.5584C6.48044 15.3681 6.3572 15.1871 6.24049 15.0016C5.92341 14.4964 5.67122 13.9521 5.4582 13.3863C5.33374 13.0562 5.22437 12.7194 5.13215 12.3762C5.03543 12.0156 4.94117 11.6542 4.88444 11.2828C4.85669 11.1014 4.95096 10.9576 5.1199 10.911C5.23661 10.8788 5.38597 10.9854 5.4276 11.1422C5.46636 11.2886 5.49452 11.4382 5.52635 11.5865C5.62878 12.0582 5.75732 12.5209 5.91607 12.9729C6.13276 13.5902 6.39964 14.1801 6.74243 14.7257C6.9228 15.0128 7.11949 15.2856 7.36067 15.5374C7.35618 15.5109 7.35536 15.5002 7.3521 15.4903C7.19703 14.9936 7.06889 14.4883 6.96442 13.9754C6.93055 13.8092 6.9228 13.6345 6.85383 13.4777C6.7208 13.1758 6.58736 12.8748 6.45473 12.5729C6.27069 12.1532 6.10256 11.7258 5.93688 11.2971C5.761 10.8411 5.58879 10.3829 5.43127 9.91882C5.30436 9.54568 5.16806 9.17613 5.04563 8.8012C4.85792 8.22693 4.66734 7.65356 4.45678 7.08557Z" fill="#EFDD9C"/>
<path d="M32.1433 17.5424C32.1813 17.4178 32.247 17.313 32.3 17.2024C32.6261 16.5211 32.9007 15.8164 33.1178 15.0845C33.2627 14.5953 33.3855 14.0999 33.4663 13.5933C33.5112 13.3111 33.6414 13.071 33.7536 12.8219C33.9372 12.4143 34.1086 12.0009 34.2763 11.5852C34.5718 10.8528 34.8432 10.1092 35.1031 9.36113C35.2794 8.85316 35.4426 8.33982 35.6173 7.83095C35.8291 7.21458 36.0213 6.58925 36.2972 6.00065C36.58 5.39817 36.9162 4.836 37.3182 4.32131C37.4994 4.08883 37.6854 3.86217 37.898 3.66284C37.9201 3.64178 37.936 3.60819 37.9731 3.61491C37.9956 3.64357 37.9744 3.66328 37.9625 3.68434C37.6128 4.31235 37.352 4.97845 37.2117 5.70187C37.1256 6.14489 37.075 6.58925 37.0745 7.04123C37.0745 7.4063 37.0647 7.77182 37.0803 8.136C37.1068 8.76491 37.1394 9.39428 37.1333 10.0236C37.128 10.5818 37.0974 11.1395 37.0235 11.694C36.9599 12.1729 36.8897 12.6508 36.8073 13.1261C36.6905 13.7989 36.5669 14.4704 36.3824 15.1266C36.3629 15.1965 36.329 15.2395 36.2665 15.2691C35.399 15.6785 34.5534 16.1376 33.7218 16.6286C33.2255 16.9215 32.7281 17.2131 32.2417 17.5253C32.2164 17.5415 32.1923 17.5675 32.1441 17.5424H32.1433ZM33.5908 15.5208C33.7214 15.4016 33.8287 15.2628 33.9327 15.1208C34.3196 14.5953 34.6187 14.0135 34.866 13.3967C35.1035 12.8049 35.2851 12.1939 35.4206 11.5659C35.4524 11.4176 35.4818 11.268 35.5243 11.1233C35.5675 10.976 35.7112 10.881 35.823 10.9097C35.9874 10.9518 36.0776 11.0888 36.0625 11.2685C36.0478 11.4476 35.9997 11.6197 35.9589 11.7917C35.8311 12.3288 35.685 12.86 35.4892 13.3734C35.268 13.9521 35.0146 14.512 34.6873 15.0285C34.5759 15.2041 34.4596 15.3757 34.331 15.5719C34.511 15.4756 34.6673 15.3887 34.8264 15.3071C35.1431 15.145 35.461 14.9855 35.7785 14.8247C35.8307 14.7983 35.8842 14.7754 35.8993 14.7015C35.9197 14.6039 35.947 14.5076 35.9695 14.4103C36.0278 14.1617 36.0768 13.9104 36.1258 13.6591C36.2119 13.2188 36.2874 12.7762 36.3563 12.3323C36.4012 12.0425 36.4363 11.7509 36.4706 11.4588C36.5236 11.0073 36.5534 10.5553 36.562 10.1011C36.5759 9.36292 36.5204 8.62695 36.502 7.88963C36.4951 7.61549 36.5008 7.3409 36.5008 7.06094C36.4698 7.07706 36.4702 7.1017 36.4636 7.12141C36.2906 7.63072 36.1164 8.13914 35.9458 8.64934C35.7813 9.14253 35.6136 9.63392 35.4398 10.1231C35.2488 10.6611 35.0497 11.1955 34.8403 11.7245C34.6048 12.3189 34.3559 12.907 34.089 13.4853C34.069 13.5283 34.0503 13.5745 34.0433 13.6211C34.0025 13.8934 33.9434 14.1608 33.8817 14.4278C33.7968 14.7951 33.7005 15.1589 33.5904 15.5199L33.5908 15.5208Z" fill="#EFDD9C"/>
<path d="M14.4074 5.74488C14.7767 4.9659 16.902 3.36406 17.6161 3.32329C17.6716 3.43752 17.7247 3.55757 17.7863 3.67179C17.994 4.05792 18.2417 4.41225 18.502 4.75716C18.864 5.23691 19.2496 5.69292 19.6426 6.14176C19.6541 6.15475 19.6626 6.17087 19.6777 6.19327C19.639 6.2851 19.5692 6.35319 19.5092 6.42575C18.922 7.13529 18.2951 7.80228 17.6716 8.47241C17.3468 8.8218 17.0215 9.1703 16.7081 9.53179C16.6808 9.56315 16.6563 9.60078 16.5947 9.62004C16.0842 8.18124 15.3105 6.92028 14.4074 5.74488ZM17.3378 4.07315C16.4988 4.47227 15.7695 5.01518 15.1436 5.74801C15.6765 6.47144 16.1429 7.22712 16.5584 8.02581C16.589 7.81214 16.6057 7.60205 16.6273 7.39241C16.6763 6.91849 16.7196 6.44457 16.7204 5.96706C16.7204 5.7955 16.7171 5.62393 16.7167 5.45237C16.7167 5.32426 16.7702 5.23109 16.8742 5.17465C16.9771 5.1191 17.0725 5.14239 17.1611 5.21406C17.2615 5.29559 17.2892 5.41564 17.2892 5.54106C17.2892 5.84656 17.2986 6.15206 17.2762 6.45756C17.2362 7.00315 17.195 7.54875 17.1313 8.09165C17.1289 8.1136 17.1085 8.14093 17.1476 8.16825C17.7393 7.52277 18.347 6.89206 18.9183 6.21029C18.3437 5.5321 17.7948 4.86153 17.3382 4.07315H17.3378Z" fill="#EFDD9C"/>
<path d="M21.257 6.19999C21.643 5.73816 22.034 5.29917 22.391 4.82659C22.7465 4.35625 23.0897 3.87695 23.3272 3.32374C24.0613 3.37481 26.1923 4.98382 26.5343 5.74891C25.6373 6.91491 24.864 8.17632 24.3421 9.64826C23.3202 8.47017 22.2205 7.41884 21.257 6.19999ZM22.0287 6.20895C22.5939 6.90819 23.219 7.52814 23.8283 8.20364C23.8087 8.04372 23.7879 7.91561 23.7777 7.78616C23.7487 7.41168 23.7095 7.03854 23.6822 6.66361C23.6532 6.26852 23.6508 5.87433 23.6589 5.4797C23.663 5.28663 23.8083 5.13702 23.965 5.14374C24.125 5.15046 24.2335 5.29425 24.2294 5.4994C24.227 5.62572 24.2135 5.75249 24.2164 5.87881C24.2294 6.44457 24.2727 7.00853 24.3323 7.5707C24.3482 7.72031 24.3461 7.87306 24.3902 8.04507C24.8028 7.22085 25.2749 6.46562 25.8026 5.74533C25.1697 5.01562 24.4461 4.46779 23.6079 4.07763C23.1497 4.85885 22.5992 5.53569 22.0287 6.20939V6.20895Z" fill="#EFDD9C"/>
<path d="M22.4755 3.88591C22.0115 4.57037 21.4916 5.18136 20.9558 5.79102C20.7734 5.60109 20.6465 5.37846 20.4731 5.18136C20.3004 5.37308 20.1756 5.59706 19.9944 5.79236C19.4521 5.18674 18.9313 4.56858 18.4669 3.88009C19.3708 2.73201 20.0736 1.46746 20.4682 0C20.5975 0.344469 20.6898 0.700584 20.8248 1.03833C20.9632 1.38325 21.1125 1.72145 21.2835 2.04845C21.4529 2.37186 21.6398 2.68229 21.8344 2.98823C22.0307 3.29731 22.256 3.58041 22.4759 3.88546L22.4755 3.88591ZM19.9573 4.85033C20.1833 4.65548 20.189 4.64249 20.189 4.36252C20.189 3.92264 20.189 3.48231 20.189 3.04243C20.189 2.97883 20.1915 2.91522 20.2078 2.85385C20.2511 2.68901 20.4339 2.59718 20.5751 2.66571C20.7167 2.7347 20.7595 2.86191 20.7591 3.01914C20.7583 3.48142 20.7722 3.94459 20.753 4.40597C20.744 4.62502 20.8632 4.72133 20.9868 4.85526C21.2525 4.53901 21.5149 4.23531 21.7499 3.89577C21.2562 3.21803 20.8293 2.50132 20.4731 1.72727C20.1103 2.50311 19.6887 3.22519 19.1954 3.89935C19.4402 4.2362 19.6908 4.54708 19.9573 4.84989V4.85033Z" fill="#EFDD9C"/>
<path d="M20.4776 9.97481C20.6918 9.9766 20.8852 10.1952 20.8816 10.4304C20.8775 10.6745 20.6914 10.872 20.4669 10.8716C20.2445 10.8707 20.0613 10.6651 20.0642 10.4196C20.067 10.1822 20.2613 9.97302 20.4776 9.97526V9.97481Z" fill="#EFDD9C"/>
<path d="M18.0678 11.3375C18.2809 11.3115 18.4523 11.5332 18.4514 11.7473C18.4502 11.9762 18.2743 12.1675 18.067 12.1675C17.8597 12.1675 17.6838 11.9749 17.6851 11.7455C17.6863 11.4938 17.8785 11.3115 18.0678 11.3375Z" fill="#EFDD9C"/>
<path d="M22.886 11.3375C23.1048 11.3375 23.2517 11.5019 23.2517 11.7451C23.2517 11.9843 23.088 12.1693 22.8775 12.1679C22.6702 12.1666 22.4918 11.9753 22.4939 11.7478C22.4959 11.5054 22.6763 11.3128 22.886 11.3379V11.3375Z" fill="#EFDD9C"/>
<path d="M20.7816 9.16896C20.7804 9.36426 20.6494 9.5076 20.4727 9.5076C20.2939 9.5076 20.1588 9.35575 20.1613 9.15821C20.1637 8.97545 20.3131 8.81195 20.4767 8.81822C20.6371 8.82404 20.8036 8.99874 20.7816 9.16896Z" fill="#EFDD9C"/>
<path d="M20.7371 8.06971C20.7289 8.22245 20.5881 8.36983 20.4616 8.35729C20.3213 8.34385 20.1992 8.19334 20.2086 8.04417C20.2176 7.89859 20.3531 7.75794 20.4804 7.76197C20.6134 7.76645 20.7448 7.92368 20.7371 8.06926V8.06971Z" fill="#EFDD9C"/>
<path d="M15.8732 15.8899C15.6259 15.9244 15.3843 15.6377 15.3913 15.3743C15.3986 15.0881 15.6051 14.8534 15.8622 14.8525C16.1336 14.8516 16.3482 15.0858 16.3474 15.3806C16.3466 15.6749 16.1083 15.9199 15.8736 15.8899H15.8732Z" fill="#EFDD9C"/>
<path d="M16.6179 16.2254C16.6192 15.9858 16.8142 15.7703 17.0252 15.7748C17.2448 15.7797 17.437 15.9974 17.4349 16.2389C17.4329 16.4749 17.235 16.6944 17.0236 16.6881C16.8016 16.6819 16.5984 16.4619 16.6179 16.225V16.2254Z" fill="#EFDD9C"/>
<path d="M18.1837 16.7132C18.3739 16.7155 18.52 16.8812 18.5188 17.0944C18.518 17.2987 18.3576 17.4752 18.1756 17.4716C17.9915 17.4685 17.8373 17.2915 17.8393 17.0859C17.8414 16.8763 17.994 16.7105 18.1833 16.7128L18.1837 16.7132Z" fill="#EFDD9C"/>
<path d="M19.3321 18.2389C19.1627 18.2542 19.0599 18.0727 19.0529 17.9464C19.0456 17.8089 19.2007 17.6409 19.3284 17.6373C19.4737 17.6333 19.6161 17.7914 19.6141 17.9545C19.612 18.1135 19.4867 18.2403 19.3321 18.2389Z" fill="#EFDD9C"/>
<path d="M25.0746 15.8899C24.8293 15.9195 24.5983 15.6668 24.5955 15.3703C24.5926 15.0885 24.8118 14.8529 25.0705 14.8525C25.3386 14.852 25.5508 15.0823 25.5549 15.3712C25.559 15.6467 25.321 15.9231 25.075 15.8899H25.0746Z" fill="#EFDD9C"/>
<path d="M24.3294 16.2371C24.3298 16.4727 24.1356 16.6881 23.9217 16.689C23.7075 16.6904 23.5116 16.4758 23.5112 16.2402C23.5108 15.9889 23.7038 15.7734 23.9295 15.7748C24.1376 15.7757 24.329 15.997 24.3294 16.2371Z" fill="#EFDD9C"/>
<path d="M22.7652 16.7132C22.9526 16.7119 23.106 16.8812 23.1064 17.0899C23.1072 17.2951 22.9505 17.4716 22.7677 17.472C22.5841 17.4725 22.4278 17.2982 22.4274 17.0926C22.4269 16.8808 22.5751 16.7146 22.7652 16.7132Z" fill="#EFDD9C"/>
<path d="M21.6083 18.2389C21.4565 18.2389 21.3349 18.1104 21.3321 17.9487C21.3296 17.791 21.4692 17.6364 21.6108 17.64C21.7512 17.6432 21.8989 17.8035 21.8891 17.9527C21.8793 18.1054 21.7642 18.2555 21.6079 18.2389H21.6083Z" fill="#EFDD9C"/>
<path d="M15.4953 20.1494C15.4761 19.8667 15.7153 19.5751 16.0119 19.5828C16.3151 19.5904 16.5212 19.8273 16.5229 20.1476C16.5245 20.4558 16.3217 20.7075 16.0017 20.7134C15.7014 20.7187 15.4696 20.4088 15.4953 20.1494Z" fill="#EFDD9C"/>
<path d="M25.4516 20.1503C25.4529 20.4639 25.2268 20.7111 24.9346 20.7156C24.671 20.7196 24.4021 20.4433 24.4176 20.1521C24.4347 19.8251 24.622 19.5917 24.937 19.5828C25.2309 19.5747 25.4708 19.8659 25.4516 20.1498V20.1503Z" fill="#EFDD9C"/>
<path d="M7.93524 22.9343C8.19764 22.9361 8.42494 23.1869 8.42167 23.4709C8.418 23.7706 8.19927 24.012 7.92667 24.0098C7.67815 24.0075 7.44106 23.8051 7.43902 23.4736C7.43698 23.1547 7.67734 22.9298 7.93483 22.9347L7.93524 22.9343Z" fill="#EFDD9C"/>
<path d="M10.0634 26.116C9.85362 26.116 9.67856 25.927 9.68305 25.6972C9.68835 25.436 9.85689 25.2752 10.0622 25.2743C10.2601 25.2734 10.4388 25.4351 10.4429 25.6967C10.4462 25.9274 10.2735 26.116 10.0638 26.116H10.0634Z" fill="#EFDD9C"/>
<path d="M10.9097 26.0479C10.9089 25.8571 11.057 25.69 11.2309 25.686C11.41 25.682 11.5647 25.8495 11.5635 26.047C11.5623 26.2392 11.4121 26.4045 11.2374 26.4054C11.0668 26.4058 10.9105 26.2356 10.9097 26.0484V26.0479Z" fill="#EFDD9C"/>
<path d="M12.7053 26.3216C12.7041 26.4847 12.5804 26.6267 12.4392 26.6271C12.2996 26.6271 12.156 26.4663 12.1613 26.3162C12.1666 26.1657 12.3074 26.0215 12.4453 26.0242C12.5841 26.0273 12.7065 26.1671 12.7053 26.3216Z" fill="#EFDD9C"/>
<path d="M13.8499 26.4618C13.8499 26.5998 13.7622 26.6974 13.6402 26.6957C13.5247 26.6939 13.4206 26.5814 13.4215 26.46C13.4223 26.3476 13.5402 26.2267 13.6459 26.2289C13.7549 26.2316 13.8495 26.3395 13.8495 26.4618H13.8499Z" fill="#EFDD9C"/>
<path d="M5.56716 22.089C5.38516 22.0899 5.2411 21.9376 5.23784 21.7418C5.23457 21.5331 5.39413 21.3768 5.56226 21.3718C5.72345 21.3669 5.88954 21.555 5.89199 21.7324C5.89485 21.917 5.73896 22.0881 5.56675 22.089H5.56716Z" fill="#EFDD9C"/>
<path d="M6.76814 20.5561C6.91668 20.5588 7.05502 20.7098 7.04849 20.8621C7.04155 21.0171 6.89872 21.1662 6.75753 21.1653C6.60899 21.1644 6.47922 21.0193 6.48085 20.8563C6.48248 20.6757 6.5996 20.5534 6.76814 20.5561Z" fill="#EFDD9C"/>
<path d="M7.95034 20.6771C7.83159 20.6762 7.71121 20.5499 7.71039 20.4258C7.70917 20.2878 7.83159 20.157 7.96054 20.1584C8.08256 20.1597 8.19519 20.2815 8.19723 20.4141C8.19927 20.5579 8.08623 20.6784 7.95075 20.6775L7.95034 20.6771Z" fill="#EFDD9C"/>
<path d="M9.52512 20.4504C9.52594 20.5709 9.44187 20.6717 9.33985 20.673C9.23824 20.6744 9.13622 20.5637 9.13622 20.4513C9.13622 20.3469 9.23824 20.2336 9.33332 20.2327C9.43575 20.2318 9.5243 20.3322 9.52512 20.45V20.4504Z" fill="#EFDD9C"/>
<path d="M10.6837 20.7913C10.682 20.8773 10.6 20.9651 10.5249 20.9615C10.4457 20.9575 10.3731 20.8688 10.3768 20.781C10.3805 20.6968 10.458 20.6108 10.5274 20.6139C10.5996 20.6175 10.6853 20.7147 10.6837 20.7913Z" fill="#EFDD9C"/>
<path d="M33.0142 22.9343C33.2794 22.9343 33.499 23.1726 33.503 23.4669C33.5071 23.7621 33.2819 24.0116 33.0129 24.0102C32.7497 24.0089 32.5253 23.7639 32.5232 23.4767C32.5212 23.1851 32.7477 22.9352 33.0142 22.9347V22.9343Z" fill="#EFDD9C"/>
<path d="M30.5036 25.6981C30.5024 25.4463 30.675 25.2797 30.8819 25.2739C31.0505 25.2694 31.2619 25.4181 31.2635 25.6963C31.2651 25.9243 31.0921 26.1138 30.8815 26.116C30.6669 26.1178 30.5032 25.9373 30.5036 25.6981Z" fill="#EFDD9C"/>
<path d="M30.0372 26.0439C30.0372 26.2307 29.8728 26.4072 29.7001 26.4054C29.5328 26.4036 29.3863 26.2392 29.3839 26.0502C29.381 25.8495 29.53 25.6842 29.7116 25.6855C29.8858 25.6869 30.0372 25.8535 30.0372 26.0434V26.0439Z" fill="#EFDD9C"/>
<path d="M28.7824 26.3212C28.7289 26.5357 28.6187 26.6459 28.4775 26.6258C28.3486 26.6074 28.2433 26.4771 28.2417 26.3342C28.2396 26.1756 28.3359 26.0466 28.471 26.0264C28.6163 26.0045 28.7244 26.107 28.7824 26.3216V26.3212Z" fill="#EFDD9C"/>
<path d="M27.2982 26.6956C27.1819 26.6939 27.0868 26.5868 27.0884 26.4587C27.0897 26.3337 27.1937 26.2231 27.3047 26.228C27.4141 26.2329 27.521 26.3525 27.5194 26.4676C27.5177 26.589 27.4129 26.6974 27.2982 26.6956Z" fill="#EFDD9C"/>
<path d="M35.3826 22.089C35.2043 22.089 35.0525 21.921 35.055 21.7262C35.057 21.5501 35.2153 21.375 35.3765 21.3709C35.5402 21.3665 35.7095 21.5528 35.7091 21.7374C35.7087 21.9291 35.5602 22.089 35.3826 22.089Z" fill="#EFDD9C"/>
<path d="M34.1874 20.5561C34.3478 20.5561 34.4665 20.6842 34.4661 20.8554C34.4661 21.0175 34.3339 21.164 34.1874 21.1653C34.0446 21.1667 33.8972 21.0135 33.8968 20.8634C33.8964 20.6999 34.0327 20.5557 34.1874 20.5561Z" fill="#EFDD9C"/>
<path d="M32.9872 20.6775C32.8526 20.6753 32.7473 20.5584 32.7501 20.4137C32.7526 20.2775 32.8644 20.1579 32.9884 20.1588C33.1145 20.1597 33.2382 20.2905 33.2361 20.4209C33.2341 20.5521 33.1109 20.6793 32.9876 20.6775H32.9872Z" fill="#EFDD9C"/>
<path d="M31.4222 20.458C31.421 20.3371 31.5014 20.239 31.6067 20.2336C31.7038 20.2287 31.8111 20.3461 31.8091 20.4562C31.8071 20.5638 31.7091 20.6722 31.6128 20.6739C31.51 20.6757 31.4235 20.5781 31.4222 20.4585V20.458Z" fill="#EFDD9C"/>
<path d="M30.5685 20.7922C30.5661 20.8822 30.4886 20.9656 30.411 20.9615C30.3355 20.9575 30.2592 20.8634 30.2637 20.7792C30.2674 20.7035 30.362 20.6094 30.4302 20.6139C30.5028 20.6188 30.571 20.7066 30.5685 20.7922Z" fill="#EFDD9C"/>
<path d="M26.7734 9.60884C26.7489 9.34769 26.9913 9.00053 27.3325 8.99292C27.6377 8.9862 27.9009 9.28319 27.8993 9.62452C27.8977 9.95734 27.6446 10.2328 27.3378 10.236C27.0215 10.2391 26.7734 9.96272 26.7734 9.60884Z" fill="#EFDD9C"/>
<path d="M31.8503 12.5971C31.6234 12.5962 31.421 12.3816 31.4275 12.1366C31.4345 11.8817 31.6079 11.6645 31.8585 11.6676C32.1054 11.6707 32.2759 11.8839 32.2808 12.1334C32.2861 12.3847 32.0841 12.5984 31.8503 12.5971Z" fill="#EFDD9C"/>
<path d="M31.1231 10.8935C30.9668 10.8944 30.8113 10.7197 30.8118 10.5446C30.8122 10.3672 30.9672 10.1974 31.1264 10.2001C31.2819 10.2028 31.4439 10.382 31.4422 10.5495C31.4406 10.7202 31.2806 10.8931 31.1235 10.894L31.1231 10.8935Z" fill="#EFDD9C"/>
<path d="M13.0481 9.62093C13.0477 9.28229 13.3023 8.99516 13.6067 8.99202C13.9075 8.98889 14.1731 9.2796 14.174 9.61242C14.1748 9.9551 13.9267 10.2315 13.6145 10.236C13.3056 10.2404 13.0485 9.96137 13.0481 9.62093Z" fill="#EFDD9C"/>
<path d="M9.08154 12.5971C8.86077 12.5953 8.65958 12.3803 8.66652 12.1406C8.67591 11.8293 8.86117 11.6721 9.0897 11.6685C9.33577 11.6649 9.51165 11.8736 9.51736 12.1393C9.52267 12.3919 9.31741 12.5989 9.08154 12.5971Z" fill="#EFDD9C"/>
<path d="M9.82628 10.8935C9.66672 10.8944 9.51002 10.7278 9.50594 10.5527C9.50186 10.3757 9.66183 10.1992 9.82587 10.2001C9.97645 10.2006 10.1323 10.373 10.1348 10.541C10.1372 10.7153 9.98176 10.8931 9.82669 10.8935H9.82628Z" fill="#EFDD9C"/>
<path d="M18.7493 29.5777C18.8799 29.5885 19.0134 29.6082 19.1195 29.7184C19.2345 29.838 19.2419 29.9818 19.1386 30.1135C18.9648 30.3356 18.5041 30.3222 18.3409 30.0906C18.2503 29.9621 18.2552 29.8649 18.3572 29.7435C18.4616 29.6194 18.5971 29.584 18.7493 29.5777Z" fill="#EFDD9C"/>
<path d="M22.2037 29.5773C22.3572 29.5853 22.4971 29.623 22.5987 29.7564C22.6987 29.8881 22.6902 30.0145 22.5726 30.1296C22.4486 30.251 22.2976 30.285 22.136 30.268C21.9968 30.2532 21.8691 30.2116 21.7838 30.0758C21.7157 29.9679 21.7218 29.8465 21.8005 29.7479C21.9087 29.6131 22.0548 29.5871 22.2037 29.5768V29.5773Z" fill="#EFDD9C"/>
<path d="M16.4168 5.80132C16.4172 6.01275 16.2613 6.18341 16.0674 6.18207C15.8438 6.18073 15.7157 5.99483 15.7136 5.80221C15.712 5.60243 15.8634 5.41654 16.0666 5.4246C16.2658 5.43266 16.4164 5.5872 16.4168 5.80132Z" fill="#EFDD9C"/>
<path d="M17.8814 5.96437C18.0148 5.96392 18.1172 6.07188 18.118 6.21343C18.1184 6.33885 18.0058 6.46159 17.8875 6.46383C17.7565 6.46607 17.6426 6.34378 17.6459 6.20402C17.6492 6.07098 17.7528 5.96482 17.8814 5.96437Z" fill="#EFDD9C"/>
<path d="M24.8811 5.42639C25.0786 5.42684 25.2268 5.58675 25.2256 5.79729C25.2239 6.01947 25.0693 6.18789 24.8689 6.18476C24.6853 6.18207 24.529 6.00513 24.5294 5.80042C24.5294 5.58362 24.6783 5.42549 24.8811 5.42639Z" fill="#EFDD9C"/>
<path d="M23.0587 5.96437C23.2027 5.96258 23.2888 6.05396 23.29 6.21029C23.2909 6.35005 23.1954 6.46069 23.0709 6.46383C22.9481 6.46696 22.8212 6.33482 22.8232 6.20581C22.8252 6.07635 22.9326 5.96616 23.0587 5.96437Z" fill="#EFDD9C"/>
<path d="M25.8854 37.2114C25.9932 37.3555 26.0828 37.4655 26.2629 37.4122C26.3237 37.4842 26.3846 37.5567 26.4286 37.6091C26.5738 37.6235 26.7041 37.5692 26.7841 37.6998C26.9566 37.6417 27.0155 37.8775 27.175 37.8525C27.2871 38.0009 27.4849 38.0787 27.5324 38.2785C27.5429 38.3236 27.5731 38.3438 27.5985 38.3712C27.6526 38.4297 27.7106 38.485 27.7738 38.5484C27.7738 38.6521 27.7752 38.763 27.7733 38.8739C27.7719 38.9383 27.77 38.9998 27.8337 39.042C27.8505 39.0531 27.8691 39.0795 27.8682 39.0977C27.8586 39.274 27.9199 39.4641 27.8006 39.6192C27.747 39.6893 27.8169 39.7772 27.7379 39.8353C27.6617 39.8906 27.6521 40.0063 27.5386 40.0404C27.4825 40.0572 27.439 40.1239 27.4332 40.2094C27.4294 40.2685 27.3958 40.3453 27.3331 40.3804C27.1563 40.4793 27.0481 40.6671 26.8646 40.7506C26.7731 40.7924 26.695 40.8423 26.614 40.9004C26.5412 40.9528 26.4377 40.9677 26.3525 41.0162C26.2897 41.0522 26.2169 41.0728 26.135 41.0704C25.8404 41.0623 25.5453 41.068 25.2507 41.0671C25.1822 41.0671 25.1209 41.0575 25.0523 41.0263C24.9594 40.9835 24.8516 40.947 24.7405 40.972C24.6447 40.9936 24.5709 40.9019 24.4732 40.9225C24.3759 40.9432 24.3041 40.8712 24.2198 40.8443C24.0923 40.8039 23.9438 40.7986 23.825 40.8419C23.7364 40.874 23.6602 40.8558 23.5846 40.8784C23.5553 40.8222 23.5558 40.765 23.5036 40.7434C23.5687 40.6051 23.6928 40.5557 23.792 40.498C23.9764 40.3905 24.0353 40.2368 24.0406 40.0433C24.0435 39.9395 24.0406 39.8353 24.0406 39.7316C24.0406 39.516 24.0526 39.2994 24.0373 39.0848C24.0224 38.8787 24.1153 38.6857 24.088 38.4811C24.078 38.4067 24.1125 38.3299 24.0468 38.2559C24.0229 38.229 24.0272 38.1435 24.0693 38.0801C24.1115 38.0168 24.1153 37.9279 24.0353 37.8722C23.9778 37.8319 23.9932 37.7747 23.9932 37.7214C23.9922 37.4736 23.9932 37.2258 23.9922 36.9785C23.9922 36.9027 23.9793 36.8321 23.9534 36.7557C23.9237 36.6674 23.8729 36.5728 23.8955 36.4666C23.9122 36.3864 23.8749 36.3192 23.7896 36.3202C23.699 36.3216 23.678 36.2414 23.6032 36.2039C23.6574 36.1497 23.7062 36.1031 23.7522 36.0536C23.7963 36.0061 23.8394 35.9605 23.9137 35.9802C23.9285 35.984 23.9539 35.9874 23.9601 35.9802C24.0818 35.8303 24.2499 35.8942 24.3999 35.887C24.5671 35.8793 24.7347 35.8836 24.9019 35.886C24.9541 35.887 25.0116 35.8654 25.0571 35.9173C25.0691 35.9307 25.107 35.9398 25.1204 35.9312C25.3 35.8135 25.4773 35.9816 25.6559 35.9331C25.7359 35.9115 25.7925 35.9922 25.8753 35.984C25.94 35.9778 26.0143 35.9552 26.0751 36.0224C26.0933 36.0426 26.1518 36.034 26.1896 36.0277C26.3242 36.0056 26.4425 36.0839 26.5762 36.0834C26.6576 36.0834 26.7007 36.178 26.7391 36.2577C26.7697 36.3211 26.7669 36.36 26.7381 36.4248C26.6591 36.6025 26.5355 36.7442 26.4124 36.8883C26.3937 36.9103 26.3788 36.9425 26.3391 36.9411C26.1336 36.9329 26.043 37.1096 25.8854 37.2114ZM25.9616 40.7314C26.0679 40.7314 26.1556 40.7329 26.2433 40.7304C26.273 40.7295 26.3017 40.7396 26.3324 40.7151C26.4555 40.6171 26.5877 40.5336 26.7237 40.4524C26.8804 40.3588 26.9259 40.1585 27.0001 39.9976C27.0356 39.9208 27.0519 39.832 27.095 39.7494C27.1918 39.563 27.2239 39.3546 27.1927 39.1477C27.1831 39.0848 27.1472 39.0209 27.1515 38.9513C27.1563 38.8778 27.1496 38.811 27.0811 38.7645C27.0423 38.738 27.0198 38.6732 27.0198 38.6497C27.0198 38.5267 26.9379 38.4571 26.8579 38.4062C26.7649 38.3471 26.6763 38.2799 26.5724 38.2329C26.3774 38.1445 26.1604 38.0917 26.0061 37.9274C25.9807 37.9005 25.9525 37.8991 25.9213 37.901C25.8318 37.9063 25.7589 37.8703 25.6962 37.8098C25.6684 37.7829 25.6473 37.7502 25.5985 37.7565C25.3 37.7939 25.0088 37.6921 24.7108 37.708C24.5412 37.7171 24.5201 37.7291 24.5197 37.8943C24.5187 38.3812 24.5216 38.8682 24.5173 39.3551C24.5168 39.4368 24.5551 39.5294 24.477 39.6019C24.4679 39.6106 24.4756 39.6466 24.4852 39.6644C24.546 39.7772 24.5422 39.9078 24.5949 40.0265C24.6385 40.1244 24.648 40.2531 24.5771 40.3616C24.4952 40.4875 24.5043 40.5273 24.6116 40.6114C24.6567 40.6469 24.7022 40.6378 24.7453 40.6339C24.8574 40.6229 24.9527 40.6743 25.0476 40.7141C25.1592 40.7607 25.2823 40.6877 25.3862 40.7617C25.4442 40.803 25.5237 40.7972 25.5673 40.7746C25.7034 40.7045 25.8437 40.7482 25.9611 40.7319L25.9616 40.7314ZM24.5197 36.9862C24.5197 37.0357 24.5197 37.0597 24.5197 37.0832C24.5211 37.3195 24.5647 37.3565 24.7989 37.3257C24.8248 37.3224 24.8392 37.3056 24.8593 37.2979C24.9283 37.2715 24.9987 37.2354 25.0696 37.2321C25.2253 37.2244 25.3546 37.1562 25.494 37.1C25.6473 37.0381 25.7829 36.9675 25.8888 36.8402C25.9089 36.8157 25.9348 36.7965 25.9462 36.7855V36.4551C25.8318 36.4441 25.7877 36.3014 25.6655 36.3192C25.5534 36.3355 25.4643 36.2582 25.3503 36.2649C25.0969 36.2793 24.842 36.2693 24.6025 36.2693C24.5513 36.3154 24.5101 36.3523 24.4684 36.3898C24.4952 36.5583 24.4392 36.7077 24.3783 36.8446C24.4325 36.8988 24.4828 36.9492 24.5201 36.9867L24.5197 36.9862Z" fill="#EFDD9C"/>
<path d="M21.5524 39.5088C21.367 39.3138 21.1615 39.1625 20.9579 39.0079C20.9517 39.0031 20.946 38.9974 20.9412 38.9911C20.8674 38.9008 20.7347 39.0142 20.6652 38.9104C20.6058 39.0118 20.4722 38.9085 20.3965 39.0247C20.3084 39.1606 20.1824 39.2706 20.213 39.4536C20.2231 39.5131 20.1862 39.5515 20.1479 39.5683C20.0928 39.5919 20.0252 39.5991 19.9725 39.5544C19.9237 39.5136 19.8815 39.4651 19.8365 39.4195C19.7987 39.249 19.8681 39.1208 19.9907 39.0094C20.0731 38.934 20.1493 38.8519 20.2375 38.7635C20.3476 38.7808 20.453 38.7592 20.5474 38.6727C20.5785 38.6444 20.6279 38.6007 20.6921 38.6194C20.7285 38.63 20.7654 38.6228 20.7979 38.5877C20.9019 38.4778 21.0154 38.5234 21.1385 38.5613C21.2894 38.6084 21.3824 38.7184 21.4868 38.8197C21.5371 38.8682 21.5778 38.933 21.6655 38.9104C21.6851 38.9052 21.7191 38.9095 21.7302 38.9229C21.859 39.0752 22.0305 39.0612 22.1891 39.0497C22.3409 38.9532 22.4094 38.7961 22.5215 38.6771C22.5872 38.6074 22.5752 38.5143 22.5369 38.4365C22.4396 38.2377 22.4358 38.2396 22.5853 38.0883C22.5963 38.0768 22.6078 38.0657 22.6193 38.0542C22.7802 38.0941 22.8784 38.1988 22.9762 38.3332C23.0662 38.4576 23.0135 38.5752 23.0341 38.6943C22.9316 38.738 22.9666 38.8634 22.8981 38.9253C22.7989 39.0146 22.7251 39.1309 22.6044 39.1976C22.5005 39.2548 22.42 39.3508 22.2806 39.3455C22.2011 39.3426 22.1469 39.4147 22.1268 39.4963C22.1158 39.54 22.122 39.5837 22.1053 39.6312C22.02 39.8757 21.9213 40.05 21.746 40.2257C21.6669 40.305 21.5874 40.3837 21.5093 40.4635C21.4648 40.5086 21.425 40.5576 21.3493 40.5417C21.3201 40.5355 21.2885 40.536 21.2636 40.5643C21.2066 40.6282 21.1342 40.681 21.0504 40.6805C20.9551 40.68 20.9369 40.8068 20.8252 40.789C20.7802 40.7818 20.7194 40.8716 20.6571 40.9245C20.5623 40.923 20.453 40.9129 20.3625 40.9888C20.3448 41.0037 20.3323 41.0215 20.3036 41.021C19.9984 41.0162 19.6957 41.1151 19.3915 41.0632C19.2339 41.0363 19.1012 40.9096 18.9297 40.9105C18.8703 40.791 18.7055 40.789 18.6537 40.645C18.6288 40.5758 18.5704 40.5192 18.5843 40.4342C18.5967 40.3583 18.568 40.3016 18.5115 40.2478C18.4353 40.1758 18.4271 40.1043 18.4396 39.9818C18.4463 39.9136 18.4573 39.8406 18.3864 39.7883C18.317 39.7364 18.3285 39.6519 18.3591 39.5962C18.4707 39.395 18.5258 39.1693 18.6695 38.9786C18.7749 38.8384 18.9052 38.7284 19.0164 38.5983C19.0858 38.5167 19.1778 38.4514 19.2056 38.3409C19.2204 38.2809 19.2535 38.254 19.3124 38.2353C19.3718 38.216 19.4164 38.1627 19.4442 38.108C19.4801 38.0364 19.4111 37.8794 19.3182 37.8583C19.1721 37.8252 19.0815 37.7565 19.0633 37.6043C18.933 37.5073 18.9761 37.3656 18.9666 37.2364C18.9531 37.0539 19.0442 36.9204 19.1467 36.7821C19.2813 36.6006 19.5069 36.5415 19.6511 36.3768C19.7987 36.3855 19.8715 36.2284 20.0176 36.216C20.099 36.2092 20.1805 36.1415 20.2523 36.0978C20.3836 36.0176 20.5124 35.9792 20.6609 35.9821C20.7567 35.984 20.8521 35.9821 20.9479 35.9821C21.0284 36.0364 21.0715 36.1492 21.1984 36.1348C21.2152 36.1329 21.2664 36.1732 21.266 36.2222C21.265 36.3019 21.2698 36.3826 21.2645 36.4618C21.2602 36.5243 21.1927 36.5656 21.1338 36.5444C20.9896 36.4935 20.8454 36.4527 20.6892 36.4604C20.546 36.4671 20.4022 36.4623 20.2585 36.4618C20.0688 36.4613 19.9093 36.5257 19.7594 36.6462C19.6272 36.7524 19.4945 36.8494 19.4078 37.0016C19.3373 37.125 19.3421 37.1884 19.4082 37.3152C19.4897 37.4708 19.6113 37.5447 19.7742 37.5846C19.8878 37.6124 19.9927 37.6936 20.1057 37.7032C20.3275 37.7224 20.5555 37.7334 20.7735 37.6998C20.9105 37.6787 21.0581 37.6734 21.185 37.6033C21.232 37.6926 21.2918 37.767 21.2473 37.9135C21.2281 37.9298 21.1721 37.974 21.1208 38.023C21.0399 38.1003 20.9508 38.1522 20.8343 38.1407C20.705 38.1277 20.5747 38.1623 20.4449 38.0974C20.3658 38.0581 20.0856 38.1709 19.9697 38.2088C19.8604 38.2444 19.7833 38.3082 19.7052 38.3808C19.5673 38.3399 19.5357 38.4955 19.4327 38.533C19.3445 38.5652 19.2813 38.6684 19.208 38.7409C19.1285 38.8197 19.0499 38.8989 18.9675 38.9815C18.9728 39.1174 18.9838 39.2586 18.8727 39.369C18.8751 39.5837 18.8305 39.8142 18.9814 39.9938C19.071 40.1004 19.1112 40.2325 19.2027 40.3376C19.2631 40.4073 19.2933 40.4971 19.4063 40.4932C19.4188 40.4932 19.4327 40.5057 19.4446 40.5144C19.4954 40.5509 19.5218 40.6358 19.5855 40.632C19.7297 40.6238 19.8394 40.7295 19.9769 40.7314C20.1043 40.7333 20.2322 40.7333 20.3596 40.7314C20.4272 40.7304 20.4348 40.6243 20.5115 40.6368C20.624 40.6555 20.7117 40.6195 20.7773 40.5264C20.7864 40.5134 20.8032 40.4923 20.8104 40.4942C20.9469 40.535 21.0001 40.4092 21.093 40.3631C21.1979 40.3107 21.2588 40.2224 21.3397 40.1523C21.494 40.0188 21.5481 39.8397 21.552 39.6413C21.5529 39.6015 21.552 39.5616 21.552 39.5097L21.5524 39.5088Z" fill="#EFDD9C"/>
<path d="M10.4688 46.7322C10.6714 46.7053 10.8568 46.8085 11.0532 46.7778C11.0757 46.7744 11.1002 46.7744 11.1165 46.798C11.2103 46.9319 11.3598 46.8906 11.4657 46.8642C11.6285 46.8239 11.7699 46.8369 11.9318 46.8642C12.1488 46.9007 12.3763 46.8733 12.5996 46.8733C12.7083 46.7432 12.8453 46.8306 12.9694 46.8152C13.0566 46.8047 13.1481 46.7677 13.2372 46.7807C13.3373 46.7951 13.4044 46.7014 13.5126 46.7326C13.5126 46.5204 13.5117 46.3221 13.5131 46.1242C13.5136 46.0445 13.5217 45.9657 13.4413 45.9139C13.4001 45.8875 13.4178 45.8418 13.4173 45.8044C13.4159 45.6526 13.4163 45.5009 13.4173 45.3491C13.4173 45.3184 13.4116 45.2766 13.4283 45.2589C13.5438 45.135 13.6755 45.036 13.847 45.0024C13.9486 44.9823 13.9759 45.0783 14.0405 45.123C14.0286 45.2382 14.0784 45.3703 14.018 45.4702C13.9524 45.5787 14.0554 45.7122 13.9433 45.7996C13.9596 45.9033 13.8954 46.0253 14.0142 46.106C14.0549 46.1333 14.041 46.1785 14.0377 46.215C14.0271 46.3369 14.0717 46.4642 13.9936 46.5804C13.9749 46.6078 13.9907 46.6587 13.9907 46.6985C13.9907 47.002 13.9888 47.306 13.9922 47.6095C13.9931 47.6763 13.9672 47.7473 14.0319 47.8102C14.0559 47.8338 14.0463 47.9034 14.0372 47.9485C14.004 48.1073 14.004 48.2701 14.0372 48.4369C14.0449 48.4753 14.0381 48.5166 14.0381 48.5565C14.0381 48.7323 14.0482 48.909 14.0348 49.0838C14.0238 49.2259 14.1225 49.3513 14.0822 49.4886C13.9984 49.5962 13.8738 49.6624 13.8259 49.7955C13.8187 49.8156 13.7895 49.8468 13.7771 49.844C13.675 49.8199 13.6295 49.9145 13.5514 49.9606C13.5122 49.9213 13.4781 49.8901 13.4475 49.8555C13.3929 49.7945 13.3924 49.7081 13.4389 49.6653C13.5241 49.587 13.5102 49.4977 13.5112 49.405C13.5122 49.2931 13.5237 49.1793 13.5083 49.0698C13.4868 48.9176 13.5385 48.7769 13.5639 48.6348C13.6123 48.3692 13.6228 48.3327 13.5615 48.0494C13.55 47.9961 13.5591 47.938 13.5591 47.8823C13.5591 47.6825 13.5615 47.4827 13.5581 47.283C13.5562 47.1855 13.5107 47.1639 13.4111 47.1884C13.2415 47.2292 13.0681 47.2225 12.9004 47.1884C12.8592 47.1802 12.8142 47.162 12.7696 47.162C12.0525 47.161 11.3349 47.1605 10.6178 47.162C10.4788 47.162 10.4501 47.1893 10.4487 47.3214C10.4463 47.5293 10.4511 47.7368 10.4463 47.9447C10.4448 48.0206 10.4774 48.1037 10.4194 48.1723C10.4055 48.1891 10.3974 48.1963 10.4137 48.2069C10.5402 48.2905 10.4927 48.4201 10.4942 48.5325C10.499 48.884 10.4961 49.235 10.4961 49.5856C10.373 49.7023 10.2733 49.8478 10.0808 49.8617C10.0429 49.8646 10.0233 49.9338 9.95381 49.9501C9.89393 49.8881 9.8671 49.8094 9.87333 49.7143C9.87764 49.6456 9.88003 49.5827 9.91596 49.5155C9.94518 49.4607 9.90686 49.3738 9.98494 49.3287C10.0386 49.2979 10.029 49.2355 10.0142 49.2C9.93512 49.0098 9.97441 48.8125 9.97297 48.6194C9.97201 48.5066 9.92602 48.3831 10.0151 48.278C10.0218 48.2698 10.0055 48.2348 9.99261 48.2184C9.94614 48.1613 9.95668 48.0883 9.97345 48.0374C10.0649 47.7584 9.99357 47.4736 10.017 47.1932C9.90973 47.0198 10.0137 46.8148 9.9289 46.6304C9.88626 46.5382 9.91644 46.4099 9.92267 46.2981C9.92938 46.1804 9.91309 46.0675 9.87285 45.9585C9.79476 45.7472 9.8144 45.4678 9.87045 45.2541C9.88195 45.2104 9.90399 45.1719 9.93369 45.1628C10.006 45.1412 10.052 45.0913 10.098 45.0399C10.1287 45.0053 10.1622 45.002 10.2029 45.0024C10.2489 45.0024 10.3045 45.0221 10.3203 44.9448C10.3672 44.9943 10.4051 45.0346 10.4482 45.0802C10.4482 45.2238 10.4439 45.3756 10.4501 45.5263C10.453 45.6008 10.4247 45.6767 10.4908 45.7511C10.5224 45.7866 10.5229 45.9019 10.4908 45.9326C10.4065 46.0147 10.4884 46.1209 10.4285 46.1977C10.3672 46.276 10.4146 46.3662 10.4008 46.4498C10.3849 46.5444 10.417 46.6304 10.4673 46.7326L10.4688 46.7322Z" fill="#EFDD9C"/>
<path d="M23.7129 46.5482C23.8964 46.6438 24.0013 46.798 24.1929 46.7792C24.2102 46.7778 24.2303 46.8032 24.248 46.8167C24.3342 46.883 24.4353 46.9238 24.5393 46.9175C24.7357 46.906 24.9211 47.0011 25.117 46.9679C25.1654 46.9598 25.1855 46.9948 25.2162 47.0184C25.2818 47.0688 25.3647 47.0952 25.4126 47.1764C25.4839 47.1039 25.5745 47.0957 25.6463 47.075C25.7469 47.0462 25.8854 47.0198 25.9668 47.149C26.0689 47.1557 26.1091 47.2993 26.2289 47.2676C26.3999 47.3752 26.5604 47.4875 26.5795 47.718C26.5853 47.7896 26.625 47.8583 26.6485 47.9284C26.7232 48.1526 26.683 48.2607 26.4804 48.386C26.4669 48.3942 26.4574 48.4081 26.4392 48.4268C26.5517 48.544 26.5896 48.6693 26.4521 48.7976C26.4253 48.9892 26.2547 49.0948 26.1738 49.2567C26.1311 49.3421 26.0368 49.4151 25.9357 49.4723C25.8475 49.5222 25.7537 49.5837 25.6765 49.6639C25.6114 49.7316 25.4839 49.7181 25.4322 49.8199C25.3048 49.8348 25.221 49.976 25.0768 49.9438C24.7524 50.0418 24.4205 49.9808 24.0923 49.9856C23.9831 49.9871 23.8705 49.9313 23.7536 49.9438C23.746 49.9448 23.733 49.9472 23.7306 49.9438C23.6157 49.7758 23.4384 49.8795 23.2885 49.8406C23.1879 49.7138 23.0552 49.6451 22.8909 49.6005C22.7635 49.5659 22.6523 49.4627 22.568 49.3517C22.649 49.15 22.6854 48.9123 22.946 48.8403C22.9819 48.8403 23.013 48.8749 23.0145 48.8946C23.036 49.1558 23.2947 49.2202 23.4202 49.394C23.4365 49.4161 23.459 49.418 23.483 49.4161C23.5476 49.4118 23.6099 49.4108 23.6487 49.478C23.6665 49.5088 23.6962 49.5203 23.7302 49.5116C23.8499 49.4809 23.9491 49.5918 24.0693 49.5611C24.0909 49.5558 24.1172 49.5549 24.1326 49.5798C24.1958 49.6797 24.2959 49.6552 24.3879 49.6557C24.5311 49.6567 24.6748 49.6552 24.8181 49.6562C24.8813 49.6567 24.946 49.6634 24.9848 49.5971C25.0159 49.5443 25.0686 49.5568 25.1127 49.5616C25.2574 49.577 25.3575 49.5049 25.4595 49.4132C25.5831 49.3023 25.6622 49.1563 25.7781 49.0406C25.8475 48.9714 25.7996 48.8682 25.8542 48.7836C25.9376 48.6545 25.9304 48.483 26.0305 48.3538C26.0765 48.2948 26.0717 48.2011 26.0444 48.1507C25.9989 48.0662 25.9764 47.9658 25.9002 47.8981C25.7589 47.7718 25.5893 47.6892 25.4284 47.5932C25.3091 47.6143 25.2847 47.4847 25.1869 47.4434C25.0844 47.5212 24.9728 47.622 24.8286 47.4991C24.8171 47.4895 24.7836 47.489 24.7649 47.514C24.7376 47.5495 24.6964 47.5682 24.6686 47.5245C24.6092 47.4318 24.5201 47.4491 24.4353 47.4496C24.1192 47.452 23.849 47.3339 23.608 47.136C23.5783 47.112 23.5596 47.0784 23.5184 47.063C23.4255 47.0285 23.3584 46.9679 23.3699 46.8551C23.2157 46.6808 23.2861 46.4685 23.277 46.2716C23.2736 46.1967 23.3306 46.1353 23.3757 46.0738C23.5093 45.8913 23.5079 45.8899 23.5132 45.7525C23.6597 45.5624 23.8672 45.4505 24.0502 45.3112C24.1033 45.2709 24.1627 45.2353 24.213 45.1883C24.2298 45.1729 24.2514 45.146 24.2667 45.1479C24.4095 45.1695 24.4952 45.0394 24.6207 45.0178C24.7381 44.9976 24.854 44.9736 24.9627 44.9194C25.0011 44.9001 25.0542 44.9069 25.1002 44.9064C25.2358 44.9049 25.3738 44.9222 25.506 44.9021C25.6928 44.8733 25.849 44.9597 26.0162 45.0044C26.1014 45.0269 26.1326 45.1667 26.0713 45.2397C26.0382 45.279 26.0119 45.3367 25.9457 45.3376C25.9228 45.3376 25.8873 45.3319 25.8782 45.3443C25.7551 45.5047 25.6353 45.4313 25.5242 45.3367C25.3134 45.1571 25.0605 45.1787 24.8186 45.2022C24.7108 45.2128 24.6111 45.3112 24.5086 45.3717C24.4765 45.3909 24.4626 45.4322 24.4147 45.4351C24.2504 45.4452 24.1369 45.5609 24.0693 45.6815C24.0118 45.7842 23.8677 45.839 23.8868 45.9902C23.8897 46.0147 23.8365 46.0483 23.8063 46.0743C23.7436 46.1281 23.7407 46.179 23.7776 46.2572C23.8202 46.3475 23.8394 46.4532 23.711 46.5482H23.7129Z" fill="#EFDD9C"/>
<path d="M15.1878 36.4849C15.1878 36.4052 15.1878 36.325 15.1878 36.2448C15.2611 36.1718 15.3253 36.0849 15.4101 36.0287C15.4949 35.972 15.5715 35.9105 15.6343 35.8452C15.709 35.9163 15.7833 35.9869 15.858 36.058C15.813 36.1756 15.9941 36.2136 15.9538 36.3298C16.0875 36.4556 16.0741 36.6486 16.1651 36.7936C16.1766 36.8124 16.1948 36.8359 16.1914 36.8537C16.1588 37.016 16.2561 37.1274 16.3313 37.2527C16.3874 37.3469 16.4539 37.4391 16.44 37.5706C16.4329 37.6398 16.4961 37.7209 16.5392 37.7887C16.5799 37.852 16.6436 37.9178 16.6614 37.9769C16.6824 38.048 16.7351 38.097 16.7514 38.1555C16.7912 38.3001 16.9157 38.4096 16.9119 38.5695C16.91 38.6449 16.989 38.6756 17.0197 38.7395C17.0599 38.8235 17.1289 38.9138 17.2012 38.9724C17.3009 39.0531 17.2693 39.199 17.3804 39.2639C17.3957 39.2725 17.3886 39.3229 17.389 39.3537C17.39 39.4564 17.389 39.5592 17.389 39.6485C17.4504 39.7321 17.5423 39.746 17.6017 39.8113C17.652 39.867 17.595 39.9544 17.6813 39.9986C17.7402 40.0289 17.7833 40.0855 17.7775 40.1739C17.7742 40.2257 17.8571 40.2536 17.8757 40.3232C17.892 40.3837 17.9878 40.4226 18.0056 40.4836C18.029 40.5648 18.0113 40.6579 18.0113 40.7362C17.9227 40.8246 17.8389 40.9086 17.7363 41.0109H17.5519C17.5318 40.9494 17.4983 40.8808 17.4882 40.8087C17.4796 40.7449 17.4705 40.6954 17.4254 40.6406C17.3612 40.5624 17.3162 40.4654 17.2932 40.3616C17.2401 40.122 17.0915 39.915 17.0542 39.6697C16.9248 39.565 16.9129 39.3887 16.8123 39.2672C16.7423 39.1827 16.6417 39.1587 16.5713 39.2312C16.4741 39.3316 16.3476 39.3177 16.2652 39.2802C16.1224 39.2154 15.9768 39.2274 15.8518 39.2557C15.7359 39.2821 15.6242 39.2864 15.5102 39.2908C15.3512 39.2965 15.1826 39.2596 15.034 39.2999C14.807 39.3618 14.5823 39.3177 14.349 39.3474C14.3461 39.3493 14.3346 39.3594 14.3222 39.3681C14.1943 39.4531 14.1555 39.6039 14.0664 39.7167C13.9533 39.8598 13.9231 40.0476 13.8 40.1825C13.8384 40.3784 13.6429 40.5038 13.6472 40.6988C13.6491 40.7708 13.5504 40.8471 13.4934 40.9182C13.4489 40.9739 13.3972 41.0239 13.3612 41.0623C13.3042 41.0762 13.286 41.0479 13.2592 41.0325C13.114 40.9461 13.0906 40.875 13.1653 40.7208C13.2146 40.6186 13.2764 40.5259 13.3483 40.4361C13.4321 40.3319 13.5399 40.232 13.5136 40.0735C13.5107 40.0548 13.5236 40.0192 13.5375 40.0144C13.6319 39.9799 13.6429 39.8867 13.6908 39.818C13.7296 39.7623 13.7349 39.7071 13.7564 39.6519C13.8019 39.5352 13.8642 39.4199 13.9433 39.3239C14.0012 39.2533 13.9878 39.1664 14.0352 39.0958C14.0798 39.03 14.1416 38.9791 14.144 38.8739C14.1459 38.7789 14.2321 38.6847 14.3116 38.6122C14.3552 38.5728 14.3629 38.5253 14.3778 38.4706C14.4142 38.3356 14.4621 38.2031 14.5133 38.072C14.5627 37.9462 14.6388 37.8271 14.613 37.6816C14.6115 37.6739 14.6096 37.6614 14.613 37.658C14.7461 37.5572 14.6824 37.3637 14.8008 37.2561C14.8185 37.2402 14.8525 37.2158 14.8487 37.2062C14.8089 37.0971 14.9521 37.0631 14.943 36.9819C14.933 36.8964 15.0072 36.8398 14.9948 36.7615C14.9699 36.6059 15.0642 36.5363 15.1869 36.4854L15.1878 36.4849ZM14.7078 38.1493C14.715 38.3222 14.6858 38.4571 14.5881 38.5786C14.5378 38.6415 14.5081 38.7212 14.5162 38.8115C14.5272 38.9373 14.5837 38.9911 14.6954 38.9412C14.7878 38.8999 14.8707 38.8898 14.954 38.9412C14.9861 38.9609 15.0144 38.9561 15.0436 38.9551C15.4982 38.9421 15.9553 38.994 16.408 38.909C16.4884 38.8936 16.5248 38.8615 16.5272 38.7712C16.5301 38.6612 16.5277 38.5508 16.5277 38.447C16.35 38.3515 16.3198 38.3217 16.2915 38.1565C16.282 38.1003 16.2451 38.0773 16.2154 38.0441C16.0832 37.8957 16.0065 37.7166 15.9591 37.5293C15.9428 37.4645 15.9203 37.4189 15.881 37.3689C15.7881 37.2523 15.6999 37.1356 15.6606 36.9819C15.6362 36.8873 15.583 36.7821 15.4671 36.7471C15.4264 36.773 15.3962 36.7999 15.377 36.8479C15.3335 36.9574 15.299 37.0856 15.219 37.1605C15.1409 37.233 15.1658 37.3387 15.0925 37.3992C15.139 37.55 14.9483 37.6379 14.99 37.7872C14.876 37.8914 14.8755 38.0797 14.7078 38.1493Z" fill="#EFDD9C"/>
<path d="M16.6302 45.3549C16.5924 45.2176 16.6408 45.1071 16.7519 45.0466C16.8784 44.9775 16.9579 44.8401 17.1275 44.806C17.1581 44.8809 17.1931 44.9611 17.2405 45.0341C17.3023 45.1287 17.3871 45.2267 17.389 45.354C17.389 45.3861 17.3857 45.4207 17.4183 45.4375C17.5596 45.51 17.5447 45.6637 17.5735 45.7799C17.6262 45.9936 17.6827 46.201 17.8264 46.3706C17.8695 46.4215 17.8686 46.469 17.8671 46.5223C17.8638 46.6352 17.8839 46.724 17.9687 46.8196C18.052 46.9142 18.1555 47.0174 18.1584 47.1701C18.1598 47.235 18.2753 47.257 18.2509 47.3464C18.3682 47.4592 18.3217 47.6662 18.4832 47.7536C18.5517 47.9265 18.6801 48.0652 18.7467 48.2444C18.7836 48.3433 18.7409 48.4321 18.8128 48.5541C18.8985 48.6088 18.9507 48.7563 19.058 48.8581C19.0504 48.9921 19.1591 49.0723 19.2051 49.1808C19.2396 49.2615 19.3105 49.3124 19.3594 49.3777C19.4331 49.4761 19.4604 49.5664 19.4432 49.6836C19.3455 49.7815 19.2439 49.8833 19.1356 49.9919C19.1112 49.9919 19.0801 49.9914 19.0494 49.9919C18.9613 49.9938 18.9124 49.9501 18.922 49.8632C18.9378 49.722 18.8578 49.6144 18.7917 49.5097C18.7376 49.4242 18.6729 49.3513 18.681 49.2427C18.682 49.2274 18.6834 49.2009 18.6772 49.1981C18.5503 49.1428 18.6068 49.0036 18.5474 48.9138C18.4918 48.8302 18.4674 48.7227 18.4449 48.6223C18.4233 48.5267 18.3443 48.4739 18.3007 48.3947C18.2537 48.3082 18.2025 48.228 18.1919 48.1185C18.1498 48.1224 18.0918 48.1118 18.0784 48.1315C18.0123 48.2285 17.9194 48.2184 17.824 48.2175C17.6645 48.2151 17.505 48.2127 17.3455 48.2184C17.2712 48.2213 17.1874 48.1829 17.1232 48.2621C17.1107 48.278 17.0614 48.2597 17.0302 48.265C16.9249 48.2837 16.8358 48.1632 16.7227 48.2348C16.6226 48.2981 16.5076 48.2492 16.4003 48.264C16.3409 48.2722 16.2767 48.241 16.2231 48.3015C16.2001 48.3274 16.1459 48.3241 16.1138 48.3025C15.9423 48.1887 15.8005 48.2852 15.6779 48.3822C15.5979 48.4456 15.5126 48.544 15.4863 48.6338C15.4513 48.7515 15.3675 48.8249 15.3186 48.9253C15.299 48.9652 15.2554 49.0026 15.2549 49.0415C15.252 49.2082 15.138 49.3306 15.0963 49.4804C15.0853 49.5193 15.0834 49.5577 15.0484 49.5803C14.9703 49.6303 15.0044 49.7081 14.9977 49.7762C14.9301 49.8435 14.8626 49.9112 14.7811 49.9919C14.7653 49.9919 14.7351 49.9919 14.705 49.9919C14.6432 49.9909 14.5689 50.0087 14.5382 49.9362C14.5047 49.8564 14.4913 49.7681 14.5541 49.6951C14.6532 49.5789 14.7217 49.4415 14.818 49.3224C14.8836 49.2418 14.9871 49.1558 14.9512 49.0194C14.9435 48.9901 14.9488 48.9604 14.9751 48.9335C15.0341 48.8739 15.1189 48.8269 15.0944 48.7198C15.1797 48.6737 15.1783 48.5796 15.2142 48.5061C15.2702 48.3927 15.3359 48.2847 15.3991 48.1752C15.4106 48.1555 15.436 48.1426 15.4278 48.1152C15.3972 48.0095 15.4757 47.9586 15.5327 47.8943C15.5926 47.8271 15.5716 47.7113 15.6664 47.6614C15.6731 47.6575 15.6621 47.622 15.6698 47.6172C15.8053 47.5255 15.8322 47.3939 15.812 47.2431C15.8092 47.2215 15.8096 47.1898 15.8226 47.1768C15.9074 47.0918 15.9462 46.9958 15.962 46.8719C15.9754 46.7653 16.0525 46.6683 16.0516 46.5511C16.0506 46.4637 16.1613 46.434 16.1565 46.3264C16.1536 46.2625 16.2484 46.1895 16.2825 46.1189C16.3126 46.056 16.2839 45.9648 16.3625 45.9124C16.4032 45.8851 16.3883 45.839 16.3845 45.803C16.3701 45.6589 16.4286 45.5484 16.5316 45.4553C16.5613 45.4284 16.5881 45.3991 16.6322 45.3549H16.6302ZM15.9534 47.9289H16.9344C17.0379 47.9289 17.1601 47.9634 17.241 47.9202C17.3498 47.8621 17.4264 47.9471 17.517 47.9293C17.5399 47.925 17.5783 47.9385 17.5864 47.9269C17.6808 47.7934 17.8283 47.8515 17.9505 47.8203C17.9788 47.8131 18.0046 47.7944 18.0214 47.7862C17.9883 47.7363 17.9687 47.719 17.9644 47.6984C17.9308 47.5332 17.8777 47.3829 17.7555 47.2546C17.7086 47.2057 17.6444 47.1423 17.6334 47.0698C17.6243 47.0102 17.6132 46.9598 17.5639 46.9305C17.4604 46.8695 17.5117 46.7139 17.3953 46.6635C17.3934 46.5924 17.3919 46.5214 17.389 46.4503C17.3886 46.4359 17.3823 46.4215 17.3785 46.4071C17.322 46.3504 17.265 46.2947 17.2099 46.2371C17.184 46.2097 17.1529 46.19 17.1486 46.1425C17.1375 46.02 17.0465 45.9297 17.0072 45.8178C16.9876 45.7621 16.9584 45.7252 16.8928 45.7213C16.8252 45.717 16.7912 45.7578 16.7687 45.8078C16.7021 45.9561 16.6379 46.1055 16.5589 46.2486C16.5095 46.3379 16.4951 46.446 16.4329 46.5314C16.4702 46.6693 16.3706 46.7605 16.3193 46.8681C16.2896 46.931 16.2513 46.9857 16.202 47.0357C16.1373 47.1019 16.0836 47.1812 16.0995 47.2791C16.1134 47.3656 16.0736 47.4381 16.0271 47.488C15.9663 47.5538 15.9471 47.6167 15.9529 47.6998C15.9577 47.7704 15.9538 47.8419 15.9538 47.9293L15.9534 47.9289Z" fill="#EFDD9C"/>
<path d="M28.1091 47.7142C28.1091 48.0672 28.1206 48.4038 28.1058 48.739C28.0928 49.0237 28.2006 49.2984 28.1475 49.5981C28.0919 49.6528 28.021 49.7177 27.9558 49.7878C27.8811 49.8684 27.7676 49.8747 27.6804 49.9381C27.6282 49.976 27.5233 49.9606 27.4869 49.8617C27.4701 49.8079 27.5434 49.7935 27.5362 49.7373C27.4984 49.4459 27.5918 49.1611 27.5836 48.8696C27.5697 48.3956 27.6574 47.9255 27.6344 47.4501C27.6253 47.2633 27.5534 47.0842 27.5817 46.8945C27.5942 46.8124 27.5812 46.7326 27.6219 46.6467C27.6521 46.5828 27.6545 46.4781 27.6085 46.396C27.564 46.3163 27.575 46.2375 27.6057 46.1525C27.6521 46.0229 27.6684 45.8918 27.5348 45.7957C27.5348 45.6987 27.5348 45.6027 27.5348 45.5067C27.484 45.4558 27.4313 45.4068 27.3829 45.3535C27.3249 45.2896 27.3249 45.2382 27.3896 45.1744C27.4485 45.1158 27.4916 45.0245 27.6013 45.0509C27.7407 44.9472 27.9022 44.9515 28.0641 44.9544C28.1676 44.9563 28.2725 44.9462 28.375 44.9568C28.5096 44.9712 28.6337 44.9251 28.7621 44.9064C28.8881 44.8881 29.0045 44.9333 29.1252 44.9535C29.2454 44.9736 29.3757 44.9184 29.4878 45.0029C29.6459 44.9674 29.7901 45.0788 29.9463 45.05C30.1369 45.0149 30.284 45.1148 30.4344 45.2017C30.5283 45.256 30.6366 45.2819 30.7329 45.2824C30.833 45.2824 30.8569 45.3717 30.9321 45.388C31.0174 45.4068 31.0112 45.4802 31.0337 45.5475C31.0615 45.6306 31.1065 45.7059 31.1305 45.7957C31.165 45.9254 31.0854 46.0431 31.1333 46.1718C30.9192 46.3605 30.7693 46.6039 30.5604 46.797C30.4349 46.9132 30.296 46.9977 30.1432 47.064C30.1163 47.0755 30.0622 47.0534 30.0517 47.0688C29.9971 47.1461 29.9099 47.1514 29.8356 47.1874C29.7882 47.2105 29.7551 47.2633 29.7091 47.3099C29.5242 47.2618 29.3614 47.3747 29.1851 47.4126C29.1386 47.4227 29.0883 47.4491 29.0346 47.4506C28.8895 47.4534 28.7415 47.4285 28.6145 47.5375C28.5863 47.5615 28.523 47.5457 28.4761 47.5466C28.3314 47.549 28.2064 47.5946 28.1091 47.7156V47.7142ZM30.1963 45.4361C30.0957 45.4241 29.9832 45.4682 29.9151 45.352C29.9075 45.3391 29.872 45.3443 29.8509 45.3376C29.6804 45.2834 29.4835 45.2709 29.2881 45.2872C29.2301 45.292 29.1688 45.3064 29.107 45.2632C29.0327 45.2113 28.9158 45.2152 28.8588 45.2502C28.7717 45.304 28.6921 45.2805 28.6102 45.2882C28.5393 45.2949 28.467 45.2886 28.3951 45.2896C28.1896 45.2925 28.111 45.3708 28.1101 45.5773C28.1087 45.8889 28.1072 46.201 28.1115 46.5127C28.1125 46.5948 28.0981 46.6745 28.1494 46.7619C28.1834 46.8205 28.1733 46.9276 28.1398 47.0131C28.1024 47.1087 28.1345 47.1572 28.2318 47.1596C28.399 47.1634 28.5676 47.15 28.7338 47.1639C28.9 47.1773 29.0509 47.0822 29.2167 47.1115C29.2282 47.1135 29.2421 47.0981 29.2555 47.0914C29.3877 47.0261 29.529 47.0054 29.6756 47.0184C29.7245 46.966 29.7695 46.8786 29.8107 46.8806C29.9424 46.8863 29.9832 46.7797 30.0569 46.7173C30.1235 46.6606 30.1733 46.5799 30.2462 46.5348C30.3798 46.4517 30.4727 46.3528 30.535 46.201C30.603 46.0354 30.6121 45.9629 30.535 45.8212C30.4488 45.6642 30.3032 45.5676 30.1968 45.4361H30.1963Z" fill="#EFDD9C"/>
<path d="M31.4869 49.9923C31.4524 49.9923 31.4208 49.9933 31.3892 49.9923C31.2234 49.9861 31.1731 49.904 31.2493 49.7494C31.2919 49.6624 31.3441 49.5794 31.4011 49.5011C31.5027 49.3609 31.5606 49.1918 31.6871 49.0684C31.6732 48.8989 31.8783 48.8096 31.8471 48.6285C31.8423 48.6002 31.9319 48.5608 31.9329 48.5253C31.9367 48.3927 32.0929 48.3414 32.0842 48.2016C32.0766 48.0768 32.2122 48.0105 32.2342 47.8794C32.2538 47.7617 32.3592 47.658 32.4363 47.5605C32.5307 47.441 32.57 47.3228 32.5604 47.1783C32.5585 47.1471 32.5604 47.1159 32.5604 47.0899C32.6107 47.0395 32.6558 46.9944 32.7041 46.9459V46.7346C32.7041 46.7106 32.6945 46.6721 32.7056 46.6649C32.8253 46.5867 32.7779 46.4373 32.8478 46.3389C32.913 46.2471 32.9417 46.1367 33.0179 46.0483C33.062 45.997 33.0831 45.9105 33.0835 45.8394C33.0855 45.6757 33.1473 45.5398 33.2608 45.4341C33.3312 45.3684 33.3259 45.2978 33.3259 45.2176C33.4265 45.1172 33.5267 45.0144 33.6301 44.915C33.7255 44.8233 33.8237 44.8411 33.9022 44.941C34.0057 45.0721 34.0287 45.244 34.137 45.3727C34.1667 45.4082 34.1159 45.4817 34.1619 45.5287C34.2011 45.5686 34.2404 45.608 34.2835 45.6507C34.2835 45.7189 34.2855 45.79 34.2831 45.8615C34.2816 45.911 34.2831 45.9566 34.331 45.9859C34.3784 46.0147 34.3827 46.0594 34.3808 46.1093C34.3798 46.1386 34.365 46.1751 34.3985 46.1972C34.548 46.2942 34.5719 46.4685 34.6074 46.6121C34.6471 46.772 34.7458 46.8926 34.8115 47.0318C34.8584 47.1307 34.8718 47.2446 34.9509 47.3363C35.0203 47.417 35.0601 47.5293 35.0946 47.634C35.1276 47.7339 35.2148 47.7901 35.2689 47.8708C35.3365 47.9706 35.3566 48.1027 35.4625 48.1767C35.4955 48.1997 35.4788 48.2352 35.4797 48.265C35.4821 48.3529 35.4807 48.4408 35.4807 48.5344C35.6321 48.6631 35.77 48.8129 35.8467 48.9997C35.8994 49.1284 35.9511 49.2514 36.0551 49.344C36.0958 49.3801 36.0848 49.4415 36.1068 49.4646C36.2093 49.5722 36.125 49.6764 36.0953 49.7618C36.0551 49.8771 35.9386 49.9467 35.8222 49.9923C35.7647 50.0149 35.6527 49.941 35.6268 49.8584C35.6134 49.8156 35.5909 49.7676 35.587 49.733C35.5755 49.6259 35.5588 49.5328 35.4615 49.4713C35.4103 49.4387 35.4553 49.3709 35.4256 49.344C35.3274 49.2533 35.3657 49.1126 35.2934 49.0137C35.2253 48.92 35.1909 48.8139 35.1913 48.6962C35.1913 48.677 35.1712 48.6564 35.1573 48.6391C35.0577 48.5152 34.9829 48.3812 34.9509 48.2208C34.9303 48.1181 34.8344 48.0835 34.7616 48.1541C34.7017 48.2122 34.6423 48.2189 34.571 48.2184C34.3161 48.2175 34.0608 48.228 33.8064 48.2155C33.5233 48.2011 33.2498 48.2895 32.9652 48.2741C32.8775 48.2693 32.7971 48.3116 32.6917 48.2741C32.5384 48.2194 32.4119 48.3308 32.3247 48.4485C32.2088 48.604 32.1163 48.7769 32.0076 48.9383C31.9712 48.9925 32.0153 49.0674 31.9836 49.0939C31.8308 49.2221 31.918 49.4583 31.7561 49.577C31.7796 49.7897 31.5851 49.8598 31.4883 49.9933L31.4869 49.9923ZM33.5678 45.6733C33.5449 45.7996 33.3911 45.8553 33.4208 46.0022C33.4261 46.0291 33.4093 46.0455 33.3925 46.0623C33.2225 46.2332 33.2244 46.4906 33.0859 46.6769C33.1075 46.8277 32.9963 46.9156 32.9168 47.0126C32.868 47.0722 32.8512 47.1264 32.8431 47.1999C32.8311 47.3022 32.8177 47.4088 32.7357 47.4899C32.6591 47.5658 32.6495 47.6643 32.6543 47.7675C32.661 47.9 32.6854 47.9279 32.8225 47.9289C33.1487 47.9303 33.4754 47.9313 33.8016 47.9279C33.8759 47.9269 33.9578 47.9596 34.0244 47.8847C34.0368 47.8708 34.0958 47.8693 34.1336 47.8981C34.2093 47.9553 34.3065 47.9562 34.3707 47.9039C34.4388 47.8482 34.5001 47.8242 34.5825 47.8328C34.6558 47.84 34.7008 47.805 34.7147 47.7252C34.6835 47.6859 34.6352 47.6489 34.6213 47.6014C34.6045 47.5437 34.6174 47.4775 34.6174 47.4251C34.5509 47.3584 34.5034 47.2868 34.4364 47.2494C34.3487 47.2004 34.4091 47.0981 34.3386 47.0467C34.2634 46.9915 34.2692 46.87 34.1992 46.822C34.101 46.7538 34.1825 46.6342 34.1015 46.5718C34.1173 46.4388 34.0445 46.3518 33.9501 46.2755C33.895 46.2308 33.8902 46.1564 33.8524 46.1007C33.7599 45.9648 33.759 45.7727 33.5688 45.6733H33.5678Z" fill="#EFDD9C"/>
<path d="M9.38947 45.0509C9.41342 45.1393 9.35354 45.1705 9.34253 45.2262C9.32049 45.3328 9.24193 45.4077 9.12264 45.4365C9.023 45.4606 8.92719 45.5033 8.83378 45.5465C8.80647 45.5595 8.7854 45.5787 8.7509 45.5787C8.57557 45.5768 8.39114 45.6123 8.22683 45.5696C8.00695 45.5119 7.79138 45.5417 7.57485 45.5321C7.41006 45.5249 7.38898 45.5528 7.38754 45.7199C7.38658 45.8798 7.38706 46.0397 7.38754 46.1996C7.38754 46.2707 7.3976 46.3432 7.32143 46.3883C7.27832 46.4138 7.31569 46.4311 7.32766 46.4565C7.36024 46.5237 7.31952 46.6059 7.38323 46.675C7.42108 46.7158 7.34682 46.7706 7.34203 46.8196C7.33149 46.9262 7.34203 47.0318 7.29557 47.137C7.26586 47.2047 7.33245 47.2902 7.33101 47.355C7.3267 47.5677 7.40862 47.7685 7.39042 47.9831C7.37317 48.1896 7.3861 48.3985 7.38706 48.6064C7.38706 48.6473 7.38084 48.679 7.35018 48.7121C7.25676 48.8129 7.25197 48.9224 7.35305 49.0199C7.39664 49.0617 7.38563 49.1059 7.3861 49.151C7.38754 49.3268 7.38658 49.5025 7.38658 49.6807C7.30227 49.7633 7.217 49.8473 7.12359 49.939H6.81221V49.1789C6.92526 49.029 6.82227 48.848 6.88838 48.6828C6.94969 48.5301 6.90275 48.3534 6.9061 48.1872C6.90706 48.1281 6.92814 48.0657 6.87353 48.0076C6.84862 47.9812 6.8467 47.9111 6.86251 47.8727C6.93437 47.6993 6.91952 47.5351 6.86634 47.3574C6.83999 47.2695 6.8376 47.1586 6.88646 47.0587C6.92383 46.9819 6.90706 46.9026 6.88167 46.8152C6.84622 46.6937 6.79113 46.5694 6.81221 46.4359C6.84143 46.2467 6.74035 46.0699 6.76191 45.8798C6.77341 45.7794 6.74802 45.6738 6.85341 45.6032C6.86922 45.5926 6.85916 45.5436 6.86107 45.5134C6.78155 45.4385 6.68622 45.4293 6.58466 45.4327C6.45724 45.437 6.32933 45.4327 6.20191 45.4341C5.96813 45.4365 5.74106 45.3612 5.50394 45.3823C5.36645 45.3948 5.22274 45.4101 5.1025 45.4567C4.94058 45.5201 4.87591 45.4447 4.79639 45.3496C4.88741 45.1791 5.01914 45.0216 5.11687 44.9472C5.14992 44.9222 5.17723 44.8997 5.22034 44.9064C5.35735 44.928 5.5025 44.8593 5.63424 44.9477C5.66298 44.9669 5.68981 44.9347 5.71615 44.9294C5.84262 44.9035 5.97532 44.8555 6.08741 44.9712C6.10322 44.9875 6.11759 45.0087 6.14634 45.0024C6.30442 44.9674 6.44957 45.0538 6.60478 45.0514C6.72742 45.0495 6.8467 45.05 6.96934 45.0927C7.10491 45.1403 7.25485 45.1743 7.40143 45.1436C7.49533 45.1239 7.55521 45.2243 7.64527 45.194C7.75018 45.2737 7.85653 45.2406 7.97102 45.2118C8.11042 45.1763 8.25557 45.1571 8.39929 45.1489C8.57414 45.1383 8.74995 45.147 8.92528 45.146C9.00959 45.1455 9.09103 45.1599 9.16193 45.0764C9.21462 45.0144 9.30756 45.0572 9.38803 45.0514L9.38947 45.0509Z" fill="#EFDD9C"/>
<path d="M20.1196 48.9637C20.0684 48.908 20.0137 48.8701 20.0181 48.7817C20.0276 48.5824 20.0051 48.3807 20.0272 48.1834C20.0401 48.0652 20.0329 47.9543 20.0233 47.8391C20.0137 47.72 20.0214 47.5994 20.0214 47.4799V47.0966C20.0214 46.9766 20.0219 46.857 20.0214 46.737C20.0214 46.699 20.0209 46.6654 19.996 46.627C19.9519 46.5593 19.9534 46.4709 19.9912 46.4051C20.0425 46.3163 20.0262 46.2539 19.9778 46.1708C19.9424 46.1098 19.9208 46.0349 19.9222 45.9533C19.9251 45.8078 19.9433 45.6613 19.8815 45.5163C19.837 45.4125 19.928 45.3127 19.9371 45.207C19.9376 45.2008 19.9495 45.1964 19.9529 45.1897C19.9931 45.1062 20.1072 45.1806 20.1536 45.0903C20.1848 45.0303 20.2437 44.9813 20.3299 45.001C20.4003 45.0173 20.4468 44.917 20.5321 44.9597C20.5771 45.0711 20.6274 45.171 20.5584 45.3179C20.5062 45.4289 20.5546 45.5849 20.545 45.7199C20.5388 45.8097 20.5881 45.9081 20.5024 45.9907C20.4822 46.0099 20.488 46.0719 20.5014 46.1069C20.5766 46.3029 20.5599 46.4935 20.5043 46.6923C20.4775 46.7883 20.5028 46.8988 20.4985 47.0025C20.4961 47.0621 20.522 47.1264 20.4616 47.1802C20.4367 47.2023 20.4406 47.2561 20.4621 47.2897C20.5369 47.4069 20.5187 47.5452 20.4904 47.6551C20.4545 47.7954 20.4291 47.9169 20.4971 48.0504C20.5134 48.082 20.4995 48.1291 20.4995 48.169C20.4995 48.6165 20.4995 49.0636 20.4995 49.5112C20.4995 49.5981 20.5105 49.6903 20.3864 49.7037C20.3136 49.8243 20.169 49.8372 20.0674 49.9169C19.9792 49.9861 19.8858 49.9318 19.8772 49.8166C19.8748 49.7849 19.8724 49.7518 19.8772 49.721C19.9079 49.5342 19.9285 49.3445 19.9783 49.163C19.9979 49.0915 20.0329 49.0021 20.1186 48.9632L20.1196 48.9637Z" fill="#EFDD9C"/>
</svg>
