<svg width="105" height="131" viewBox="0 0 105 131" fill="none" xmlns="http://www.w3.org/2000/svg">
<path d="M52.5081 15.8031C52.8275 16.1164 53.0609 16.496 53.3304 16.8384C54.4508 18.2628 55.6338 19.622 56.8529 20.9427C58.1537 22.3519 59.4757 23.739 60.7627 25.1646C61.95 26.4794 63.081 27.8537 64.0911 29.341C65.4195 31.2988 66.5537 33.3823 67.4619 35.6138C68.0487 37.0568 68.5802 38.5231 69.0152 40.0279C69.29 40.9782 69.5043 41.946 69.6837 42.9267C69.9234 44.2427 69.9998 45.5728 70.1006 46.904C70.1792 47.9289 70.0338 48.9328 70.0009 49.9472C69.9807 50.5796 69.8746 51.198 69.7791 51.8176C69.6041 52.9555 69.3452 54.0724 68.9993 55.1614C68.5187 56.6754 67.9012 58.1231 67.1097 59.4741C66.212 61.0068 65.1563 62.3869 63.8927 63.5818C62.5537 64.8478 61.0757 65.8494 59.4503 66.5925C58.3076 67.1154 57.1224 67.4916 55.8991 67.7233C54.6959 67.9504 53.4853 68.0809 52.2651 68.0599C51.1532 68.0413 50.0487 67.9237 48.9527 67.7012C47.3887 67.3832 45.8906 66.8533 44.4689 66.0742C42.6248 65.0621 41.0057 63.7239 39.6243 62.0363C38.7999 61.0289 38.0795 59.9423 37.4588 58.7765C36.8837 57.6957 36.4233 56.5555 36.0339 55.3768C35.6805 54.3088 35.4227 53.2129 35.219 52.1042C35.0673 51.2796 34.958 50.4434 34.9294 49.6013C34.9081 48.9619 34.7988 48.3295 34.8286 47.6878C34.8848 46.4509 34.9495 45.2164 35.114 43.9865C35.2901 42.6693 35.5564 41.3789 35.9203 40.1129C36.4328 38.3275 37.0641 36.5921 37.7962 34.8999C38.3087 33.7154 38.8911 32.5741 39.5256 31.4677C40.1835 30.3181 40.9208 29.228 41.7071 28.1787C42.8826 26.6111 44.1771 25.168 45.4906 23.7448C46.5272 22.6209 47.5808 21.5169 48.6131 20.3883C49.8333 19.0536 51.0078 17.6723 52.1017 16.2119C52.1972 16.0849 52.3033 15.9673 52.4073 15.8485C52.4232 15.8299 52.454 15.8264 52.506 15.8042L52.5081 15.8031ZM52.4837 18.2221C50.1962 21.0836 47.6742 23.6121 45.2657 26.2663C45.3389 26.3443 45.3887 26.2989 45.4365 26.2908C46.1325 26.1755 46.8232 26.137 47.5044 26.3956C48.4052 26.738 49.1065 27.3599 49.6296 28.2276C50.3309 29.3899 50.6216 30.6431 50.2513 32.0127C50.0402 32.7907 49.6604 33.465 49.0598 33.9577C48.6588 34.2873 48.0879 34.0497 47.9564 33.5209C47.8726 33.1867 47.9712 32.9235 48.194 32.6836C48.8158 32.0162 49.0545 31.2103 48.8614 30.2716C48.749 29.7242 48.5145 29.242 48.1972 28.8006C47.3198 27.5765 45.6572 27.6161 44.7606 28.3743C44.036 28.9869 43.7017 29.822 43.5978 30.7689C43.4768 31.8823 43.6614 32.9701 43.9935 34.0241C44.3384 35.1188 44.9187 36.0669 45.5628 36.9718C45.6169 37.0487 45.671 37.1267 45.7707 37.1395C46.5304 36.881 47.2529 36.5316 47.9405 36.0843C48.6429 35.6266 49.0089 34.8277 49.5765 34.1335C50.2991 36.2486 50.994 38.2855 51.689 40.3214C51.706 40.3167 51.724 40.3109 51.741 40.3062C51.741 40.2002 51.741 40.0954 51.741 39.9894C51.741 36.7121 51.741 33.4336 51.741 30.1563C51.741 29.9816 51.7399 29.808 51.7792 29.6357C51.9023 29.1081 52.4635 28.881 52.8826 29.1791C53.1882 29.3969 53.2211 29.723 53.2211 30.0712C53.2211 33.3684 53.2211 36.6655 53.2211 39.9626V40.2561C53.2412 40.2573 53.2614 40.2585 53.2816 40.2596C53.9733 38.2401 54.6651 36.2194 55.3771 34.1394C55.9617 34.8405 56.3256 35.6406 57.0365 36.1006C57.7261 36.5455 58.4497 36.888 59.1967 37.1407C59.2784 37.1232 59.3229 37.0743 59.3611 37.0219C60.2704 35.7617 60.994 34.4037 61.2635 32.793C61.4396 31.7367 61.4715 30.7002 61.0948 29.6811C60.5802 28.2893 59.445 27.6278 58.1102 27.891C56.9336 28.1228 56.1155 29.4982 56.0423 30.7048C55.9946 31.4933 56.263 32.1443 56.768 32.687C56.9643 32.8979 57.0672 33.1401 57.0259 33.4429C56.9834 33.7539 56.8094 33.9565 56.5516 34.0509C56.2407 34.165 55.9585 34.0707 55.724 33.8214C54.994 33.0446 54.5845 32.0989 54.5527 30.982C54.5219 29.8744 54.8572 28.8798 55.4662 28.0098C56.3001 26.8195 57.3792 26.1429 58.7892 26.2069C59.0874 26.2209 59.3781 26.2838 59.6879 26.2896C57.2858 23.6237 54.7617 21.0976 52.4805 18.2232L52.4837 18.2221ZM36.4572 49.0353C36.4943 49.012 36.5145 49.0062 36.523 48.9934C36.5474 48.9538 36.5686 48.9107 36.5898 48.8687C37.4715 47.1008 38.8774 46.1528 40.6386 45.7754C41.3177 45.6298 42.0031 45.6275 42.6949 45.7032C43.8227 45.8255 44.872 46.2017 45.8322 46.8469C46.8391 47.5236 47.7081 48.3854 48.507 49.3416C49.5925 50.639 50.5145 52.0657 51.3654 53.553C51.4747 53.7452 51.584 53.9373 51.7208 54.1796C51.7346 54.0759 51.7431 54.0386 51.7431 54.0025C51.7431 51.1328 51.7431 48.262 51.7452 45.3923C51.7452 45.2001 51.6826 45.072 51.5352 44.9578C50.5558 44.195 49.5924 43.4077 48.6683 42.5656C47.4736 41.4744 46.3161 40.3377 45.2763 39.0635C44.3235 37.8965 43.4418 36.6748 42.8551 35.2341C42.3532 34.0019 42.0657 32.7115 42.0869 31.35C42.0922 30.9692 42.0667 30.5849 42.1718 30.204C41.898 30.5616 41.6593 30.9296 41.4206 31.2965C40.5007 32.7127 39.7198 34.2197 39.0471 35.7909C38.2736 37.5984 37.6158 39.4549 37.1331 41.3859C36.8551 42.5004 36.6683 43.6313 36.541 44.7738C36.401 46.0258 36.3925 47.286 36.4211 48.5461C36.4243 48.7057 36.4445 48.8641 36.4572 49.0353ZM62.7914 30.1714C62.7914 30.2541 62.7861 30.2902 62.7914 30.324C62.9813 31.3034 62.8773 32.2759 62.7012 33.2379C62.3839 34.9663 61.6221 36.4629 60.6322 37.8325C59.6582 39.18 58.5611 40.3971 57.3866 41.5326C56.3861 42.5004 55.3537 43.4252 54.2725 44.2823C53.916 44.5642 53.5627 44.8507 53.2444 45.1069V54.0643C53.5818 53.5728 53.8694 53.0638 54.1749 52.57C55.3123 50.7275 56.5548 48.9864 58.1601 47.5911C59.1903 46.6955 60.332 46.0654 61.6221 45.7999C62.7266 45.5728 63.8333 45.5844 64.925 45.9315C66.1399 46.317 67.1616 47.0123 67.9415 48.1187C68.1378 48.3982 68.2672 48.7243 68.4943 49.0563C68.6227 47.5201 68.5547 46.0514 68.3998 44.5898C68.2789 43.4461 68.0699 42.3176 67.7855 41.2065C67.4492 39.8893 67.0014 38.6163 66.5346 37.3492C65.8237 35.4193 64.9388 33.5932 63.8927 31.8601C63.5532 31.2976 63.2062 30.7386 62.7903 30.1737L62.7914 30.1714ZM46.5293 57.8156C46.5272 57.5606 46.6057 57.4173 46.6673 57.2694C47.0301 56.3889 47.2879 55.4735 47.3336 54.5045C47.4047 53.0056 47.2933 51.5242 46.9272 50.0707C46.8699 49.8459 46.785 49.6595 46.6259 49.507C46.1442 49.0516 45.6529 48.6125 45.1076 48.2468C44.123 47.5853 43.0376 47.2813 41.9076 47.2627C40.9665 47.2476 40.0466 47.4898 39.2328 48.057C38.106 48.842 37.4959 49.9705 37.4853 51.4415C37.479 52.2509 37.6413 53.037 37.9638 53.7754C38.401 54.7782 39.0535 55.5329 40.0254 55.9079C41.0323 56.2969 42.037 56.2492 43.0291 55.8427C43.637 55.5935 44.0869 55.1567 44.3203 54.4731C44.4052 54.225 44.4636 53.9688 44.488 53.7125C44.5718 52.846 44.3903 52.0564 43.8376 51.4042C43.6678 51.2039 43.4376 51.0909 43.2211 50.957C42.8954 50.7567 42.7553 50.3316 42.8805 49.9845C43.0248 49.585 43.3781 49.3672 43.7559 49.4918C44.4572 49.7236 44.9718 50.243 45.3484 50.9057C46.0773 52.188 46.1643 53.5635 45.7166 54.9785C45.5267 55.5806 45.2232 56.1152 44.7797 56.5392C44.0137 57.2717 43.1002 57.6409 42.1049 57.7504C41.0163 57.8704 39.9564 57.7457 38.9622 57.1786C38.68 57.0178 38.4307 56.8024 38.1092 56.5822C39.6583 60.216 41.9256 62.9867 45.2052 64.6987C43.949 62.7934 43.4036 60.6981 43.6964 58.3455C47.2381 58.5179 49.7654 60.4967 51.7102 63.6016V58.193C49.967 58.0649 48.2556 57.9402 46.5304 57.8133L46.5293 57.8156ZM66.8052 56.6312C66.3532 56.9887 65.8789 57.2892 65.3558 57.4744C63.9935 57.9565 62.6407 57.9111 61.3155 57.3148C60.5357 56.9631 59.8768 56.4227 59.4916 55.5806C58.7744 54.013 58.7797 52.4442 59.6083 50.922C59.9755 50.2477 60.4932 49.7341 61.1914 49.4977C61.6041 49.3579 61.9447 49.5815 62.0879 50.0287C62.2057 50.3991 62.0455 50.8114 61.6837 50.9907C61.1394 51.2598 60.7924 51.7163 60.6142 52.3243C60.4529 52.8728 60.4052 53.4237 60.5229 54.0107C60.7182 54.9785 61.2327 55.5818 62.0656 55.9021C62.7288 56.1571 63.4078 56.2189 64.0996 56.1327C65.0142 56.0186 65.7951 55.5946 66.385 54.8143C67.1489 53.8046 67.4778 52.6329 67.4492 51.3145C67.4227 50.1033 66.9781 49.1436 66.1431 48.3912C65.4343 47.7518 64.6025 47.4595 63.6953 47.3221C62.7542 47.1788 61.8619 47.3617 60.9887 47.6668C59.9436 48.0314 59.0831 48.75 58.2895 49.5652C58.1919 49.6654 58.1017 49.7702 58.0678 49.9193C57.7473 51.304 57.5606 52.7005 57.6137 54.14C57.655 55.2755 57.9054 56.3365 58.3288 57.3614C58.3818 57.4883 58.4646 57.6176 58.3648 57.8238C56.681 57.9472 54.9707 58.073 53.2444 58.2V63.6261C55.1999 60.4862 57.7325 58.5226 61.2667 58.3502C61.5595 60.7074 61.0057 62.8003 59.7569 64.7045C63.0439 62.9913 65.3038 60.2101 66.8041 56.6347L66.8052 56.6312ZM51.3802 66.3292C50.3797 63.4001 47.0407 60.1414 45.1479 60.2311C45.3951 64.2515 49.2413 66.5866 51.3802 66.3292ZM53.5946 66.3257C55.1426 66.4201 56.4402 65.7306 57.5946 64.7208C58.9028 63.5772 59.6529 62.0596 59.8333 60.1682C56.7245 61.0103 54.8954 63.3349 53.5946 66.3257ZM46.7755 38.4824C48.0116 39.9056 49.3421 41.1308 50.7171 42.3001C50.7383 42.2861 50.7585 42.2733 50.7797 42.2593C50.2078 40.5881 49.636 38.9156 49.0492 37.2036C48.3235 37.7451 47.5872 38.133 46.7755 38.4824ZM55.9107 37.2001C55.3198 38.9273 54.75 40.5892 54.1813 42.2512C54.2036 42.264 54.2248 42.278 54.2471 42.2908C55.6243 41.1238 56.9527 39.8951 58.1951 38.4812C57.3802 38.1446 56.6386 37.7533 55.9107 37.2001ZM51.2264 56.5124C50.5102 55.0041 49.7039 53.6089 48.7988 52.2742C48.8614 52.9497 48.8338 53.6159 48.8264 54.2809C48.82 54.9471 48.68 55.5981 48.5824 56.2771C49.4588 56.4623 50.3214 56.453 51.2264 56.5112V56.5124ZM56.3946 56.2783C56.0975 54.9459 56.0858 53.6147 56.158 52.2707C55.2561 53.6112 54.4455 55.0041 53.7431 56.5054C54.6428 56.4611 55.5033 56.4588 56.3946 56.2783Z" fill="#F5F0ED"/>
<path d="M46.7108 68.4815C46.4275 68.7459 46.1315 68.8728 45.8503 69.0184C44.9474 69.4855 44.0147 69.8756 43.0641 70.2052C42.0466 70.5581 41.0163 70.8609 39.966 71.0845C38.7097 71.3524 37.4471 71.555 36.1729 71.6994C34.853 71.8485 33.532 71.8881 32.21 71.8928C31.2752 71.8951 30.3363 71.8718 29.4068 71.7705C27.8981 71.6063 26.4031 71.3268 24.9379 70.8737C23.3177 70.3741 21.757 69.7102 20.2599 68.8717C18.7936 68.0518 17.4153 67.0804 16.1114 65.974C14.1485 64.3074 12.4424 62.3717 10.9761 60.1799C9.96919 58.6751 9.10659 57.0737 8.4371 55.3582C7.94373 54.0945 7.51615 52.7994 7.09387 51.5044C6.82331 50.6751 6.53472 49.8529 6.25991 49.026C6.00103 48.2433 5.76018 47.4537 5.49281 46.6745C4.8509 44.8088 4.21005 42.943 3.36974 41.1669C2.71403 39.781 1.95117 38.487 0.893348 37.426C0.745868 37.2781 0.5899 37.1395 0.443481 37.0009C0.491227 36.8705 0.562314 36.9089 0.628096 36.931C2.10502 37.4249 3.56602 37.9676 5.02066 38.5359C6.20899 39.0006 7.38776 39.4944 8.55911 40.0069C9.76336 40.5345 10.9549 41.0958 12.1358 41.6863C13.1724 42.2046 14.2068 42.724 15.2159 43.3017C16.296 43.9201 17.3761 44.5386 18.4498 45.1698C20.0456 46.1074 21.6222 47.0822 23.1713 48.1094C24.8116 49.1972 26.4116 50.3513 27.9596 51.5917C29.4365 52.775 30.8583 54.0328 32.2535 55.3268C33.3389 56.3342 34.4031 57.3707 35.3973 58.4865C36.2991 59.4974 37.1564 60.5537 38.0116 61.6136C39.3092 63.2208 40.714 64.6975 42.367 65.8762C43.6296 66.7765 44.9452 67.5568 46.3108 68.2463C46.4296 68.3068 46.5421 68.3813 46.7097 68.4815H46.7108ZM41.3845 69.0184C40.802 68.9136 40.2492 68.8041 39.6933 68.7156C38.8636 68.584 38.0445 68.3953 37.2254 68.2043C36.2514 67.9761 35.2848 67.714 34.3203 67.4426C33.3729 67.1759 32.4275 66.8953 31.4885 66.5948C30.5325 66.2885 29.584 65.9554 28.6355 65.6223C28.123 65.4418 27.6137 65.2496 27.1119 65.0365C26.644 64.8385 26.4731 64.3365 26.7193 63.8741C27.097 63.1637 27.2275 62.3857 27.2328 61.5868C27.2402 60.4268 27.0196 59.311 26.471 58.3048C26.1219 57.6642 25.6784 57.1157 24.9909 56.8851C23.7495 56.4669 22.4838 56.2457 21.1819 56.3144C20.5135 56.3493 19.8663 56.4996 19.2625 56.8117C17.2625 57.8436 16.0318 60.3674 16.7384 62.805C17.2498 64.5718 18.4477 65.3882 19.8875 65.5478C20.4594 65.6106 21.0164 65.4977 21.532 65.2123C22.436 64.7104 23.0217 63.9592 23.0599 62.7933C23.0726 62.4078 23.0015 62.0491 22.8572 61.6951C22.6822 61.263 22.8413 60.8064 23.1946 60.6341C23.5914 60.4407 23.9851 60.6143 24.1952 61.044C24.5495 61.7673 24.6503 62.5499 24.5188 63.3303C24.2249 65.0772 23.2445 66.2174 21.7601 66.8696C21.3708 67.0408 20.957 67.0909 20.4795 67.1829C20.9729 67.4461 21.3962 67.6826 21.8281 67.9015C23.0397 68.5153 24.2917 69.0103 25.583 69.3806C26.2217 69.5635 26.8657 69.7254 27.5193 69.8465C28.5209 70.0317 29.5278 70.1761 30.541 70.2075C31.5278 70.2378 32.5145 70.2599 33.5023 70.225C33.9522 70.2099 34.4052 70.2425 34.853 70.2017C35.898 70.1062 36.9421 70.0061 37.9808 69.8255C38.7999 69.6834 39.6148 69.5262 40.4211 69.3201C40.7341 69.2409 41.062 69.2001 41.3834 69.0196L41.3845 69.0184ZM36.7861 62.5162C36.2482 61.8628 35.7177 61.2024 35.1702 60.5584C34.3755 59.622 33.5511 58.7194 32.6715 57.8773C31.8535 57.0947 31.0355 56.3097 30.1994 55.5515C29.4652 54.8853 28.7193 54.232 27.9554 53.6054C27.4026 53.1523 26.8636 52.7168 26.1867 52.478C24.7034 51.9539 23.183 51.7082 21.6381 51.6103C20.6928 51.5498 19.7517 51.643 18.8116 51.7652C17.131 51.9842 15.5204 52.4594 14.0286 53.3538C12.6832 54.1621 11.6106 55.2627 11.0228 56.8606C10.9549 57.0458 10.9474 57.196 11.0472 57.3777C11.5066 58.2186 12.0191 59.0187 12.5591 59.799C13.3315 60.9124 14.1878 61.942 15.1087 62.9086C15.1405 62.9413 15.1671 63.0158 15.2456 62.9552C15.201 62.7526 15.1374 62.5499 15.1119 62.3403C14.9846 61.2874 15.0514 60.2486 15.4026 59.254C16.3076 56.6952 18.0159 55.194 20.4731 54.7537C21.6519 54.5418 22.8349 54.6745 23.9999 54.9331C24.9686 55.1474 25.914 55.4618 26.8402 55.8462C28.0731 56.3575 29.2657 56.9596 30.4158 57.6654C31.8588 58.5517 33.2413 59.5393 34.5463 60.655C35.2848 61.2851 35.9967 61.9513 36.785 62.5162H36.7861ZM39.984 67.1247C39.9957 67.1026 40.0063 67.0793 40.0179 67.0571C39.7569 66.8638 39.4991 66.6658 39.236 66.4771C37.7071 65.3777 36.228 64.1979 34.8095 62.9366C32.9442 61.2793 30.9888 59.7804 28.8498 58.5808C28.6206 58.4527 28.3989 58.2931 28.1071 58.2384C28.7755 60.0657 28.8901 61.9024 28.3893 63.8264C32.1898 65.2123 36.0328 66.3956 39.984 67.1259V67.1247ZM7.37715 42.922C9.38776 45.9222 11.4111 48.8979 13.5352 51.8095C14.6196 51.1876 15.7453 50.7799 16.9697 50.4503C13.9628 47.5608 10.6896 45.2141 7.37609 42.9232L7.37715 42.922ZM23.2371 50.1184C23.2445 50.0963 23.2519 50.0742 23.2593 50.052C18.5729 46.9773 13.7984 44.0913 8.71614 41.8599C9.17344 42.2267 9.63922 42.575 10.1156 42.9069C11.5618 43.9143 12.9718 44.9835 14.3511 46.0969C15.8525 47.3081 17.3294 48.5555 18.6599 49.9938C18.731 50.0707 18.8021 50.1336 18.9135 50.1219C19.1766 50.0916 19.4397 50.0637 19.7039 50.0439C20.3724 49.9926 21.0397 49.9239 21.7124 50.0031C22.2185 50.0625 22.7288 50.0823 23.2381 50.1184H23.2371ZM6.13259 43.8899C7.47901 47.6645 8.57079 51.5405 10.0509 55.2732C10.6355 54.2355 11.3814 53.3969 12.2493 52.683C10.1994 49.7376 8.16654 46.8131 6.13259 43.8899Z" fill="#F5F0ED"/>
<path d="M58.2927 68.4932C58.5346 68.2591 58.8285 68.1671 59.0948 68.0273C61.0131 67.021 62.8402 65.8517 64.4709 64.3435C65.5203 63.3722 66.438 62.2553 67.3441 61.1279C68.5951 59.5719 69.8863 58.059 71.3017 56.6801C73.2115 54.8201 75.1776 53.0359 77.2465 51.3926C78.5134 50.3863 79.8205 49.4476 81.1489 48.5438C83.0704 47.2347 85.047 46.0317 87.0364 44.8519C88.9621 43.7093 90.9123 42.6157 92.9123 41.6351C94.6534 40.7814 96.4136 39.9801 98.1961 39.2382C99.7218 38.6023 101.263 38.0118 102.813 37.4482C103.314 37.2653 103.824 37.1057 104.329 36.9345C104.394 36.9124 104.459 36.874 104.539 36.9625C104.362 37.1395 104.192 37.3131 104.019 37.4843C102.914 38.5709 102.163 39.9335 101.497 41.3637C100.82 42.8149 100.269 44.3266 99.7473 45.8488C99.2157 47.399 98.7181 48.9631 98.1982 50.5179C97.7515 51.8538 97.3038 53.1884 96.8327 54.515C96.3626 55.8369 95.7961 57.1052 95.1245 58.3141C94.4157 59.5894 93.6125 60.7936 92.7287 61.9315C91.6422 63.3314 90.4401 64.5986 89.1308 65.7422C87.5224 67.1468 85.7887 68.3394 83.9192 69.2886C82.3839 70.0678 80.8019 70.6874 79.1542 71.1125C78.1229 71.3792 77.0821 71.5644 76.0306 71.6983C75.1786 71.8066 74.3234 71.8113 73.4704 71.8695C72.4879 71.937 71.5107 71.8625 70.5325 71.8439C69.7664 71.8299 69.0025 71.7356 68.2396 71.6424C67.3537 71.5341 66.472 71.3978 65.5956 71.2161C64.2683 70.9401 62.9611 70.5826 61.6763 70.1167C60.6938 69.7603 59.7357 69.3469 58.8052 68.8519C58.629 68.7575 58.4328 68.6888 58.2938 68.4932H58.2927ZM84.4115 67.155C84.3765 67.1515 84.3415 67.148 84.3075 67.1433C82.6544 66.9046 81.4078 66.0264 80.716 64.3284C80.2629 63.2161 80.2704 62.0946 80.7945 60.9975C81.0311 60.5025 81.5924 60.4023 81.9531 60.7971C82.212 61.0801 82.2534 61.3655 82.0677 61.8104C81.846 62.3415 81.8375 62.8982 81.985 63.4292C82.2927 64.5368 83.029 65.1623 84.0316 65.4453C84.5377 65.5885 85.0354 65.5652 85.5499 65.4592C86.368 65.2915 87.0534 64.8874 87.5616 64.1723C88.4125 62.9762 88.6152 61.6264 88.2704 60.1671C87.7494 57.9577 85.9117 56.4006 83.7759 56.312C82.8624 56.2748 81.9584 56.3551 81.0672 56.5683C80.595 56.6812 80.108 56.7686 79.673 57.0143C79.0343 57.3754 78.6226 57.9752 78.3118 58.667C77.9606 59.452 77.7802 60.2893 77.7378 61.157C77.6932 62.0771 77.7876 62.9774 78.212 63.7996C78.4911 64.34 78.333 64.8466 77.8004 65.0609C77.3123 65.2578 76.821 65.4476 76.3256 65.6235C75.0332 66.0812 73.7356 66.5179 72.4274 66.9221C70.6099 67.4834 68.7776 67.9737 66.9304 68.3942C65.8184 68.6481 64.6948 68.8402 63.5309 69.0149C63.9065 69.1826 64.2693 69.2502 64.6248 69.3387C65.4248 69.5379 66.229 69.7044 67.0418 69.8383C68.142 70.0189 69.2465 70.1621 70.3563 70.204C71.36 70.2425 72.3659 70.253 73.3707 70.2262C74.1823 70.204 74.9929 70.1947 75.8025 70.0969C76.821 69.9734 77.8322 69.8046 78.8264 69.5379C80.1038 69.1954 81.3558 68.7552 82.5653 68.1799C83.1966 67.8806 83.8152 67.5545 84.4115 67.1538V67.155ZM68.2163 62.5627C68.7627 62.0899 69.3134 61.6229 69.8534 61.1419C71.0354 60.0902 72.2746 59.1259 73.5807 58.2722C75.2677 57.1692 77.0258 56.2259 78.8943 55.5445C79.9022 55.1765 80.9314 54.9017 81.9818 54.7561C82.9728 54.6186 83.9701 54.6163 84.9579 54.8516C85.6019 55.0053 86.2194 55.2347 86.7818 55.6098C88.1589 56.5287 89.1574 57.7947 89.6369 59.5032C89.847 60.2544 89.9595 61.0231 89.8884 61.822C89.8534 62.211 89.7812 62.593 89.7176 63.0426C89.8215 62.9389 89.881 62.8842 89.9361 62.826C90.5802 62.147 91.1765 61.4214 91.7568 60.676C92.5505 59.6558 93.2433 58.5587 93.8916 57.4255C93.9807 57.2682 94.0263 57.1168 93.9626 56.9328C93.7186 56.2259 93.36 55.5935 92.9038 55.0333C92.1865 54.1528 91.3059 53.5076 90.3351 53.0149C88.5208 52.0937 86.5887 51.7082 84.6088 51.6162C82.7446 51.53 80.9091 51.785 79.116 52.3662C78.5059 52.5642 77.9245 52.8158 77.4067 53.2525C75.655 54.7293 73.9457 56.2608 72.2937 57.8692C70.8179 59.3064 69.4821 60.8891 68.2163 62.5616V62.5627ZM76.8752 58.1988C76.7372 58.2605 76.6555 58.292 76.5791 58.3327C75.3526 58.9803 74.1823 59.7361 73.0449 60.556C71.9075 61.3771 70.8646 62.3356 69.7919 63.2499C68.6768 64.2014 67.5436 65.1261 66.3755 65.9973C65.8704 66.3735 65.3632 66.7485 64.8221 67.1515C66.8646 66.7963 68.8306 66.3025 70.7807 65.7376C72.7298 65.1739 74.6598 64.5392 76.577 63.8206C76.0656 61.8989 76.1791 60.0552 76.8752 58.1988ZM91.4279 51.8165C93.5542 48.8699 95.6136 45.8826 97.6465 42.8719C94.647 44.7994 88.8582 49.3765 88.0285 50.4632C89.2009 50.7764 90.3372 51.1806 91.429 51.8165H91.4279ZM96.2672 41.882C91.1542 44.0937 86.3712 46.996 81.6826 50.1091C81.9892 50.0858 82.2905 50.1021 82.5855 50.059C83.7155 49.8913 84.8401 49.9973 85.9648 50.1103C86.1261 50.1266 86.2322 50.0881 86.3383 49.9659C86.9441 49.2717 87.6189 48.6614 88.2969 48.057C90.3351 46.2425 92.4826 44.5945 94.6778 43.0187C95.2072 42.639 95.7377 42.2593 96.2672 41.8808V41.882ZM94.9218 55.35C96.386 51.5393 97.4916 47.661 98.838 43.8794C96.8062 46.819 94.7839 49.7609 92.6841 52.676C93.603 53.3876 94.3107 54.2658 94.9208 55.35H94.9218Z" fill="#F5F0ED"/>
<path d="M78.7627 5.8115C78.8624 5.82897 78.8985 5.9268 78.9431 6.006C79.795 7.50142 80.6523 8.99217 81.4449 10.5272C82.3648 12.3068 83.1945 14.1353 83.8725 16.043C84.2576 17.1261 84.5834 18.2302 84.8645 19.3518C85.134 20.4279 85.3388 21.518 85.4895 22.6175C85.6136 23.5247 85.708 24.439 85.7452 25.3614C85.7876 26.427 85.8078 27.4927 85.7802 28.5584C85.7494 29.7486 85.6698 30.9354 85.5372 32.1187C85.4301 33.0795 85.3112 34.0392 85.1425 34.9884C84.8953 36.3755 84.5834 37.7451 84.1759 39.0892C83.8354 40.2119 83.4502 41.3136 83.0078 42.3909C82.3648 43.9574 81.5935 45.447 80.8019 46.9284C80.4762 47.5399 79.9298 47.7868 79.446 48.1362C78.3309 48.9398 77.2306 49.7632 76.1505 50.6204C74.6545 51.8083 73.2295 53.0953 71.8184 54.3997C71.2582 54.918 70.716 55.4595 70.1664 55.9918C70.1144 56.0418 70.072 56.1094 69.9489 56.0873C69.9733 55.8019 70.0985 55.5457 70.1739 55.2813C70.4784 54.2075 70.715 53.1197 70.8975 52.0121C71.1786 50.2989 71.2922 48.5729 71.2423 46.8376C71.2168 45.9594 71.1776 45.0813 71.064 44.2043C70.9452 43.2935 70.8105 42.3874 70.629 41.4907C70.3479 40.0989 69.9266 38.7526 69.4651 37.4214C69.0163 36.1251 68.5134 34.8545 67.9426 33.6176C67.4152 32.4762 66.8285 31.371 66.1876 30.3007C65.4938 29.1407 64.7213 28.0459 63.9245 26.9709C63.8853 26.9185 63.8534 26.8533 63.8046 26.8172C63.4747 26.5703 63.5129 26.2512 63.6274 25.896C64.02 24.6777 64.5357 23.5201 65.0948 22.388C65.9256 20.7063 66.9091 19.1316 67.9691 17.6164C69.0036 16.1373 70.1378 14.756 71.3855 13.4901C71.9043 12.9636 72.4794 12.5094 73.0311 12.0261C74.3988 10.8265 75.6826 9.52791 76.8752 8.11985C77.4767 7.40941 78.0699 6.69315 78.6163 5.9303C78.6545 5.87672 78.6905 5.82082 78.7627 5.81383V5.8115ZM72.7033 48.715C72.7765 48.701 72.7818 48.6591 72.7924 48.6253C73.1266 47.5236 73.4492 46.416 73.7293 45.2956C74.0083 44.1752 74.2693 43.0501 74.5165 41.9204C74.8815 40.255 75.2083 38.5802 75.4842 36.8949C75.6571 35.8386 75.8057 34.7764 75.9415 33.7119C76.1261 32.2724 76.2566 30.8283 76.3415 29.3794C76.4083 28.2474 76.4126 27.1188 76.3096 25.9833C76.2163 24.9444 76.0582 23.9335 75.7165 22.9599C75.377 21.9932 74.8444 21.1861 74.0412 20.6259C73.4279 20.1985 72.7457 20.0028 72.02 19.9143C70.9208 19.7804 69.8937 19.9818 68.9367 20.5781C67.7495 21.3177 66.9643 22.4265 66.6121 23.8648C66.2895 25.1809 66.402 26.4794 66.9558 27.7116C67.3887 28.6748 68.0296 29.4388 68.8815 29.9699C69.5235 30.3694 70.229 30.4055 70.941 30.2925C71.9945 30.1248 72.8136 29.5716 73.2826 28.4885C73.446 28.1111 73.5171 27.7 73.5829 27.2877C73.6561 26.8312 73.9797 26.5563 74.3659 26.5994C74.7606 26.6425 75.0142 26.9756 75.0301 27.4298C75.0396 27.7082 74.9717 27.9667 74.9165 28.2299C74.7128 29.1908 74.2937 30.0305 73.6158 30.6734C72.4338 31.7938 71.0428 32.1292 69.5128 31.8974C69.2582 31.859 69.0205 31.7111 68.7075 31.7355C71.3017 37.065 73.0004 42.6099 72.7054 48.715H72.7033ZM75.5383 49.1098C75.5733 49.0819 75.6094 49.0539 75.6444 49.0248C76.6969 48.1735 77.7844 47.3768 78.8868 46.6093C79.2295 46.3706 79.5287 46.1202 79.7367 45.7265C80.473 44.3348 81.1669 42.9209 81.7643 41.4487C82.7425 39.0379 83.4099 36.5257 83.8078 33.9262C83.9574 32.9444 84.0624 31.9533 84.1696 30.9634C84.2025 30.6606 84.2269 30.3531 84.1123 30.0468C83.1309 27.4053 81.9075 24.9153 80.3033 22.6605C79.3908 21.3783 78.3744 20.2159 77.1754 19.2504C76.0561 18.3502 74.8327 17.7049 73.464 17.4208C72.4837 17.217 71.4969 17.2426 70.5144 17.4138C70.2821 17.4545 70.0115 17.4662 69.8449 17.6467C69.5733 17.9425 69.3346 18.2803 69.115 18.6402C69.2147 18.6798 69.2858 18.6332 69.3579 18.6029C69.6221 18.4911 69.8969 18.4154 70.1739 18.3641C71.2847 18.1627 72.3892 18.1953 73.4757 18.5447C74.3935 18.8393 75.2019 19.3529 75.8449 20.1286C76.7924 21.2723 77.2953 22.6559 77.5712 24.1548C77.7059 24.8874 77.7972 25.6258 77.8226 26.37C77.8449 27.0466 77.9362 27.7233 77.8471 28.4011C77.8248 28.5677 77.8852 28.7039 77.9627 28.8367C78.6343 29.9909 79.203 31.2021 79.6868 32.4646C80.1526 33.6817 80.524 34.9325 80.8072 36.2136C80.9441 36.8332 81.0587 37.4621 81.1478 38.0922C81.1966 38.4381 81.307 38.7957 81.1553 39.1509C81.0163 39.4747 80.89 39.8054 80.7468 40.128C79.6911 42.5051 78.4147 44.7342 77.012 46.8795C76.524 47.6261 76.0253 48.3633 75.5383 49.1087V49.1098ZM71.5139 15.6528C74.4953 15.4781 76.9271 16.8256 79.1309 18.9104C79.2794 15.5736 78.9346 12.3557 78.0699 9.20297C77.9266 9.23675 77.8799 9.32526 77.8173 9.39048C77.4598 9.76434 77.1256 10.1638 76.7765 10.547C75.5128 11.9329 74.1123 13.1418 72.7213 14.3636C72.2884 14.7444 71.9054 15.18 71.515 15.6517L71.5139 15.6528ZM77.7314 31.6459C77.7081 31.6528 77.6847 31.661 77.6624 31.668C77.1425 37.0696 76.0773 42.349 74.698 47.562C74.8539 47.3803 74.9813 47.1858 75.1128 46.9948C76.7786 44.5805 78.2619 42.0427 79.4693 39.3139C79.6242 38.9634 79.7717 38.6221 79.673 38.2098C79.5945 37.8826 79.5616 37.5437 79.4969 37.2129C79.1988 35.6755 78.7637 34.1848 78.1961 32.7418C78.0508 32.3726 77.8874 32.0104 77.7325 31.6459H77.7314ZM80.1526 11.4077C80.1187 11.7116 80.2078 11.9946 80.2566 12.2846C80.4476 13.4283 80.5653 14.586 80.6195 15.7413C80.6884 17.2286 80.7118 18.7252 80.5112 20.209C80.4911 20.3615 80.5271 20.4652 80.6152 20.5746C81.9404 22.2133 83.0354 24.0267 83.9797 25.953C84.0667 26.13 84.1271 26.3304 84.3001 26.5097C84.2354 21.0056 82.6269 16.0651 80.1526 11.4065V11.4077Z" fill="#F5F0ED"/>
<path d="M41.4556 26.4166C41.1522 26.8288 40.8498 27.2423 40.5431 27.6534C39.427 29.15 38.454 30.7526 37.5946 32.4401C36.593 34.4072 35.7813 36.4687 35.1023 38.593C34.6492 40.0116 34.3097 41.4604 34.0699 42.943C33.7729 44.7831 33.6721 46.6349 33.7241 48.4972C33.7601 49.7737 33.8885 51.0432 34.1071 52.301C34.3203 53.5308 34.6026 54.7386 34.9824 55.9184C34.9994 55.9708 35.0291 56.0255 34.9867 56.0989C34.8742 56.142 34.8254 56.0244 34.7617 55.9603C33.3357 54.5394 31.8588 53.1861 30.3416 51.8864C28.7193 50.4969 27.0429 49.1879 25.2954 47.9918C25.0853 47.8485 24.8848 47.6878 24.6673 47.5597C24.3458 47.371 24.2227 47.0146 24.0509 46.706C23.0864 44.966 22.2196 43.1689 21.514 41.2822C20.9708 39.8287 20.5273 38.3379 20.1867 36.8134C19.9055 35.5544 19.6997 34.2791 19.5299 32.9945C19.2275 30.7048 19.1363 28.4058 19.1872 26.0986C19.2106 25.0539 19.2912 24.0127 19.427 22.9762C19.5363 22.1423 19.6689 21.3119 19.8344 20.492C20.0827 19.2633 20.4201 18.0602 20.8063 16.8745C21.375 15.1287 22.0795 13.4493 22.871 11.8141C23.6222 10.2651 24.4424 8.76041 25.2944 7.27547C25.5384 6.84921 25.7824 6.42178 26.0296 5.99785C26.071 5.92681 26.1039 5.84062 26.2111 5.81267C26.4137 5.94195 26.523 6.18303 26.6726 6.37869C27.8715 7.94981 29.1755 9.40563 30.5665 10.7718C31.5023 11.6907 32.5336 12.4791 33.4673 13.3969C34.35 14.2634 35.167 15.2021 35.9362 16.1921C36.8254 17.3358 37.654 18.5319 38.4148 19.7804C39.1118 20.924 39.7559 22.1027 40.3171 23.336C40.7277 24.2387 41.1012 25.1564 41.3845 26.1172C41.411 26.2081 41.4291 26.3036 41.4556 26.4177V26.4166ZM36.2397 31.76C36.1347 31.6959 36.0784 31.7344 36.0201 31.7518C35.0259 32.0558 34.0381 32.0337 33.0471 31.7181C31.3304 31.1707 30.0689 29.4703 29.931 27.4904C29.897 27.0094 30.1538 26.6611 30.5867 26.6029C30.9739 26.5505 31.3198 26.851 31.3867 27.3075C31.445 27.7105 31.5225 28.11 31.6784 28.4803C32.105 29.4901 32.8551 30.0445 33.8312 30.2553C34.4827 30.3962 35.1416 30.4171 35.7591 30.1295C36.9665 29.5669 37.74 28.5246 38.2036 27.2178C38.6195 26.0474 38.6376 24.8315 38.2768 23.6319C37.7484 21.8732 36.6694 20.6981 35.0662 20.1274C34.3469 19.8712 33.6084 19.8328 32.8477 19.9259C31.0928 20.1402 29.9235 21.1593 29.2562 22.9203C28.8201 24.0709 28.6779 25.295 28.5951 26.5202C28.5028 27.8945 28.5782 29.2723 28.6949 30.6419C28.819 32.0861 28.9792 33.5268 29.1883 34.9616C29.4058 36.4524 29.6562 37.935 29.9352 39.4129C30.1432 40.5124 30.3755 41.6048 30.6153 42.6961C31.0111 44.4943 31.4747 46.2704 31.9882 48.0325C32.0562 48.2666 32.1368 48.4961 32.2121 48.7267C32.245 48.5345 32.228 48.3551 32.227 48.1758C32.2206 46.8096 32.2673 45.4482 32.4169 44.0878C32.5527 42.8545 32.7617 41.6386 33.0376 40.4378C33.3039 39.2732 33.6668 38.1411 34.0551 37.0172C34.5283 35.6488 35.0524 34.3048 35.6572 33.0003C35.8482 32.5892 36.0413 32.1793 36.2365 31.7623L36.2397 31.76ZM29.3697 49.0528C29.3856 48.9305 29.3241 48.8804 29.2837 48.8233C28.3989 47.5888 27.5564 46.3205 26.7723 45.0068C25.7262 43.254 24.7692 41.4476 23.9649 39.5445C23.7983 39.1497 23.6859 38.7595 23.7845 38.3112C23.827 38.1167 23.8599 37.914 23.8885 37.7137C24.0158 36.8029 24.2121 35.9108 24.4498 35.028C25.045 32.8221 25.8843 30.7386 27.0217 28.8029C27.0705 28.7202 27.1023 28.6376 27.1002 28.5327C27.0896 27.9318 27.1002 27.332 27.1235 26.731C27.1883 24.9922 27.428 23.2988 28.1304 21.7183C28.6174 20.6224 29.3135 19.7256 30.2885 19.1107C31.1893 18.5423 32.1697 18.2919 33.1978 18.25C33.8514 18.2232 34.5018 18.264 35.1405 18.4538C35.3686 18.5214 35.5946 18.6122 35.8355 18.6553C35.6137 18.3013 35.3792 17.9763 35.1437 17.6525C35.0906 17.5792 35.01 17.5675 34.9325 17.5454C33.8036 17.2181 32.662 17.196 31.5214 17.4184C30.1591 17.684 28.94 18.3315 27.8259 19.219C26.6758 20.1356 25.6922 21.2385 24.8031 22.4544C24.0657 23.463 23.4185 24.5356 22.819 25.6432C22.0381 27.0874 21.3835 28.6003 20.8084 30.1563C20.7755 30.2459 20.7543 30.3368 20.7617 30.4381C20.8424 31.5865 20.9718 32.7301 21.1479 33.8645C21.3124 34.9232 21.5204 35.9725 21.7718 37.0126C22.0944 38.3449 22.5082 39.6424 22.9867 40.913C23.5851 42.5004 24.3151 44.0168 25.1097 45.4947C25.3103 45.8686 25.5023 46.2355 25.8684 46.4765C26.7851 47.0798 27.6678 47.7402 28.54 48.418C28.8105 48.6288 29.0853 48.8326 29.3718 49.0493L29.3697 49.0528ZM26.8997 9.14824C26.0466 12.3557 25.6678 15.5725 25.8387 18.9127C28.0402 16.8093 30.4806 15.4851 33.4577 15.6563C32.9548 15.0356 32.4286 14.4917 31.8546 14.0107C30.3734 12.768 28.9697 11.4298 27.6562 9.97631C27.4164 9.71076 27.2095 9.40679 26.8986 9.14824H26.8997ZM30.2535 47.5795C28.8742 42.3548 27.828 37.0673 27.2944 31.6237C27.1023 31.838 27.0546 32.0721 26.9644 32.2783C26.5782 33.1622 26.2694 34.08 25.9936 35.0105C25.6922 36.0238 25.4896 37.065 25.3135 38.1108C25.27 38.3682 25.1989 38.6384 25.3156 38.9086C25.8206 40.0838 26.3734 41.2321 26.9803 42.3467C27.7368 43.7361 28.5559 45.0825 29.4291 46.388C29.6975 46.7898 29.9787 47.1823 30.2535 47.5795ZM24.4625 20.4244C24.1495 17.3148 24.3342 14.2727 24.8774 11.2493C22.3543 15.9941 20.7013 21.0207 20.6609 26.6134C21.7273 24.3749 22.9368 22.2762 24.4625 20.4232V20.4244Z" fill="#F5F0ED"/>
<path d="M52.4848 75.5533C52.5293 75.5195 52.5696 75.4974 52.5993 75.4648C53.4492 74.5552 54.4901 74.1114 55.6455 73.9204C57.4227 73.6281 59.1298 73.9169 60.7776 74.6542C62.0688 75.2318 63.3346 75.8759 64.6227 76.4629C66.0327 77.1058 67.463 77.6893 68.924 78.1807C70.0051 78.5441 71.0948 78.8656 72.2089 79.0764C72.9738 79.2219 73.7452 79.3244 74.5229 79.3454C75.5309 79.3722 76.5027 79.1288 77.4661 78.8423C78.1982 78.6245 78.9293 78.4032 79.6444 78.1225C80.6014 77.7475 81.5542 77.3597 82.3574 76.6434C82.3637 76.6376 82.3712 76.6318 82.3786 76.6259C83.0905 75.9935 83.081 75.2703 82.3489 74.6577C81.847 74.2384 81.2985 73.91 80.7234 73.6293C80.4168 73.479 80.2311 73.1133 80.2725 72.7837C80.3181 72.432 80.5972 72.1385 80.9335 72.0873C81.1181 72.0593 81.2847 72.1304 81.4438 72.2131C82.1728 72.5892 82.8868 72.998 83.4767 73.6118C84.0094 74.165 84.4157 74.7963 84.4019 75.6546C84.3924 76.2835 84.1314 76.7901 83.759 77.2362C83.1086 78.0154 82.2958 78.5383 81.4332 78.9774C80.0263 79.6936 78.5547 80.1944 77.0534 80.609C75.7441 80.9701 74.4253 81.2729 73.0958 81.521C71.5924 81.8005 70.0826 82.0392 68.5664 82.2268C67.3134 82.3817 66.0582 82.5179 64.802 82.6414C63.6858 82.7508 62.5696 82.8405 61.4513 82.9057C60.3415 82.971 59.2296 83.0024 58.1208 83.0898C57.5468 83.1352 56.9739 83.1247 56.4009 83.1398C54.4582 83.1934 52.5155 83.2318 50.5728 83.1864C49.4609 83.1608 48.3458 83.1853 47.236 83.12C46.1261 83.0548 45.0153 83.0071 43.9044 82.9523C42.8296 82.8999 41.7548 82.8102 40.6842 82.7078C39.5341 82.5971 38.3808 82.5063 37.2349 82.3374C36.1601 82.179 35.079 82.0684 34.0052 81.9018C33.028 81.7492 32.0562 81.5559 31.0843 81.3661C29.9384 81.1413 28.7989 80.8804 27.6731 80.5555C25.9989 80.071 24.3479 79.5084 22.8212 78.5849C22.1209 78.1609 21.4705 77.6613 20.9867 76.945C20.401 76.0762 20.4201 75.0385 21.0185 74.1708C21.4885 73.4907 22.1124 73.0213 22.783 72.6207C23.1002 72.4309 23.4302 72.2655 23.7601 72.1024C24.1124 71.9289 24.4827 72.0815 24.6843 72.4681C24.853 72.7919 24.7586 73.2566 24.4753 73.486C24.3097 73.62 24.1156 73.6922 23.9331 73.7877C23.3718 74.08 22.8318 74.4096 22.3861 74.8918C21.931 75.3832 21.9278 75.9201 22.3787 76.4221C22.9432 77.051 23.6594 77.4109 24.3893 77.7358C25.9225 78.4195 27.5108 78.9098 29.1341 79.2452C29.7453 79.3722 30.3755 79.3652 31.0068 79.3116C31.8896 79.2371 32.7607 79.0985 33.6233 78.8912C34.7957 78.6082 35.9437 78.2262 37.0832 77.8104C38.7352 77.2071 40.3373 76.4664 41.9394 75.7256C42.6142 75.4135 43.272 75.0583 43.9479 74.7497C45.3569 74.1045 46.819 73.7574 48.3553 73.8214C49.8726 73.8855 51.2646 74.3001 52.3914 75.4927C52.4094 75.5125 52.436 75.523 52.4826 75.5545L52.4848 75.5533ZM44.1845 81.3044C43.8545 80.948 43.5702 80.5764 43.411 80.1164C43.167 79.4071 43.1596 78.692 43.4938 78.0107C43.6795 77.6334 44.0243 77.5285 44.3819 77.6916C44.7829 77.8744 44.9315 78.2611 44.7712 78.8038C44.6439 79.2348 44.7521 79.5818 45.01 79.8998C45.1596 80.0838 45.3463 80.2107 45.549 80.3144C46.019 80.5555 46.5198 80.6486 47.0322 80.7034C48.0561 80.814 49.062 80.75 50.0253 80.3272C50.8582 79.9615 51.4535 79.3372 51.6614 78.3438C51.8078 77.6427 51.7643 76.9905 51.2179 76.4862C51.0078 76.2917 50.7829 76.1193 50.5325 75.9947C49.5882 75.5265 48.6004 75.3693 47.567 75.4461C46.5792 75.5195 45.6338 75.7722 44.715 76.1554C44.0137 76.4477 43.3484 76.8356 42.6567 77.1512C41.5405 77.6613 40.4317 78.1912 39.2996 78.6571C38.0763 79.1602 36.8434 79.6296 35.5851 80.0162C35.2657 80.1141 34.941 80.1991 34.6238 80.3121C37.7951 80.8501 40.9856 81.1017 44.1856 81.3032L44.1845 81.3044ZM70.3574 80.2981C70.2916 80.2794 70.2258 80.2562 70.159 80.241C69.5701 80.1094 68.9982 79.9068 68.4264 79.7134C67.2805 79.3256 66.1548 78.8714 65.0365 78.3927C63.6624 77.8046 62.3129 77.157 60.9696 76.492C59.5033 75.7676 57.9893 75.3099 56.3596 75.4566C55.6391 75.5218 54.9389 75.6791 54.3065 76.0657C53.2317 76.7226 52.9548 77.4726 53.4588 78.8446C53.8036 79.7821 54.5484 80.2375 55.3919 80.5031C56.0487 80.7104 56.7256 80.7663 57.4099 80.7488C57.9701 80.7348 58.5166 80.6393 59.0534 80.4763C59.3346 80.3913 59.5988 80.2398 59.8248 80.0349C60.2365 79.661 60.2969 79.1882 60.1505 78.6408C60.0349 78.2087 60.2237 77.8372 60.5919 77.6753C60.9537 77.5169 61.3176 77.6578 61.5022 78.0748C61.8004 78.7468 61.7961 79.4432 61.5468 80.1315C61.3834 80.5846 61.0969 80.9491 60.7808 81.3067C63.9882 81.104 67.1818 80.8443 70.3585 80.2969L70.3574 80.2981ZM53.8301 81.5501C53.289 81.1727 52.8434 80.7756 52.4699 80.2364C52.1325 80.8 51.6561 81.1541 51.1596 81.5501H53.8301Z" fill="#F5F0ED"/>
<path d="M6.99944 9.52325C7.27742 9.80277 7.5554 10.052 7.8005 10.335C8.42012 11.0524 9.01747 11.7908 9.5501 12.591C10.7649 14.4183 11.7071 16.4005 12.4254 18.5202C13.1236 20.5793 13.7941 22.6512 14.5145 24.701C15.0037 26.0928 15.497 27.4822 16.0254 28.8553C16.7734 30.8015 17.5692 32.7232 18.4498 34.6029C18.5824 34.8871 18.6355 35.1922 18.6864 35.4915C18.8891 36.6632 19.1522 37.8162 19.4758 38.9529C19.8047 40.1082 20.1771 41.2473 20.6217 42.3572C21.0663 43.4659 21.5437 44.556 22.0774 45.617C22.1029 45.6671 22.1357 45.716 22.1145 45.7859C22.0222 45.8639 21.9533 45.7754 21.8832 45.7323C19.3867 44.1799 16.8679 42.6728 14.2854 41.2997C13.3411 40.7977 12.3766 40.3388 11.4175 39.8695C11.2477 39.7868 11.1596 39.6668 11.1066 39.4735C10.6016 37.6345 10.2769 35.7524 9.9416 33.8703C9.77397 32.9293 9.63604 31.9836 9.50659 31.0379C9.39094 30.1889 9.30925 29.3317 9.24877 28.471C9.1554 27.1538 9.14691 25.8366 9.17344 24.5193C9.19572 23.4164 9.28697 22.3146 9.30713 21.2117C9.33047 19.9725 9.35063 18.7322 9.2859 17.4918C9.23498 16.5193 9.08537 15.5678 8.88803 14.6244C8.70341 13.7463 8.43179 12.8961 8.11031 12.0645C7.79519 11.2516 7.40686 10.4818 6.99413 9.72474C6.97079 9.68281 6.94745 9.64205 6.99838 9.52325H6.99944ZM10.8403 18.5924C10.8222 20.2602 10.7575 21.9233 10.6843 23.5864C10.6376 24.6474 10.5867 25.7108 10.6387 26.7788C10.6748 27.523 10.7161 28.2684 10.7777 29.0091C10.9283 30.8213 11.2212 32.6125 11.5374 34.3991C11.6986 35.311 11.8779 36.2183 12.0657 37.1232C12.1676 37.6124 12.2737 38.1015 12.4435 38.5988C13.774 39.2254 15.0907 39.9184 16.4042 40.6218C16.1018 40.1269 15.7814 39.6563 15.4779 39.1742C14.6535 37.8604 13.9978 36.4454 13.444 34.9744C13.1204 34.1161 12.836 33.2403 12.5962 32.3481C12.3448 31.4106 12.0997 30.4707 11.9522 29.5052C11.8801 29.0335 12.1252 28.6597 12.5644 28.5386C12.8679 28.4547 13.2562 28.7319 13.3644 29.1395C13.4652 29.5204 13.5384 29.9094 13.6212 30.2949C13.8875 31.5212 14.2217 32.7243 14.6344 33.8995C15.1978 35.5043 15.8917 37.0382 16.783 38.4567C17.2519 39.2033 17.7633 39.9126 18.3904 40.5671C18.3787 40.4984 18.3766 40.4704 18.3681 40.4448C17.9649 39.1532 17.6318 37.8395 17.3602 36.506C17.2721 36.0739 17.2519 35.6196 17.0726 35.212C16.7267 34.427 16.3798 33.6444 16.035 32.8594C15.5564 31.7681 15.1193 30.6571 14.6885 29.5425C14.2313 28.3569 13.7835 27.1654 13.374 25.9588C13.044 24.9887 12.6896 24.0278 12.3713 23.053C11.8832 21.5599 11.3878 20.0692 10.8403 18.5924Z" fill="#F5F0ED"/>
<path d="M82.8253 45.7801C82.924 45.4563 83.0948 45.1838 83.2327 44.8961C84.0804 43.1247 84.7945 41.2927 85.359 39.3896C85.7356 38.1178 86.055 36.8297 86.2651 35.5125C86.3818 34.7788 86.7202 34.1545 87.012 33.507C87.4895 32.4471 87.9351 31.3722 88.3712 30.2914C89.1393 28.3871 89.8449 26.4538 90.5208 24.5089C90.9791 23.1881 91.4035 21.8534 91.8576 20.5304C92.4083 18.9278 92.908 17.302 93.6253 15.7716C94.3605 14.2052 95.2348 12.7435 96.2799 11.4053C96.751 10.8009 97.2348 10.2116 97.7876 9.69329C97.8449 9.63855 97.8863 9.55121 97.9828 9.56868C98.0412 9.64321 97.986 9.69446 97.9552 9.7492C97.0459 11.382 96.368 13.1139 96.003 14.9948C95.7791 16.1466 95.6475 17.302 95.6465 18.4771C95.6465 19.4263 95.621 20.3767 95.6613 21.3235C95.7303 22.9587 95.8152 24.595 95.7993 26.2314C95.7855 27.6825 95.7059 29.1325 95.5138 30.5744C95.3483 31.8194 95.1658 33.0621 94.9515 34.2978C94.6481 36.0471 94.3266 37.7929 93.847 39.4991C93.7961 39.6808 93.708 39.7926 93.5457 39.8695C91.29 40.934 89.0916 42.1277 86.9293 43.4042C85.6391 44.1659 84.3457 44.9241 83.081 45.7358C83.0152 45.7778 82.9526 45.8453 82.8274 45.7801H82.8253ZM86.5887 40.524C86.9282 40.2142 87.2072 39.8532 87.4778 39.484C88.4836 38.1178 89.2613 36.6049 89.9043 35.0012C90.5218 33.4627 90.994 31.8741 91.3462 30.2413C91.429 29.8558 91.5054 29.4668 91.6157 29.0906C91.7282 28.7074 92.1017 28.4605 92.3924 28.5351C92.82 28.6445 93.0544 29.0009 93.0152 29.4679C92.977 29.9338 92.8518 30.381 92.7457 30.8283C92.4136 32.2247 92.0337 33.606 91.5245 34.9407C90.9494 36.4454 90.2905 37.9012 89.4396 39.244C89.1499 39.7006 88.8475 40.1467 88.5133 40.6568C88.9812 40.4064 89.3876 40.1804 89.8014 39.9685C90.6247 39.5469 91.4513 39.1322 92.2767 38.7141C92.4125 38.6454 92.5515 38.586 92.5908 38.3939C92.6438 38.14 92.7149 37.8896 92.7733 37.6368C92.925 36.9904 93.0523 36.3371 93.1796 35.6837C93.4035 34.5388 93.5998 33.3882 93.7791 32.234C93.8958 31.4805 93.9871 30.7223 94.0762 29.9629C94.2141 28.789 94.2916 27.6138 94.3139 26.4329C94.3499 24.5135 94.2056 22.6 94.1579 20.683C94.1398 19.9702 94.1547 19.2563 94.1547 18.5284C94.0741 18.5703 94.0751 18.6343 94.0582 18.6856C93.6083 20.0098 93.1552 21.3317 92.7117 22.6582C92.2841 23.9405 91.8481 25.2181 91.3961 26.4899C90.8995 27.8887 90.3818 29.2781 89.8375 30.6536C89.2253 32.1991 88.578 33.7282 87.8842 35.2318C87.8322 35.3436 87.7834 35.4636 87.7653 35.5847C87.6592 36.2928 87.5054 36.9881 87.3452 37.6822C87.1245 38.6373 86.8741 39.583 86.5876 40.5217L86.5887 40.524Z" fill="#F5F0ED"/>
<path d="M36.7118 15.1066C37.6721 13.0813 43.1978 8.91647 45.0545 8.81049C45.1988 9.10747 45.3368 9.4196 45.497 9.71659C46.037 10.7205 46.6811 11.6418 47.358 12.5385C48.2991 13.7859 49.3017 14.9715 50.3235 16.1385C50.3532 16.1723 50.3755 16.2142 50.4147 16.2724C50.3139 16.5112 50.1325 16.6882 49.9765 16.8769C48.4497 18.7217 46.82 20.4559 45.1988 22.1982C44.3543 23.1066 43.5086 24.0127 42.6938 24.9526C42.6227 25.0341 42.559 25.1319 42.3988 25.182C41.0715 21.4412 39.0598 18.1627 36.7118 15.1066ZM44.3309 10.7601C42.1495 11.7978 40.2535 13.2094 38.6259 15.1148C40.0116 16.9957 41.2243 18.9604 42.3044 21.037C42.384 20.4815 42.4275 19.9353 42.4837 19.3902C42.611 18.158 42.7235 16.9258 42.7256 15.6843C42.7256 15.2382 42.7171 14.7921 42.7161 14.3461C42.7161 14.013 42.8551 13.7707 43.1256 13.624C43.393 13.4796 43.6413 13.5401 43.8715 13.7265C44.1325 13.9385 44.2047 14.2506 44.2047 14.5767C44.2047 15.371 44.2291 16.1653 44.1707 16.9596C44.0667 18.3781 43.9596 19.7967 43.7941 21.2082C43.7877 21.2653 43.7346 21.3363 43.8365 21.4074C45.375 19.7291 46.9548 18.0893 48.4402 16.3167C46.9463 14.5534 45.5193 12.8099 44.332 10.7601H44.3309Z" fill="#F5F0ED"/>
<path d="M54.5208 16.2899C55.5245 15.0891 56.541 13.9478 57.4694 12.7191C58.3935 11.4962 59.2858 10.25 59.9033 8.81165C61.8121 8.94442 67.3526 13.1279 68.2418 15.1171C65.9097 18.1487 63.8991 21.4283 62.542 25.2554C59.8853 22.1924 57.0259 19.4589 54.5208 16.2899ZM56.5272 16.3132C57.9967 18.1312 59.6221 19.7431 61.2062 21.4994C61.1553 21.0836 61.1012 20.7505 61.0747 20.4139C60.9993 19.4403 60.8975 18.4701 60.8264 17.4953C60.7511 16.4681 60.7447 15.4432 60.7659 14.4171C60.7765 13.9152 61.1542 13.5262 61.5617 13.5436C61.9776 13.5611 62.2598 13.935 62.2492 14.4684C62.2428 14.7968 62.2078 15.1264 62.2152 15.4548C62.2492 16.9258 62.3617 18.3921 62.5166 19.8537C62.5579 20.2427 62.5526 20.6399 62.6672 21.0871C63.7399 18.9441 64.9675 16.9805 66.3394 15.1078C64.6937 13.2105 62.8126 11.7862 60.6333 10.7718C59.4418 12.8029 58.0105 14.5627 56.5272 16.3143V16.3132Z" fill="#F5F0ED"/>
<path d="M57.689 10.2733C56.4826 12.0529 55.1309 13.6415 53.7378 15.2266C53.2635 14.7327 52.9336 14.1539 52.4826 13.6415C52.0338 14.1399 51.7092 14.7223 51.2381 15.2301C49.828 13.6554 48.4742 12.0482 47.2667 10.2582C49.6169 7.27314 51.4439 3.98533 52.4699 0.169922C52.8062 1.06554 53.046 1.99144 53.3972 2.86959C53.7569 3.76637 54.1452 4.64569 54.5898 5.49588C55.0301 6.33676 55.516 7.14387 56.0221 7.93933C56.5325 8.74294 57.1182 9.479 57.69 10.2721L57.689 10.2733ZM51.1415 12.7808C51.7293 12.2742 51.7442 12.2404 51.7442 11.5125C51.7442 10.3688 51.7442 9.22394 51.7442 8.08025C51.7442 7.91487 51.7505 7.74949 51.793 7.58993C51.9054 7.16134 52.3808 6.92258 52.7479 7.10078C53.1161 7.28013 53.2275 7.61089 53.2264 8.01969C53.2243 9.22161 53.2603 10.4259 53.2105 11.6255C53.1871 12.195 53.497 12.4454 53.8184 12.7936C54.5092 11.9714 55.1914 11.1817 55.8025 10.2989C54.5187 8.53679 53.4089 6.67335 52.4826 4.66083C51.5394 6.67801 50.4434 8.55543 49.1606 10.3082C49.7972 11.1841 50.4487 11.9923 51.1415 12.7796V12.7808Z" fill="#F5F0ED"/>
<path d="M52.4943 26.1044C53.0513 26.1091 53.5543 26.6774 53.5447 27.2889C53.5341 27.9236 53.0503 28.4372 52.4667 28.4361C51.8885 28.4337 51.4121 27.8992 51.4195 27.2609C51.4269 26.6437 51.932 26.0998 52.4943 26.1056V26.1044Z" fill="#F5F0ED"/>
<path d="M46.2291 29.6473C46.7829 29.5798 47.2285 30.1563 47.2264 30.713C47.2232 31.3081 46.7659 31.8054 46.2269 31.8054C45.688 31.8054 45.2307 31.3046 45.2338 30.7083C45.237 30.0538 45.7368 29.5798 46.2291 29.6473Z" fill="#F5F0ED"/>
<path d="M58.7564 29.6473C59.3251 29.6473 59.707 30.0747 59.707 30.7071C59.707 31.3291 59.2816 31.8101 58.7341 31.8066C58.1951 31.8031 57.7314 31.3058 57.7367 30.7141C57.742 30.0841 58.211 29.5833 58.7564 29.6485V29.6473Z" fill="#F5F0ED"/>
<path d="M53.2848 24.0092C53.2816 24.517 52.941 24.8897 52.4816 24.8897C52.0169 24.8897 51.6657 24.4949 51.672 23.9813C51.6784 23.5061 52.0667 23.081 52.4922 23.0973C52.9092 23.1124 53.3421 23.5666 53.2848 24.0092Z" fill="#F5F0ED"/>
<path d="M53.1691 21.1512C53.1479 21.5483 52.7818 21.9315 52.4529 21.8989C52.0879 21.8639 51.7707 21.4726 51.7951 21.0848C51.8184 20.7063 52.1707 20.3406 52.5017 20.351C52.8476 20.3627 53.1893 20.7715 53.1691 21.15V21.1512Z" fill="#F5F0ED"/>
<path d="M40.523 41.4837C39.88 41.5734 39.2519 40.828 39.2699 40.1432C39.289 39.3989 39.8259 38.7887 40.4943 38.7863C41.1999 38.784 41.758 39.3931 41.7559 40.1595C41.7537 40.9246 41.1341 41.5617 40.524 41.4837H40.523Z" fill="#F5F0ED"/>
<path d="M42.4593 42.356C42.4625 41.7329 42.9697 41.1727 43.5182 41.1844C44.089 41.1972 44.5887 41.7632 44.5834 42.3909C44.5781 43.0047 44.0636 43.5754 43.514 43.5591C42.9368 43.5428 42.4084 42.9709 42.4593 42.3548V42.356Z" fill="#F5F0ED"/>
<path d="M46.5304 43.6243C47.0248 43.6301 47.4047 44.0611 47.4015 44.6154C47.3994 45.1465 46.9824 45.6054 46.5092 45.5961C46.0307 45.5879 45.6296 45.1279 45.6349 44.5933C45.6402 44.0482 46.037 43.6173 46.5293 43.6231L46.5304 43.6243Z" fill="#F5F0ED"/>
<path d="M49.5161 47.5911C49.0757 47.6307 48.8084 47.159 48.7903 46.8306C48.7712 46.4731 49.1744 46.0363 49.5065 46.027C49.8842 46.0165 50.2545 46.4276 50.2492 46.8516C50.2439 47.265 49.9182 47.5946 49.5161 47.5911Z" fill="#F5F0ED"/>
<path d="M64.4465 41.4837C63.8089 41.5606 63.2083 40.9037 63.2009 40.1327C63.1935 39.4001 63.7632 38.7875 64.4359 38.7863C65.133 38.7852 65.6847 39.3838 65.6953 40.135C65.706 40.8513 65.0874 41.5699 64.4476 41.4837H64.4465Z" fill="#F5F0ED"/>
<path d="M62.5091 42.3863C62.5102 42.9989 62.0052 43.5591 61.4492 43.5614C60.8922 43.5649 60.3829 43.007 60.3818 42.3944C60.3808 41.7411 60.8826 41.1809 61.4693 41.1844C62.0105 41.1867 62.5081 41.762 62.5091 42.3863Z" fill="#F5F0ED"/>
<path d="M58.4423 43.6243C58.9293 43.6208 59.3282 44.0611 59.3293 44.6038C59.3314 45.1372 58.924 45.5961 58.4487 45.5972C57.9712 45.5984 57.5648 45.1453 57.5638 44.6108C57.5627 44.0599 57.9479 43.6278 58.4423 43.6243Z" fill="#F5F0ED"/>
<path d="M55.4343 47.5911C55.0397 47.5911 54.7235 47.2569 54.7161 46.8364C54.7097 46.4265 55.0725 46.0247 55.4407 46.034C55.8057 46.0421 56.1898 46.4591 56.1643 46.8469C56.1389 47.2441 55.8397 47.6342 55.4333 47.5911H55.4343Z" fill="#F5F0ED"/>
<path d="M39.5405 52.5584C39.4906 51.8235 40.1124 51.0653 40.8837 51.0851C41.672 51.1049 42.2079 51.721 42.2121 52.5537C42.2163 53.355 41.689 54.0095 40.8572 54.0247C40.0763 54.0386 39.4736 53.2327 39.5405 52.5584Z" fill="#F5F0ED"/>
<path d="M65.4269 52.5607C65.4301 53.3759 64.8423 54.0188 64.0826 54.0305C63.3972 54.041 62.698 53.3224 62.7383 52.5654C62.7829 51.7152 63.2699 51.1084 64.089 51.0851C64.8529 51.0641 65.4768 51.8211 65.4269 52.5595V52.5607Z" fill="#F5F0ED"/>
<path d="M19.8843 59.799C20.5665 59.8037 21.1575 60.4559 21.149 61.1943C21.1395 61.9734 20.5708 62.6012 19.862 62.5954C19.2159 62.5895 18.5994 62.0631 18.5941 61.2013C18.5888 60.372 19.2137 59.7874 19.8832 59.8002L19.8843 59.799Z" fill="#F5F0ED"/>
<path d="M25.4174 68.0716C24.8721 68.0716 24.4169 67.5801 24.4286 66.9826C24.4424 66.3036 24.8806 65.8855 25.4143 65.8832C25.9288 65.8808 26.3936 66.3013 26.4042 66.9814C26.4127 67.5812 25.9639 68.0716 25.4185 68.0716H25.4174Z" fill="#F5F0ED"/>
<path d="M27.618 67.8945C27.6158 67.3984 28.001 66.964 28.453 66.9535C28.9188 66.943 29.3209 67.3786 29.3177 67.8922C29.3145 68.3918 28.9241 68.8216 28.4699 68.8239C28.0264 68.8251 27.6201 68.3825 27.618 67.8957V67.8945Z" fill="#F5F0ED"/>
<path d="M32.2864 68.6061C32.2832 69.0301 31.9617 69.3993 31.5946 69.4004C31.2317 69.4004 30.8583 68.9823 30.8721 68.5921C30.8859 68.2008 31.2519 67.8258 31.6105 67.8328C31.9713 67.8409 32.2896 68.2043 32.2864 68.6061Z" fill="#F5F0ED"/>
<path d="M35.2625 68.9707C35.2625 69.3294 35.0344 69.5833 34.7172 69.5786C34.4169 69.574 34.1463 69.2816 34.1485 68.966C34.1506 68.6737 34.4572 68.3592 34.732 68.3651C35.0153 68.372 35.2614 68.6527 35.2614 68.9707H35.2625Z" fill="#F5F0ED"/>
<path d="M13.7273 57.6013C13.2541 57.6036 12.8795 57.2077 12.871 56.6987C12.8626 56.156 13.2774 55.7495 13.7145 55.7367C14.1336 55.7239 14.5655 56.2131 14.5718 56.6743C14.5793 57.1541 14.174 57.599 13.7262 57.6013H13.7273Z" fill="#F5F0ED"/>
<path d="M16.8498 53.6159C17.236 53.6229 17.5957 54.0154 17.5787 54.4113C17.5607 54.8143 17.1893 55.2021 16.8222 55.1998C16.436 55.1975 16.0986 54.8201 16.1029 54.3962C16.1071 53.9268 16.4116 53.6089 16.8498 53.6159Z" fill="#F5F0ED"/>
<path d="M19.9235 53.9303C19.6148 53.928 19.3018 53.5996 19.2997 53.277C19.2965 52.9182 19.6148 52.5782 19.9501 52.5817C20.2673 52.5852 20.5602 52.9019 20.5655 53.2467C20.5708 53.6205 20.2769 53.9338 19.9246 53.9315L19.9235 53.9303Z" fill="#F5F0ED"/>
<path d="M24.018 53.341C24.0201 53.6543 23.8015 53.9164 23.5363 53.9199C23.2721 53.9233 23.0068 53.6357 23.0068 53.3433C23.0068 53.072 23.2721 52.7773 23.5193 52.775C23.7856 52.7727 24.0158 53.0335 24.018 53.3399V53.341Z" fill="#F5F0ED"/>
<path d="M27.0302 54.2273C27.0259 54.4509 26.8127 54.6792 26.6174 54.6699C26.4116 54.6594 26.2227 54.4288 26.2323 54.2005C26.2418 53.9816 26.4434 53.758 26.6238 53.7661C26.8116 53.7754 27.0344 54.0282 27.0302 54.2273Z" fill="#F5F0ED"/>
<path d="M85.0895 59.799C85.7791 59.799 86.3499 60.4186 86.3605 61.1838C86.3712 61.9513 85.7855 62.6 85.0863 62.5965C84.4019 62.593 83.8184 61.956 83.8131 61.2094C83.8078 60.4512 84.3966 59.8013 85.0895 59.8002V59.799Z" fill="#F5F0ED"/>
<path d="M78.5621 66.9849C78.559 66.3304 79.0078 65.8971 79.5457 65.882C79.9839 65.8704 80.5335 66.257 80.5377 66.9803C80.542 67.5731 80.0921 68.0657 79.5446 68.0716C78.9866 68.0762 78.5611 67.6069 78.5621 66.9849Z" fill="#F5F0ED"/>
<path d="M77.3494 67.884C77.3494 68.3697 76.9218 68.8286 76.473 68.8239C76.038 68.8193 75.6571 68.3918 75.6508 67.9004C75.6433 67.3786 76.0306 66.9488 76.5027 66.9523C76.9558 66.9558 77.3494 67.3891 77.3494 67.8829V67.884Z" fill="#F5F0ED"/>
<path d="M74.0868 68.605C73.9478 69.1628 73.6614 69.4493 73.2943 69.3969C72.959 69.3492 72.6852 69.0103 72.681 68.6387C72.6757 68.2265 72.9261 67.891 73.2773 67.8386C73.655 67.7816 73.9362 68.0483 74.0868 68.6061V68.605Z" fill="#F5F0ED"/>
<path d="M70.228 69.5786C69.9256 69.574 69.6784 69.2956 69.6826 68.9625C69.6858 68.6376 69.9563 68.3499 70.2449 68.3627C70.5293 68.3755 70.8073 68.6865 70.803 68.9858C70.7988 69.3014 70.5261 69.5833 70.228 69.5786Z" fill="#F5F0ED"/>
<path d="M91.2475 57.6013C90.7839 57.6013 90.3892 57.1646 90.3955 56.658C90.4009 56.2002 90.8125 55.7449 91.2316 55.7344C91.6571 55.7227 92.0974 56.2072 92.0963 56.6871C92.0953 57.1855 91.7091 57.6013 91.2475 57.6013Z" fill="#F5F0ED"/>
<path d="M88.1399 53.6159C88.5568 53.6159 88.8656 53.949 88.8645 54.3939C88.8645 54.8155 88.5208 55.1963 88.1399 55.1998C87.7685 55.2033 87.3855 54.805 87.3844 54.4148C87.3834 53.9897 87.7377 53.6147 88.1399 53.6159Z" fill="#F5F0ED"/>
<path d="M85.0194 53.9315C84.6693 53.9257 84.3956 53.6217 84.403 53.2455C84.4094 52.8915 84.7001 52.5805 85.0226 52.5828C85.3505 52.5852 85.6719 52.9252 85.6666 53.2641C85.6613 53.6054 85.3409 53.9361 85.0205 53.9315H85.0194Z" fill="#F5F0ED"/>
<path d="M80.9505 53.3608C80.9473 53.0464 81.1563 52.7913 81.43 52.7773C81.6826 52.7645 81.9616 53.0697 81.9563 53.3562C81.951 53.6357 81.6964 53.9175 81.446 53.9222C81.1786 53.9268 80.9537 53.6729 80.9505 53.362V53.3608Z" fill="#F5F0ED"/>
<path d="M78.7309 54.2296C78.7245 54.4637 78.5229 54.6804 78.3213 54.6699C78.125 54.6594 77.9266 54.4148 77.9383 54.1959C77.9478 53.999 78.194 53.7545 78.3712 53.7661C78.56 53.7789 78.7372 54.0072 78.7309 54.2296Z" fill="#F5F0ED"/>
<path d="M68.8635 25.1529C68.7998 24.4739 69.4301 23.5713 70.3171 23.5515C71.1107 23.534 71.7951 24.3062 71.7908 25.1937C71.7866 26.059 71.1287 26.7753 70.3309 26.7834C69.5086 26.7916 68.8635 26.073 68.8635 25.1529Z" fill="#F5F0ED"/>
<path d="M82.0635 32.9223C81.4736 32.92 80.9473 32.3621 80.9643 31.725C80.9823 31.0624 81.4332 30.4975 82.0847 30.5057C82.7266 30.5138 83.1701 31.0682 83.1828 31.7169C83.1966 32.3703 82.6714 32.9258 82.0635 32.9223Z" fill="#F5F0ED"/>
<path d="M80.1728 28.4931C79.7664 28.4955 79.3622 28.0412 79.3632 27.5859C79.3643 27.1247 79.7674 26.6833 80.1812 26.6902C80.5855 26.6972 81.0067 27.1631 81.0025 27.5987C80.9982 28.0424 80.5823 28.492 80.1738 28.4943L80.1728 28.4931Z" fill="#F5F0ED"/>
<path d="M33.1776 25.1844C33.1766 24.3039 33.8386 23.5573 34.6301 23.5492C35.4121 23.541 36.1028 24.2969 36.1049 25.1622C36.1071 26.0532 35.462 26.7718 34.6503 26.7834C33.8471 26.7951 33.1787 26.0695 33.1776 25.1844Z" fill="#F5F0ED"/>
<path d="M22.8647 32.9223C22.2907 32.9177 21.7676 32.3586 21.7856 31.7355C21.81 30.9261 22.2917 30.5173 22.8859 30.508C23.5257 30.4987 23.983 31.0414 23.9978 31.732C24.0116 32.3889 23.4779 32.927 22.8647 32.9223Z" fill="#F5F0ED"/>
<path d="M24.801 28.4931C24.3861 28.4955 23.9787 28.0622 23.9681 27.6068C23.9575 27.1468 24.3734 26.6879 24.7999 26.6902C25.1914 26.6914 25.5967 27.1398 25.6031 27.5766C25.6095 28.0296 25.2052 28.492 24.8021 28.4931H24.801Z" fill="#F5F0ED"/>
<path d="M48.0009 77.072C48.3405 77.1 48.6874 77.1512 48.9633 77.4377C49.2625 77.7487 49.2816 78.1225 49.0131 78.4649C48.5612 79.0426 47.3633 79.0077 46.9389 78.4055C46.7033 78.0713 46.7161 77.8185 46.9813 77.5029C47.2529 77.1803 47.6052 77.0883 48.0009 77.072Z" fill="#F5F0ED"/>
<path d="M56.9824 77.0708C57.3813 77.0918 57.7452 77.1896 58.0094 77.5367C58.2694 77.8791 58.2471 78.2075 57.9415 78.5069C57.619 78.8225 57.2264 78.911 56.8062 78.8667C56.4444 78.8283 56.1123 78.72 55.8906 78.3671C55.7134 78.0864 55.7293 77.7708 55.9341 77.5146C56.2152 77.164 56.5951 77.0965 56.9824 77.0697V77.0708Z" fill="#F5F0ED"/>
<path d="M41.9362 15.2534C41.9373 15.8031 41.532 16.2468 41.028 16.2433C40.4466 16.2398 40.1134 15.7565 40.1081 15.2557C40.1039 14.7362 40.4975 14.2529 41.0259 14.2739C41.5437 14.2948 41.9352 14.6966 41.9362 15.2534Z" fill="#F5F0ED"/>
<path d="M45.7442 15.6773C46.0911 15.6761 46.3574 15.9568 46.3596 16.3248C46.3606 16.6509 46.0678 16.9701 45.7601 16.9759C45.4195 16.9817 45.1235 16.6637 45.132 16.3004C45.1405 15.9545 45.41 15.6784 45.7442 15.6773Z" fill="#F5F0ED"/>
<path d="M63.9436 14.2785C64.4571 14.2797 64.8423 14.6955 64.8391 15.2429C64.8349 15.8205 64.4327 16.2584 63.9118 16.2503C63.4343 16.2433 63.028 15.7833 63.029 15.251C63.029 14.6873 63.4163 14.2762 63.9436 14.2785Z" fill="#F5F0ED"/>
<path d="M59.2052 15.6773C59.5797 15.6726 59.8036 15.9102 59.8068 16.3167C59.8089 16.68 59.5606 16.9677 59.237 16.9759C58.9176 16.984 58.5877 16.6405 58.593 16.305C58.5983 15.9684 58.8773 15.6819 59.2052 15.6773Z" fill="#F5F0ED"/>
<path d="M66.5548 96.9198C66.8351 97.2944 67.068 97.5803 67.5363 97.4417C67.6945 97.629 67.8527 97.8175 67.9673 97.9536C68.3447 97.9911 68.6834 97.85 68.8914 98.1896C69.3398 98.0385 69.493 98.6516 69.9078 98.5866C70.1992 98.9725 70.7136 99.1747 70.8369 99.6941C70.8643 99.8115 70.9428 99.8639 71.0088 99.9351C71.1496 100.087 71.3003 100.231 71.4647 100.396C71.4647 100.666 71.4684 100.954 71.4634 101.242C71.4597 101.41 71.4547 101.569 71.6204 101.679C71.664 101.708 71.7125 101.777 71.71 101.824C71.6851 102.282 71.8446 102.777 71.5344 103.18C71.3949 103.362 71.5768 103.591 71.3713 103.742C71.1732 103.886 71.1483 104.186 70.8531 104.275C70.7074 104.319 70.5941 104.492 70.5791 104.715C70.5691 104.868 70.482 105.068 70.3188 105.159C69.8592 105.416 69.5777 105.904 69.1007 106.122C68.8628 106.23 68.6598 106.36 68.4493 106.511C68.26 106.647 67.9909 106.686 67.7692 106.812C67.6061 106.906 67.4167 106.959 67.2038 106.953C66.4378 106.932 65.6705 106.947 64.9045 106.944C64.7264 106.944 64.567 106.92 64.3889 106.838C64.1473 106.727 63.867 106.632 63.5781 106.697C63.329 106.753 63.1371 106.515 62.8831 106.569C62.6302 106.622 62.4434 106.435 62.2242 106.365C61.8929 106.26 61.5068 106.247 61.1979 106.359C60.9675 106.443 60.7694 106.395 60.5726 106.454C60.4966 106.308 60.4979 106.159 60.3621 106.103C60.5315 105.743 60.8541 105.615 61.1119 105.465C61.5915 105.185 61.7447 104.786 61.7584 104.283C61.7658 104.013 61.7584 103.742 61.7584 103.472C61.7584 102.912 61.7895 102.349 61.7496 101.79C61.711 101.255 61.9527 100.753 61.8817 100.221C61.8555 100.027 61.9452 99.8277 61.7745 99.6354C61.7123 99.5655 61.7235 99.3433 61.8331 99.1785C61.9427 99.0137 61.9527 98.7827 61.7447 98.6378C61.5952 98.533 61.6351 98.3844 61.6351 98.2458C61.6326 97.6015 61.6351 96.9573 61.6326 96.3143C61.6326 96.117 61.5989 95.9335 61.5317 95.7349C61.4545 95.5052 61.3224 95.2592 61.381 94.9833C61.4246 94.7748 61.3274 94.6 61.1057 94.6025C60.8703 94.6062 60.8155 94.3977 60.6212 94.3004C60.7619 94.1593 60.889 94.0382 61.0086 93.9096C61.1231 93.7859 61.2352 93.6673 61.4283 93.7185C61.4669 93.7285 61.5329 93.7373 61.5491 93.7185C61.8655 93.329 62.3026 93.495 62.6925 93.4763C63.1272 93.4563 63.5631 93.4676 63.9978 93.4738C64.1336 93.4763 64.283 93.4201 64.4013 93.555C64.4325 93.5899 64.5309 93.6136 64.5658 93.5912C65.0328 93.2853 65.4937 93.7223 65.9582 93.5962C66.1662 93.54 66.3132 93.7497 66.5287 93.7285C66.6968 93.7123 66.8899 93.6536 67.0481 93.8284C67.0954 93.8808 67.2474 93.8584 67.3457 93.8421C67.6957 93.7847 68.0034 93.9882 68.3509 93.987C68.5626 93.987 68.6747 94.2329 68.7744 94.4402C68.8541 94.605 68.8466 94.7061 68.7719 94.8747C68.5664 95.3367 68.245 95.705 67.9249 96.0795C67.8763 96.137 67.8377 96.2206 67.7344 96.2169C67.2 96.1957 66.9646 96.6551 66.5548 96.9198ZM66.7529 106.072C67.0294 106.072 67.2573 106.075 67.4853 106.069C67.5625 106.067 67.6372 106.093 67.7169 106.029C68.037 105.775 68.3808 105.557 68.7345 105.346C69.1418 105.103 69.2601 104.582 69.4532 104.164C69.5453 103.964 69.5877 103.733 69.6998 103.518C69.9514 103.034 70.0348 102.492 69.9539 101.954C69.929 101.79 69.8355 101.624 69.8467 101.443C69.8592 101.252 69.8418 101.079 69.6637 100.958C69.5628 100.889 69.5042 100.72 69.5042 100.659C69.5042 100.34 69.2912 100.159 69.0832 100.026C68.8416 99.8727 68.6112 99.6979 68.3409 99.5755C67.834 99.3458 67.2698 99.2084 66.8687 98.7814C66.8027 98.7115 66.7292 98.7078 66.6483 98.7128C66.4153 98.7265 66.226 98.6328 66.0629 98.4755C65.9906 98.4056 65.9358 98.3207 65.8088 98.3369C65.0328 98.4343 64.2756 98.1696 63.5008 98.2108C63.0599 98.2346 63.0051 98.2658 63.0039 98.6953C63.0014 99.9613 63.0089 101.227 62.9976 102.493C62.9964 102.706 63.096 102.947 62.893 103.135C62.8694 103.158 62.8893 103.251 62.9142 103.297C63.0724 103.591 63.0624 103.93 63.1994 104.239C63.3128 104.494 63.3377 104.828 63.1533 105.11C62.9404 105.437 62.964 105.541 63.243 105.76C63.3601 105.852 63.4784 105.828 63.5905 105.818C63.882 105.79 64.1298 105.923 64.3764 106.027C64.6666 106.148 64.9867 105.958 65.257 106.15C65.4077 106.258 65.6145 106.243 65.7278 106.184C66.0815 106.002 66.4465 106.115 66.7516 106.073L66.7529 106.072ZM63.0039 96.3343C63.0039 96.4629 63.0039 96.5253 63.0039 96.5865C63.0076 97.2008 63.121 97.2969 63.73 97.217C63.7973 97.2082 63.8346 97.1645 63.887 97.1446C64.0663 97.0759 64.2494 96.9823 64.4337 96.9735C64.8385 96.9535 65.1748 96.7762 65.5373 96.6302C65.9358 96.4691 66.2883 96.2856 66.5636 95.9547C66.6159 95.891 66.6831 95.8411 66.713 95.8124V94.9533C66.4154 94.9246 66.3008 94.5538 65.9832 94.6C65.6917 94.6425 65.46 94.4414 65.1636 94.4589C64.5047 94.4964 63.8421 94.4702 63.2193 94.4702C63.0861 94.59 62.979 94.6862 62.8706 94.7835C62.9404 95.2218 62.7946 95.6101 62.6364 95.9659C62.7772 96.107 62.908 96.2381 63.0051 96.3355L63.0039 96.3343Z" fill="#F5F0ED"/>
<path d="M55.2891 102.893C54.8071 102.386 54.2728 101.993 53.7434 101.591C53.7272 101.578 53.7123 101.563 53.6998 101.547C53.508 101.312 53.163 101.607 52.9824 101.337C52.828 101.601 52.4805 101.332 52.2837 101.634C52.0545 101.988 51.7269 102.274 51.8066 102.749C51.8328 102.904 51.7369 103.004 51.6373 103.048C51.494 103.109 51.3184 103.128 51.1814 103.012C51.0544 102.905 50.9448 102.779 50.8277 102.661C50.7293 102.217 50.9099 101.884 51.2287 101.594C51.443 101.398 51.641 101.185 51.8702 100.955C52.1566 101 52.4307 100.944 52.676 100.719C52.757 100.646 52.8853 100.532 53.0522 100.581C53.1468 100.608 53.2427 100.589 53.3274 100.498C53.5977 100.212 53.8929 100.331 54.213 100.43C54.6053 100.552 54.847 100.838 55.1185 101.101C55.2493 101.227 55.3551 101.396 55.5831 101.337C55.6341 101.323 55.7226 101.335 55.7512 101.37C56.0863 101.765 56.5321 101.729 56.9444 101.699C57.3392 101.448 57.5173 101.04 57.8088 100.73C57.9794 100.549 57.9483 100.307 57.8487 100.105C57.5958 99.588 57.5858 99.593 57.9745 99.1997C58.0031 99.1697 58.033 99.141 58.0629 99.111C58.4814 99.2147 58.7367 99.4869 58.9908 99.8365C59.225 100.16 59.0879 100.466 59.1415 100.775C58.875 100.889 58.9659 101.215 58.7878 101.376C58.53 101.608 58.3381 101.91 58.0243 102.084C57.754 102.232 57.5448 102.482 57.1823 102.468C56.9755 102.461 56.8348 102.648 56.7825 102.86C56.7538 102.974 56.77 103.088 56.7264 103.211C56.5047 103.847 56.2482 104.3 55.7923 104.757C55.5868 104.963 55.38 105.168 55.177 105.375C55.0612 105.492 54.9578 105.62 54.761 105.579C54.685 105.562 54.6028 105.564 54.5381 105.637C54.3899 105.803 54.2018 105.941 53.9838 105.939C53.736 105.938 53.6886 106.268 53.3984 106.222C53.2813 106.203 53.1232 106.436 52.9612 106.574C52.7146 106.57 52.4307 106.544 52.1952 106.741C52.1492 106.78 52.1168 106.826 52.042 106.825C51.2487 106.812 50.4615 107.069 49.6706 106.935C49.2608 106.865 48.9158 106.535 48.4699 106.537C48.3155 106.227 47.887 106.222 47.7525 105.847C47.6877 105.667 47.5358 105.52 47.5719 105.299C47.6043 105.102 47.5295 104.954 47.3826 104.814C47.1845 104.627 47.1634 104.441 47.1957 104.123C47.2132 103.945 47.2418 103.756 47.0575 103.62C46.8769 103.485 46.9068 103.265 46.9865 103.12C47.2767 102.597 47.4199 102.01 47.7936 101.515C48.0676 101.15 48.4064 100.864 48.6953 100.526C48.8759 100.313 49.1151 100.144 49.1873 99.8564C49.2259 99.7004 49.3119 99.6304 49.4651 99.5818C49.6195 99.5318 49.7354 99.3932 49.8076 99.2509C49.901 99.0648 49.7217 98.6566 49.48 98.6016C49.1001 98.5155 48.8647 98.3369 48.8174 97.9411C48.4786 97.6889 48.5907 97.3206 48.5658 96.9848C48.5309 96.5103 48.7676 96.1632 49.0341 95.8036C49.3841 95.3317 49.9708 95.1781 50.3457 94.7498C50.7293 94.7723 50.9186 94.364 51.2985 94.3316C51.5102 94.3141 51.722 94.138 51.9088 94.0244C52.2501 93.8159 52.5851 93.716 52.9712 93.7235C53.2203 93.7285 53.4682 93.7235 53.7173 93.7235C53.9265 93.8646 54.0386 94.158 54.3687 94.1206C54.4123 94.1156 54.5455 94.2205 54.5443 94.3478C54.5418 94.5551 54.5543 94.7648 54.5406 94.9708C54.5294 95.1331 54.3537 95.2405 54.2005 95.1856C53.8256 95.0532 53.4507 94.9471 53.0447 94.9671C52.6723 94.9846 52.2986 94.9721 51.925 94.9708C51.4318 94.9696 51.017 95.1369 50.6271 95.4503C50.2834 95.7262 49.9384 95.9784 49.7129 96.3742C49.5298 96.6951 49.5423 96.8599 49.7142 97.1895C49.9259 97.594 50.2423 97.7863 50.6658 97.89C50.9609 97.9624 51.2337 98.1734 51.5277 98.1984C52.1043 98.2483 52.6972 98.277 53.2639 98.1896C53.6201 98.1347 54.0037 98.1209 54.3338 97.9386C54.4559 98.1709 54.6116 98.3644 54.4957 98.7452C54.4459 98.7877 54.3002 98.9025 54.1669 99.0299C53.9564 99.2309 53.7247 99.3658 53.4221 99.3358C53.0858 99.3021 52.747 99.392 52.4095 99.2234C52.204 99.121 51.4753 99.4144 51.1739 99.5131C50.8899 99.6055 50.6894 99.7715 50.4864 99.9601C50.1277 99.8539 50.0455 100.258 49.7777 100.356C49.5485 100.44 49.3841 100.708 49.1936 100.896C48.9868 101.101 48.7825 101.307 48.5683 101.522C48.582 101.875 48.6107 102.242 48.3217 102.53C48.3279 103.088 48.2121 103.687 48.6044 104.154C48.8373 104.431 48.942 104.774 49.1799 105.048C49.3368 105.229 49.4153 105.462 49.7092 105.452C49.7416 105.452 49.7777 105.485 49.8088 105.507C49.9409 105.602 50.0094 105.823 50.175 105.813C50.5499 105.792 50.8351 106.067 51.1926 106.072C51.5239 106.077 51.8565 106.077 52.1878 106.072C52.3634 106.069 52.3833 105.793 52.5826 105.826C52.8753 105.874 53.1032 105.781 53.2739 105.539C53.2975 105.505 53.3411 105.45 53.3598 105.455C53.7148 105.561 53.853 105.234 54.0947 105.114C54.3674 104.978 54.5256 104.748 54.7361 104.566C55.1372 104.219 55.2779 103.753 55.2879 103.238C55.2904 103.134 55.2879 103.03 55.2879 102.895L55.2891 102.893Z" fill="#F5F0ED"/>
<path d="M26.4716 121.674C26.9985 121.604 27.4805 121.872 27.9911 121.792C28.0497 121.784 28.1132 121.784 28.1556 121.845C28.3997 122.193 28.7883 122.086 29.0635 122.017C29.487 121.912 29.8544 121.946 30.2754 122.017C30.8396 122.112 31.4313 122.041 32.0117 122.041C32.2944 121.702 32.6506 121.93 32.9732 121.89C33.1999 121.862 33.4378 121.766 33.6695 121.8C33.9298 121.837 34.1041 121.594 34.3856 121.675C34.3856 121.123 34.3831 120.607 34.3869 120.093C34.3881 119.886 34.4093 119.681 34.2001 119.546C34.0929 119.478 34.139 119.359 34.1378 119.262C34.134 118.867 34.1353 118.472 34.1378 118.078C34.1378 117.998 34.1228 117.889 34.1664 117.843C34.4666 117.521 34.8091 117.264 35.255 117.176C35.5191 117.124 35.59 117.374 35.7582 117.49C35.7271 117.789 35.8566 118.133 35.6997 118.393C35.529 118.675 35.7968 119.022 35.5053 119.249C35.5477 119.519 35.3808 119.836 35.6897 120.046C35.7956 120.117 35.7594 120.234 35.7507 120.329C35.7233 120.646 35.8391 120.977 35.6361 121.279C35.5876 121.35 35.6287 121.483 35.6287 121.586C35.6287 122.375 35.6237 123.166 35.6324 123.955C35.6349 124.128 35.5676 124.313 35.7358 124.477C35.798 124.538 35.7731 124.719 35.7495 124.836C35.6631 125.249 35.6631 125.672 35.7495 126.106C35.7694 126.206 35.752 126.313 35.752 126.417C35.752 126.874 35.7781 127.333 35.7432 127.788C35.7146 128.157 35.9712 128.483 35.8666 128.84C35.6486 129.12 35.3248 129.292 35.2002 129.638C35.1815 129.691 35.1055 129.772 35.0732 129.764C34.8079 129.702 34.6895 129.948 34.4865 130.068C34.3844 129.965 34.296 129.884 34.2162 129.794C34.0743 129.636 34.073 129.411 34.1938 129.3C34.4155 129.096 34.3794 128.864 34.3819 128.623C34.3844 128.332 34.4143 128.036 34.3744 127.752C34.3184 127.356 34.4529 126.99 34.5189 126.62C34.6447 125.93 34.6721 125.835 34.5127 125.099C34.4828 124.96 34.5064 124.809 34.5064 124.664C34.5064 124.145 34.5127 123.625 34.504 123.106C34.499 122.852 34.3806 122.796 34.1216 122.86C33.6807 122.966 33.2298 122.948 32.7939 122.86C32.6867 122.839 32.5697 122.791 32.4538 122.791C30.5893 122.789 28.7235 122.787 26.859 122.791C26.4978 122.791 26.423 122.862 26.4193 123.206C26.4131 123.746 26.4255 124.286 26.4131 124.826C26.4093 125.024 26.494 125.24 26.3433 125.418C26.3072 125.462 26.286 125.481 26.3284 125.508C26.6572 125.725 26.5339 126.062 26.5376 126.355C26.5501 127.269 26.5426 128.181 26.5426 129.093C26.2225 129.396 25.9634 129.774 25.4627 129.811C25.3643 129.818 25.3133 129.998 25.1327 130.04C24.977 129.879 24.9072 129.674 24.9234 129.427C24.9346 129.249 24.9409 129.085 25.0343 128.91C25.1103 128.768 25.0106 128.542 25.2136 128.425C25.3531 128.345 25.3282 128.182 25.2896 128.09C25.0841 127.596 25.1862 127.082 25.1825 126.581C25.18 126.287 25.0604 125.966 25.2921 125.693C25.3095 125.672 25.2672 125.58 25.2336 125.538C25.1128 125.389 25.1402 125.2 25.1837 125.067C25.4216 124.342 25.2361 123.601 25.2971 122.872C25.0181 122.422 25.2884 121.888 25.0679 121.409C24.9571 121.169 25.0355 120.836 25.0517 120.545C25.0692 120.239 25.0268 119.946 24.9222 119.662C24.7192 119.113 24.7702 118.386 24.916 117.831C24.9459 117.717 25.0031 117.617 25.0804 117.593C25.2684 117.537 25.388 117.407 25.5076 117.274C25.5873 117.184 25.6745 117.175 25.7804 117.176C25.8999 117.176 26.0444 117.228 26.0855 117.027C26.2076 117.155 26.306 117.26 26.4181 117.379C26.4181 117.752 26.4068 118.147 26.423 118.539C26.4305 118.732 26.357 118.929 26.5289 119.123C26.6111 119.215 26.6124 119.515 26.5289 119.595C26.3097 119.808 26.5227 120.084 26.367 120.284C26.2076 120.488 26.3309 120.722 26.2948 120.94C26.2536 121.186 26.3371 121.409 26.4679 121.675L26.4716 121.674Z" fill="#F5F0ED"/>
<path d="M60.9064 121.196C61.3834 121.444 61.6562 121.845 62.1544 121.796C62.1992 121.792 62.2515 121.859 62.2976 121.893C62.5218 122.066 62.7846 122.172 63.0549 122.156C63.5656 122.126 64.0476 122.373 64.557 122.287C64.6828 122.266 64.7351 122.357 64.8148 122.418C64.9854 122.549 65.2009 122.618 65.3255 122.829C65.5111 122.64 65.7465 122.619 65.9333 122.565C66.1948 122.49 66.5548 122.422 66.7665 122.757C67.0318 122.775 67.1365 123.148 67.4478 123.066C67.8925 123.346 68.3097 123.638 68.3596 124.237C68.3745 124.423 68.4779 124.602 68.5389 124.784C68.7332 125.367 68.6286 125.648 68.1017 125.974C68.0668 125.995 68.0419 126.031 67.9946 126.08C68.2873 126.385 68.3857 126.71 68.0282 127.044C67.9585 127.542 67.5151 127.817 67.3046 128.237C67.1937 128.46 66.9484 128.649 66.6856 128.798C66.4564 128.928 66.2123 129.088 66.0118 129.296C65.8424 129.472 65.5111 129.437 65.3765 129.702C65.0452 129.741 64.8273 130.108 64.4524 130.024C63.6091 130.279 62.746 130.12 61.8928 130.133C61.6088 130.136 61.3162 129.992 61.0122 130.024C60.9923 130.027 60.9587 130.033 60.9525 130.024C60.6535 129.587 60.1927 129.857 59.8028 129.756C59.5413 129.426 59.1963 129.247 58.7691 129.131C58.4378 129.041 58.1488 128.773 57.9296 128.485C58.1401 127.96 58.2347 127.342 58.9123 127.155C59.0057 127.155 59.0867 127.245 59.0904 127.296C59.1465 127.975 59.819 128.142 60.1454 128.594C60.1877 128.652 60.2463 128.657 60.3085 128.652C60.4767 128.641 60.6386 128.638 60.7395 128.813C60.7856 128.893 60.8628 128.923 60.9512 128.9C61.2626 128.82 61.5204 129.109 61.833 129.029C61.8891 129.015 61.9576 129.013 61.9974 129.078C62.1619 129.337 62.4222 129.274 62.6613 129.275C63.0337 129.277 63.4074 129.274 63.7798 129.276C63.9442 129.277 64.1123 129.295 64.2132 129.123C64.2942 128.985 64.4312 129.018 64.5458 129.03C64.9219 129.07 65.1822 128.883 65.4475 128.644C65.7689 128.356 65.9744 127.976 66.2758 127.676C66.4564 127.496 66.3318 127.227 66.4738 127.008C66.6906 126.672 66.6719 126.226 66.9322 125.89C67.0518 125.737 67.0393 125.493 66.9683 125.362C66.85 125.142 66.7914 124.881 66.5934 124.705C66.226 124.377 65.7851 124.162 65.3666 123.912C65.0564 123.967 64.9929 123.63 64.7388 123.523C64.4723 123.725 64.1821 123.987 63.8072 123.668C63.7773 123.643 63.6901 123.641 63.6415 123.706C63.5705 123.799 63.4634 123.847 63.3912 123.734C63.2367 123.493 63.0051 123.538 62.7846 123.539C61.9626 123.545 61.2601 123.238 60.6336 122.724C60.5564 122.661 60.5078 122.574 60.4007 122.534C60.1591 122.444 59.9847 122.287 60.0146 121.993C59.6135 121.54 59.7966 120.988 59.773 120.476C59.7642 120.282 59.9125 120.122 60.0295 119.962C60.377 119.487 60.3733 119.484 60.387 119.127C60.7681 118.632 61.3074 118.341 61.7832 117.979C61.9215 117.874 62.0759 117.782 62.2067 117.66C62.2503 117.62 62.3063 117.55 62.3462 117.555C62.7174 117.611 62.9403 117.273 63.2666 117.216C63.5718 117.164 63.8732 117.102 64.1559 116.96C64.2556 116.91 64.3938 116.928 64.5134 116.927C64.8659 116.923 65.2246 116.968 65.5683 116.915C66.0541 116.841 66.4601 117.065 66.8948 117.181C67.1165 117.24 67.1975 117.603 67.0381 117.793C66.9521 117.896 66.8836 118.045 66.7117 118.048C66.6519 118.048 66.5598 118.033 66.5361 118.065C66.216 118.482 65.9046 118.291 65.6157 118.045C65.0676 117.578 64.41 117.635 63.781 117.696C63.5008 117.723 63.2417 117.979 62.9752 118.137C62.8917 118.186 62.8556 118.294 62.7311 118.301C62.3038 118.328 62.0087 118.628 61.833 118.942C61.6836 119.209 61.3087 119.351 61.3585 119.745C61.366 119.808 61.2277 119.896 61.1493 119.963C60.9861 120.103 60.9786 120.235 61.0745 120.439C61.1854 120.674 61.2352 120.948 60.9014 121.196H60.9064Z" fill="#F5F0ED"/>
<path d="M38.7411 95.0308C38.7411 94.8235 38.7411 94.615 38.7411 94.4065C38.9317 94.2167 39.0986 93.9907 39.319 93.8446C39.5395 93.6973 39.7388 93.5375 39.9019 93.3677C40.0962 93.5525 40.2893 93.736 40.4836 93.9208C40.3665 94.2267 40.8373 94.3253 40.7327 94.6275C41.0802 94.9546 41.0453 95.4565 41.282 95.8336C41.3119 95.8823 41.3592 95.9434 41.3505 95.9896C41.2658 96.4117 41.5186 96.7013 41.7142 97.0272C41.8599 97.2719 42.033 97.5116 41.9969 97.8537C41.9782 98.0335 42.1426 98.2445 42.2547 98.4206C42.3606 98.5854 42.5262 98.7565 42.5723 98.91C42.6271 99.0948 42.7641 99.2222 42.8065 99.3745C42.9099 99.7503 43.2337 100.035 43.2237 100.451C43.2188 100.647 43.4243 100.727 43.504 100.893C43.6086 101.111 43.788 101.346 43.976 101.498C44.2351 101.708 44.1529 102.088 44.4419 102.256C44.4817 102.279 44.463 102.41 44.4643 102.49C44.4668 102.757 44.4643 103.024 44.4643 103.256C44.6237 103.474 44.8628 103.51 45.0173 103.68C45.1481 103.824 44.9998 104.052 45.224 104.166C45.3772 104.245 45.4893 104.392 45.4744 104.622C45.4657 104.757 45.6811 104.829 45.7297 105.01C45.7721 105.168 46.0212 105.269 46.0673 105.427C46.1283 105.639 46.0822 105.881 46.0822 106.084C45.8518 106.314 45.6338 106.532 45.3673 106.798H44.8877C44.8354 106.639 44.7482 106.46 44.7221 106.273C44.6997 106.107 44.676 105.978 44.5589 105.836C44.392 105.632 44.275 105.38 44.2152 105.11C44.0769 104.487 43.6908 103.949 43.5937 103.311C43.2574 103.039 43.2262 102.581 42.9647 102.265C42.7828 102.045 42.5213 101.983 42.3382 102.171C42.0853 102.432 41.7565 102.396 41.5423 102.299C41.1711 102.13 40.7925 102.161 40.4674 102.235C40.166 102.304 39.8758 102.315 39.5794 102.326C39.1658 102.341 38.7274 102.245 38.3413 102.35C37.7509 102.511 37.1668 102.396 36.5602 102.473C36.5527 102.478 36.5229 102.505 36.4905 102.527C36.1579 102.748 36.057 103.14 35.8254 103.434C35.5314 103.806 35.453 104.294 35.1329 104.645C35.2325 105.154 34.7243 105.48 34.7355 105.987C34.7405 106.174 34.4839 106.373 34.3357 106.557C34.2199 106.702 34.0854 106.832 33.992 106.932C33.8437 106.968 33.7964 106.895 33.7267 106.855C33.3493 106.63 33.2882 106.445 33.4825 106.044C33.6108 105.778 33.7715 105.537 33.9583 105.304C34.1763 105.033 34.4565 104.773 34.388 104.361C34.3806 104.313 34.4142 104.22 34.4503 104.208C34.6957 104.118 34.7243 103.876 34.8489 103.697C34.9498 103.552 34.9635 103.409 35.0195 103.265C35.1378 102.962 35.2998 102.662 35.5053 102.412C35.656 102.229 35.6211 102.003 35.7444 101.819C35.8602 101.648 36.0209 101.516 36.0271 101.242C36.0321 100.995 36.2563 100.75 36.4631 100.562C36.5764 100.459 36.5963 100.336 36.6349 100.194C36.7296 99.8427 36.8542 99.4981 36.9874 99.1572C37.1157 98.8301 37.3138 98.5205 37.2465 98.1422C37.2428 98.1222 37.2378 98.0897 37.2465 98.081C37.5928 97.8188 37.4271 97.3156 37.7347 97.0359C37.7808 96.9947 37.8693 96.9311 37.8593 96.9061C37.7559 96.6227 38.1283 96.534 38.1047 96.323C38.0785 96.1008 38.2716 95.9534 38.2392 95.7499C38.1744 95.3454 38.4198 95.1644 38.7386 95.032L38.7411 95.0308ZM37.4931 99.3583C37.5118 99.8077 37.4358 100.159 37.1817 100.474C37.051 100.638 36.9737 100.845 36.9949 101.08C37.0236 101.407 37.1705 101.547 37.4607 101.417C37.7011 101.31 37.9166 101.284 38.1333 101.417C38.2168 101.468 38.2902 101.456 38.3662 101.453C39.5482 101.42 40.7364 101.554 41.9135 101.333C42.1227 101.294 42.2174 101.21 42.2236 100.975C42.2311 100.689 42.2248 100.402 42.2248 100.132C41.7627 99.8839 41.6843 99.8065 41.6108 99.377C41.5859 99.2309 41.49 99.171 41.4128 99.0848C41.069 98.699 40.8697 98.2333 40.7464 97.7464C40.7041 97.5778 40.6455 97.4592 40.5434 97.3294C40.3018 97.026 40.0726 96.7226 39.9704 96.323C39.9069 96.0771 39.7687 95.8036 39.4673 95.7125C39.3614 95.7799 39.2829 95.8498 39.2331 95.9747C39.1198 96.2593 39.0301 96.5927 38.8221 96.7875C38.6191 96.976 38.6838 97.2507 38.4933 97.408C38.6141 97.8001 38.1184 98.0285 38.2267 98.4168C37.9303 98.6878 37.929 99.1772 37.4931 99.3583Z" fill="#F5F0ED"/>
<path d="M42.4914 118.093C42.393 117.736 42.5188 117.449 42.8078 117.291C43.1366 117.111 43.3433 116.754 43.7843 116.666C43.864 116.861 43.9549 117.069 44.0782 117.259C44.2389 117.505 44.4593 117.759 44.4643 118.09C44.4643 118.174 44.4556 118.264 44.5403 118.308C44.9077 118.496 44.8691 118.896 44.9438 119.198C45.0808 119.753 45.2278 120.293 45.6015 120.734C45.7136 120.866 45.7111 120.99 45.7073 121.128C45.6986 121.422 45.7509 121.652 45.9714 121.901C46.1881 122.147 46.4571 122.415 46.4646 122.812C46.4683 122.981 46.7685 123.038 46.705 123.271C47.0101 123.564 46.8893 124.102 47.3091 124.329C47.4872 124.779 47.821 125.14 47.9941 125.605C48.09 125.863 47.9792 126.094 48.166 126.411C48.3889 126.553 48.5247 126.936 48.8037 127.201C48.7838 127.549 49.0665 127.758 49.1861 128.04C49.2757 128.25 49.4601 128.382 49.5871 128.552C49.7789 128.808 49.8499 129.043 49.8051 129.347C49.551 129.602 49.287 129.867 49.0055 130.149C48.9419 130.149 48.861 130.148 48.7813 130.149C48.5521 130.154 48.4251 130.04 48.45 129.814C48.4911 129.447 48.2831 129.168 48.1112 128.895C47.9704 128.673 47.8023 128.483 47.8235 128.201C47.826 128.161 47.8297 128.093 47.8135 128.085C47.4834 127.941 47.6304 127.579 47.476 127.346C47.3315 127.129 47.268 126.849 47.2094 126.588C47.1534 126.34 46.9479 126.202 46.8345 125.996C46.7125 125.771 46.5792 125.563 46.5518 125.278C46.4422 125.288 46.2915 125.261 46.2566 125.312C46.0847 125.564 45.8431 125.538 45.5952 125.536C45.1805 125.529 44.7657 125.523 44.351 125.538C44.1579 125.545 43.9399 125.446 43.773 125.652C43.7407 125.693 43.6124 125.645 43.5314 125.659C43.2574 125.708 43.0257 125.394 42.7318 125.58C42.4715 125.745 42.1726 125.618 41.8936 125.657C41.7391 125.678 41.5722 125.597 41.4327 125.754C41.3729 125.821 41.2322 125.813 41.1487 125.757C40.7028 125.461 40.3342 125.712 40.0153 125.964C39.8073 126.129 39.5856 126.385 39.5171 126.618C39.4262 126.924 39.2082 127.115 39.0812 127.376C39.0301 127.48 38.9168 127.577 38.9155 127.678C38.9081 128.111 38.6116 128.43 38.5033 128.819C38.4746 128.92 38.4696 129.02 38.3787 129.079C38.1757 129.209 38.2641 129.411 38.2467 129.588C38.0711 129.763 37.8955 129.939 37.6837 130.149C37.6426 130.149 37.5641 130.149 37.4857 130.149C37.325 130.146 37.1319 130.193 37.0522 130.004C36.965 129.797 36.9302 129.567 37.0933 129.377C37.3512 129.075 37.5293 128.718 37.7796 128.408C37.9503 128.199 38.2193 127.975 38.1259 127.621C38.1059 127.544 38.1196 127.467 38.1881 127.397C38.3413 127.242 38.5618 127.12 38.4983 126.841C38.72 126.722 38.7162 126.477 38.8097 126.286C38.9554 125.991 39.126 125.71 39.2904 125.426C39.3203 125.374 39.3863 125.341 39.3652 125.27C39.2854 124.995 39.4897 124.863 39.6379 124.695C39.7936 124.52 39.7388 124.22 39.9854 124.09C40.0029 124.08 39.9742 123.987 39.9941 123.975C40.3466 123.736 40.4164 123.394 40.3641 123.002C40.3566 122.946 40.3578 122.864 40.3915 122.83C40.6119 122.609 40.7128 122.359 40.7539 122.037C40.7888 121.76 40.9893 121.508 40.9868 121.203C40.9843 120.976 41.272 120.898 41.2596 120.619C41.2521 120.453 41.4987 120.263 41.5872 120.079C41.6656 119.916 41.5909 119.679 41.7952 119.542C41.901 119.471 41.8624 119.351 41.8525 119.258C41.8151 118.883 41.967 118.596 42.2348 118.354C42.3121 118.284 42.3818 118.208 42.4964 118.093H42.4914ZM40.7315 124.785H43.2823C43.5513 124.785 43.869 124.875 44.0794 124.763C44.3622 124.612 44.5615 124.833 44.7969 124.786C44.8566 124.775 44.9563 124.81 44.9775 124.78C45.2228 124.433 45.6064 124.584 45.9241 124.503C45.9975 124.484 46.0648 124.436 46.1084 124.414C46.0224 124.284 45.9714 124.24 45.9602 124.186C45.873 123.756 45.7347 123.366 45.4171 123.032C45.2951 122.905 45.1282 122.74 45.0995 122.551C45.0759 122.397 45.0472 122.266 44.9189 122.189C44.6499 122.031 44.7832 121.626 44.4805 121.495C44.4755 121.31 44.4718 121.126 44.4643 120.941C44.4631 120.903 44.4469 120.866 44.4369 120.828C44.2899 120.681 44.1417 120.536 43.9985 120.386C43.9312 120.315 43.8503 120.264 43.8391 120.14C43.8104 119.822 43.5738 119.587 43.4716 119.296C43.4206 119.152 43.3446 119.056 43.174 119.046C42.9983 119.034 42.9099 119.14 42.8514 119.27C42.6782 119.656 42.5113 120.044 42.3058 120.416C42.1775 120.649 42.1402 120.93 41.9783 121.152C42.0754 121.51 41.8163 121.747 41.6831 122.027C41.6058 122.191 41.5062 122.333 41.3779 122.463C41.2098 122.635 41.0703 122.841 41.1114 123.096C41.1475 123.321 41.0441 123.509 40.9233 123.639C40.7651 123.81 40.7153 123.974 40.7302 124.19C40.7427 124.373 40.7327 124.559 40.7327 124.786L40.7315 124.785Z" fill="#F5F0ED"/>
<path d="M72.3365 124.227C72.3365 125.145 72.3664 126.02 72.3278 126.891C72.2942 127.632 72.5744 128.346 72.4362 129.125C72.2917 129.267 72.1074 129.436 71.938 129.618C71.7437 129.828 71.4485 129.844 71.2218 130.009C71.086 130.108 70.8133 130.068 70.7186 129.811C70.675 129.671 70.8656 129.633 70.8469 129.487C70.7485 128.729 70.9914 127.989 70.9702 127.231C70.9341 125.999 71.162 124.776 71.1022 123.54C71.0786 123.055 70.8917 122.589 70.9652 122.096C70.9976 121.882 70.964 121.675 71.0698 121.451C71.1483 121.285 71.1545 121.013 71.035 120.8C70.9191 120.592 70.9478 120.388 71.0275 120.167C71.1483 119.83 71.1907 119.489 70.8432 119.239C70.8432 118.987 70.8432 118.737 70.8432 118.487C70.7111 118.355 70.5741 118.228 70.4483 118.089C70.2976 117.923 70.2976 117.789 70.4658 117.623C70.619 117.471 70.7311 117.234 71.0163 117.303C71.3787 117.033 71.7985 117.044 72.2195 117.052C72.4885 117.057 72.7613 117.03 73.0278 117.058C73.3778 117.095 73.7004 116.975 74.0342 116.927C74.3617 116.879 74.6644 116.997 74.9783 117.049C75.2909 117.102 75.6297 116.958 75.9211 117.178C76.3322 117.085 76.7071 117.375 77.1131 117.3C77.6088 117.209 77.9912 117.469 78.3823 117.695C78.6264 117.836 78.9079 117.903 79.1582 117.904C79.4185 117.904 79.4808 118.137 79.6764 118.179C79.8981 118.228 79.8819 118.419 79.9404 118.594C80.0127 118.81 80.1297 119.006 80.192 119.239C80.2817 119.576 80.0749 119.882 80.1995 120.217C79.6427 120.707 79.2529 121.34 78.7098 121.842C78.3835 122.144 78.0223 122.364 77.625 122.536C77.5552 122.566 77.4145 122.509 77.3871 122.549C77.2451 122.75 77.0184 122.764 76.8254 122.857C76.7021 122.917 76.6161 123.055 76.4966 123.176C76.0158 123.051 75.5923 123.344 75.134 123.443C75.0132 123.469 74.8824 123.538 74.7429 123.542C74.3655 123.549 73.9806 123.484 73.6506 123.768C73.5771 123.83 73.4127 123.789 73.2906 123.791C72.9145 123.798 72.5894 123.916 72.3365 124.231V124.227ZM77.7633 118.304C77.5017 118.273 77.209 118.388 77.0321 118.085C77.0122 118.052 76.92 118.065 76.8652 118.048C76.4218 117.907 75.9099 117.874 75.4018 117.917C75.251 117.929 75.0916 117.967 74.9309 117.854C74.7379 117.72 74.434 117.73 74.2858 117.821C74.0591 117.961 73.8523 117.899 73.6393 117.919C73.455 117.937 73.2669 117.921 73.0801 117.923C72.5458 117.931 72.3415 118.134 72.339 118.671C72.3353 119.481 72.3316 120.293 72.3428 121.103C72.3453 121.317 72.3079 121.524 72.4412 121.751C72.5296 121.903 72.5034 122.182 72.4162 122.404C72.3191 122.653 72.4025 122.779 72.6554 122.785C73.0901 122.795 73.5285 122.76 73.9607 122.796C74.3929 122.831 74.7852 122.584 75.2162 122.66C75.2461 122.665 75.2822 122.625 75.3171 122.608C75.6608 122.438 76.0282 122.384 76.4094 122.418C76.5364 122.282 76.6535 122.055 76.7606 122.06C77.1031 122.075 77.209 121.797 77.4008 121.635C77.5739 121.488 77.7035 121.278 77.8928 121.161C78.2403 120.945 78.4819 120.687 78.6438 120.293C78.8207 119.862 78.8444 119.674 78.6438 119.305C78.4196 118.897 78.041 118.646 77.7645 118.304H77.7633Z" fill="#F5F0ED"/>
<path d="M81.1187 130.15C81.029 130.15 80.9468 130.153 80.8646 130.15C80.4336 130.134 80.3028 129.92 80.5009 129.518C80.6117 129.292 80.7475 129.076 80.8957 128.873C81.1598 128.508 81.3105 128.069 81.6393 127.748C81.6032 127.307 82.1363 127.075 82.0553 126.604C82.0428 126.531 82.2757 126.428 82.2782 126.336C82.2882 125.991 82.6942 125.858 82.6718 125.494C82.6519 125.17 83.0044 124.997 83.0617 124.657C83.1127 124.351 83.3867 124.081 83.5873 123.827C83.8326 123.517 83.9348 123.209 83.9099 122.834C83.9049 122.752 83.9099 122.671 83.9099 122.604C84.0407 122.473 84.1577 122.355 84.2835 122.229V121.68C84.2835 121.618 84.2586 121.518 84.2873 121.499C84.5986 121.295 84.4753 120.907 84.6572 120.651C84.8266 120.413 84.9013 120.126 85.0993 119.896C85.2139 119.762 85.2687 119.537 85.27 119.353C85.275 118.927 85.4356 118.574 85.7308 118.299C85.9139 118.128 85.9002 117.944 85.9002 117.736C86.1618 117.475 86.4221 117.208 86.6911 116.949C86.939 116.711 87.1943 116.757 87.3986 117.017C87.6676 117.357 87.7274 117.804 88.0089 118.139C88.0861 118.231 87.9541 118.422 88.0736 118.545C88.1758 118.648 88.2779 118.751 88.39 118.862C88.39 119.039 88.395 119.224 88.3887 119.41C88.385 119.539 88.3887 119.657 88.5133 119.733C88.6366 119.808 88.6478 119.924 88.6428 120.054C88.6404 120.13 88.6017 120.225 88.6889 120.283C89.0775 120.535 89.1398 120.988 89.232 121.362C89.3353 121.777 89.5919 122.091 89.7626 122.453C89.8846 122.71 89.9195 123.006 90.125 123.244C90.3056 123.454 90.409 123.746 90.4987 124.019C90.5846 124.278 90.8113 124.424 90.952 124.634C91.1276 124.894 91.18 125.237 91.4552 125.429C91.5412 125.489 91.4976 125.582 91.5001 125.659C91.5063 125.888 91.5025 126.116 91.5025 126.36C91.8961 126.694 92.2548 127.084 92.4541 127.569C92.5911 127.904 92.7256 128.224 92.9959 128.465C93.1018 128.558 93.0731 128.718 93.1304 128.778C93.397 129.058 93.1778 129.329 93.1005 129.551C92.9959 129.851 92.6933 130.032 92.3906 130.15C92.2411 130.209 91.9497 130.017 91.8824 129.802C91.8475 129.691 91.789 129.566 91.7791 129.476C91.7492 129.198 91.7056 128.955 91.4527 128.795C91.3195 128.711 91.4365 128.535 91.3593 128.465C91.104 128.229 91.2036 127.863 91.0155 127.606C90.8387 127.362 90.749 127.086 90.7503 126.78C90.7503 126.73 90.6979 126.677 90.6618 126.632C90.4028 126.31 90.2085 125.961 90.125 125.544C90.0714 125.277 89.8223 125.187 89.633 125.371C89.4773 125.522 89.3229 125.539 89.1373 125.538C88.4747 125.536 87.8108 125.563 87.1495 125.531C86.4134 125.493 85.7022 125.723 84.9623 125.683C84.7344 125.67 84.5252 125.78 84.2511 125.683C83.8526 125.54 83.5238 125.83 83.2971 126.136C82.9957 126.541 82.7553 126.99 82.4725 127.41C82.3779 127.551 82.4925 127.745 82.4103 127.814C82.0129 128.147 82.2396 128.762 81.8186 129.07C81.8797 129.623 81.374 129.806 81.1224 130.153L81.1187 130.15ZM86.5292 118.921C86.4694 119.249 86.0696 119.394 86.1468 119.776C86.1605 119.846 86.1169 119.888 86.0733 119.932C85.6312 120.376 85.6362 121.046 85.2762 121.53C85.3323 121.922 85.0433 122.151 84.8365 122.403C84.7095 122.558 84.6659 122.699 84.6447 122.89C84.6136 123.156 84.5787 123.433 84.3657 123.644C84.1664 123.841 84.1415 124.097 84.154 124.366C84.1714 124.71 84.2349 124.783 84.5912 124.785C85.4394 124.789 86.2888 124.791 87.137 124.783C87.3301 124.78 87.543 124.865 87.7162 124.67C87.7486 124.634 87.9017 124.63 88.0001 124.705C88.1969 124.854 88.4498 124.856 88.6167 124.72C88.7935 124.575 88.953 124.513 89.1672 124.535C89.3578 124.554 89.4748 124.463 89.511 124.256C89.43 124.153 89.3042 124.057 89.2681 123.934C89.2245 123.784 89.2581 123.611 89.2581 123.475C89.085 123.302 88.9617 123.116 88.7873 123.018C88.5594 122.891 88.7163 122.625 88.5332 122.492C88.3377 122.348 88.3526 122.032 88.1708 121.907C87.9155 121.73 88.1272 121.419 87.9167 121.257C87.9578 120.911 87.7685 120.685 87.5231 120.486C87.3799 120.37 87.3674 120.177 87.269 120.032C87.0286 119.679 87.0262 119.179 86.5317 118.921H86.5292Z" fill="#F5F0ED"/>
<path d="M23.6654 117.303C23.7277 117.532 23.572 117.613 23.5433 117.758C23.4861 118.035 23.2818 118.23 22.9717 118.305C22.7126 118.368 22.4635 118.479 22.2206 118.591C22.1496 118.625 22.0948 118.675 22.0051 118.675C21.5493 118.67 21.0698 118.762 20.6425 118.651C20.0708 118.501 19.5104 118.579 18.9474 118.554C18.5189 118.535 18.4641 118.607 18.4604 119.042C18.4579 119.458 18.4591 119.873 18.4604 120.289C18.4604 120.474 18.4865 120.662 18.2885 120.78C18.1764 120.846 18.2736 120.891 18.3047 120.957C18.3894 121.132 18.2835 121.345 18.4492 121.525C18.5476 121.631 18.3545 121.774 18.3421 121.901C18.3147 122.178 18.3421 122.453 18.2213 122.726C18.144 122.902 18.3172 123.125 18.3134 123.293C18.3022 123.846 18.5152 124.368 18.4679 124.926C18.423 125.463 18.4567 126.006 18.4591 126.547C18.4591 126.653 18.443 126.735 18.3632 126.822C18.1204 127.084 18.1079 127.368 18.3707 127.622C18.4841 127.73 18.4554 127.845 18.4567 127.963C18.4604 128.42 18.4579 128.877 18.4579 129.34C18.2387 129.555 18.017 129.773 17.7741 130.012H16.9645V128.035C17.2585 127.646 16.9907 127.175 17.1626 126.745C17.322 126.348 17.1999 125.889 17.2086 125.457C17.2111 125.303 17.2659 125.141 17.124 124.99C17.0592 124.921 17.0542 124.739 17.0953 124.639C17.2821 124.188 17.2435 123.761 17.1053 123.299C17.0368 123.071 17.0305 122.782 17.1576 122.523C17.2547 122.323 17.2111 122.117 17.1451 121.89C17.053 121.574 16.9097 121.25 16.9645 120.903C17.0405 120.411 16.7777 119.952 16.8337 119.458C16.8636 119.197 16.7976 118.922 17.0716 118.738C17.1127 118.711 17.0866 118.584 17.0916 118.505C16.8848 118.31 16.637 118.286 16.3729 118.295C16.0416 118.306 15.709 118.295 15.3777 118.299C14.7699 118.305 14.1795 118.109 13.563 118.164C13.2056 118.196 12.8319 118.236 12.5193 118.358C12.0983 118.522 11.9301 118.326 11.7234 118.079C11.96 117.636 12.3026 117.226 12.5566 117.033C12.6426 116.968 12.7136 116.909 12.8257 116.927C13.1819 116.983 13.5593 116.804 13.9018 117.034C13.9765 117.084 14.0463 117 14.1148 116.987C14.4436 116.919 14.7886 116.794 15.0801 117.095C15.1212 117.138 15.1585 117.193 15.2333 117.176C15.6443 117.085 16.0217 117.31 16.4252 117.304C16.7441 117.299 17.0542 117.3 17.3731 117.411C17.7255 117.535 18.1154 117.623 18.4965 117.543C18.7406 117.492 18.8963 117.753 19.1305 117.675C19.4032 117.882 19.6798 117.796 19.9774 117.721C20.3399 117.628 20.7173 117.578 21.0909 117.557C21.5455 117.53 22.0026 117.552 22.4585 117.55C22.6777 117.548 22.8895 117.586 23.0738 117.369C23.2108 117.208 23.4524 117.319 23.6617 117.304L23.6654 117.303Z" fill="#F5F0ED"/>
<path d="M51.5638 127.476C51.4305 127.331 51.2885 127.232 51.2997 127.003C51.3246 126.484 51.2661 125.96 51.3234 125.447C51.357 125.14 51.3383 124.851 51.3134 124.552C51.2885 124.242 51.3084 123.929 51.3084 123.618V122.621C51.3084 122.309 51.3097 121.998 51.3084 121.686C51.3084 121.588 51.3072 121.5 51.2424 121.4C51.1278 121.224 51.1316 120.995 51.23 120.823C51.3632 120.592 51.3209 120.43 51.1951 120.214C51.1029 120.056 51.0469 119.861 51.0506 119.649C51.0581 119.27 51.1054 118.889 50.9447 118.512C50.8289 118.243 51.0656 117.983 51.0892 117.708C51.0905 117.692 51.1216 117.681 51.1303 117.663C51.2349 117.446 51.5314 117.64 51.6522 117.405C51.7332 117.249 51.8864 117.121 52.1105 117.173C52.2936 117.215 52.4145 116.954 52.6362 117.065C52.7532 117.355 52.884 117.615 52.7047 117.997C52.5689 118.285 52.6947 118.691 52.6698 119.042C52.6536 119.275 52.7819 119.531 52.5589 119.746C52.5066 119.796 52.5216 119.957 52.5564 120.048C52.752 120.558 52.7084 121.053 52.5639 121.57C52.4942 121.82 52.5602 122.107 52.549 122.377C52.5427 122.531 52.61 122.699 52.4531 122.839C52.3883 122.896 52.3983 123.036 52.4543 123.123C52.6486 123.428 52.6013 123.788 52.5278 124.073C52.4344 124.438 52.3684 124.754 52.5452 125.101C52.5876 125.183 52.5515 125.306 52.5515 125.409C52.5515 126.573 52.5515 127.735 52.5515 128.899C52.5515 129.125 52.5801 129.365 52.2575 129.4C52.0682 129.713 51.6921 129.747 51.428 129.954C51.1988 130.134 50.956 129.993 50.9335 129.693C50.9273 129.611 50.9211 129.525 50.9335 129.445C51.0132 128.959 51.0668 128.466 51.1963 127.994C51.2474 127.808 51.3383 127.576 51.5613 127.475L51.5638 127.476Z" fill="#F5F0ED"/>
</svg>
