<svg width="36" height="36" viewBox="0 0 36 36" fill="none" xmlns="http://www.w3.org/2000/svg">
<path d="M32.3578 24.4975L27.308 23.921C26.0952 23.7818 24.9023 24.1993 24.0474 25.0542L20.3893 28.7124C14.7629 25.8494 10.1504 21.2569 7.28751 15.6106L10.9655 11.9325C11.8204 11.0776 12.238 9.88477 12.0988 8.67202L11.5222 3.66193C11.2836 1.65392 9.59374 0.142944 7.56585 0.142944H4.12638C1.8798 0.142944 0.0109555 2.01178 0.150126 4.25837C1.20383 21.237 14.7828 34.796 31.7415 35.8497C33.9881 35.9889 35.8569 34.1201 35.8569 31.8735V28.434C35.8768 26.426 34.3658 24.7361 32.3578 24.4975Z" fill="#242925"/>
</svg>
