<svg width="19" height="27" viewBox="0 0 19 27" fill="none" xmlns="http://www.w3.org/2000/svg">
<path fill-rule="evenodd" clip-rule="evenodd" d="M0.138062 10.1527C0.138062 4.97107 4.32886 0.780273 9.51045 0.780273C14.692 0.780273 18.8828 4.97107 18.8828 10.1527C18.8828 15.7359 12.9648 23.4347 10.5414 26.3669C10.0058 27.0096 9.02844 27.0096 8.49287 26.3669C6.05605 23.4347 0.138062 15.7359 0.138062 10.1527ZM6.16321 10.1528C6.16321 12.0006 7.66283 13.5002 9.51058 13.5002C11.3583 13.5002 12.8579 12.0006 12.8579 10.1528C12.8579 8.3051 11.3583 6.80548 9.51058 6.80548C7.66283 6.80548 6.16321 8.3051 6.16321 10.1528Z" fill="#E6E6E6"/>
</svg>
